<?xml version="1.0" standalone="no"?>
<!DOCTYPE svg PUBLIC "-//W3C//DTD SVG 1.1//EN" "http://www.w3.org/Graphics/SVG/1.1/DTD/svg11.dtd" >
<svg>
<metadata>
Created by FontForge 20090622 at Thu Dec 26 09:01:00 2019
 By deploy user
&#194;&#169; 2017 Connary Fagen
</metadata>
<defs>
<font id="CartographSansCF-Medium" horiz-adv-x="1280" >
  <font-face 
    font-family="Cartograph Sans CF Medium"
    font-weight="500"
    font-stretch="normal"
    units-per-em="2000"
    panose-1="0 0 6 0 0 0 0 0 0 0"
    ascent="1600"
    descent="-400"
    x-height="980"
    cap-height="1400"
    bbox="-483 -693 1918 1881"
    underline-thickness="50"
    underline-position="-50"
    unicode-range="U+0020-U+25CA"
  />
<missing-glyph horiz-adv-x="990" 
d="M812 1600v-1980h-628v1980h628zM659 1467h-326v-65h128v-73h-130v-66h328v66h-130v73h130v65zM529 1212h-198v-206h328v67h-130v139zM461 1145v-72h-65v72h65zM659 953h-328v-66h130v-73h-130v-65h198v138h130v66zM659 834h-65v-131h-263v-67h328v198zM659 592h-198v-111
h68v46h65v-93h-198v158h-65v-224h328v224zM659 250h-328v-224h328v224zM594 184v-93h-198v93h198zM659 -20h-328v-65h138l-138 -93v-65h328v65h-202l139 93h63v65z" />
    <glyph glyph-name=".notdef" horiz-adv-x="990" 
d="M812 1600v-1980h-628v1980h628zM659 1467h-326v-65h128v-73h-130v-66h328v66h-130v73h130v65zM529 1212h-198v-206h328v67h-130v139zM461 1145v-72h-65v72h65zM659 953h-328v-66h130v-73h-130v-65h198v138h130v66zM659 834h-65v-131h-263v-67h328v198zM659 592h-198v-111
h68v46h65v-93h-198v158h-65v-224h328v224zM659 250h-328v-224h328v224zM594 184v-93h-198v93h198zM659 -20h-328v-65h138l-138 -93v-65h328v65h-202l139 93h63v65z" />
    <glyph glyph-name=".null" horiz-adv-x="0" 
 />
    <glyph glyph-name="nonmarkingreturn" horiz-adv-x="666" 
 />
    <glyph glyph-name="space" unicode=" " horiz-adv-x="780" 
 />
    <glyph glyph-name="exclam" unicode="!" horiz-adv-x="631" 
d="M434 1282l-54 -853q-2 -31 -33 -31h-63q-30 0 -33 31l-54 853q-4 58 30.5 96t87.5 38t88 -38t31 -96zM315 -26q-59 0 -100 41t-41 100t41 101t100 42t100 -42t41 -101t-41 -100t-100 -41z" />
    <glyph glyph-name="quotedbl" unicode="&#x22;" horiz-adv-x="775" 
d="M260 1400q14 0 22.5 -8.5t7.5 -21.5l-14 -382q-2 -30 -30 -30h-76q-14 0 -22 8t-8 22l-15 382q0 14 8.5 22t21.5 8h105zM620 1400q14 0 22.5 -8.5t7.5 -21.5l-14 -382q-2 -30 -30 -30h-76q-14 0 -22 8t-8 22l-15 382q0 14 8.5 22t21.5 8h105z" />
    <glyph glyph-name="numbersign" unicode="#" 
d="M1061 978h-138v-395h138q14 0 24 -8.5t10 -21.5v-86q0 -13 -10 -21.5t-24 -8.5h-138v-247q0 -14 -8.5 -22t-21.5 -8h-110q-13 0 -21.5 8t-8.5 22v247h-230v-247q0 -14 -8.5 -22t-21.5 -8h-110q-13 0 -21.5 8t-8.5 22v247h-138q-13 0 -21.5 8.5t-8.5 21.5v86
q0 13 8.5 21.5t21.5 8.5h138v395h-138q-13 0 -21.5 8t-8.5 22v86q0 14 8.5 22t21.5 8h138v246q0 14 8.5 22t21.5 8h110q13 0 21.5 -8t8.5 -22v-246h230v246q0 14 8.5 22t21.5 8h110q13 0 21.5 -8t8.5 -22v-246h138q14 0 24 -8.5t10 -21.5v-86q0 -13 -10 -21.5t-24 -8.5z
M753 583v395h-230v-395h230z" />
    <glyph glyph-name="dollar" unicode="$" horiz-adv-x="1232" 
d="M1122 394q0 -153 -109 -248t-328 -110v-181q0 -14 -8.5 -24.5t-21.5 -10.5h-77q-13 0 -21.5 10.5t-8.5 24.5v181q-386 20 -437 296q-6 32 27 32h117q24 0 33 -26q21 -56 87.5 -92.5t172.5 -45.5v445q-72 18 -128.5 38.5t-110.5 51.5t-90 69.5t-57.5 93t-21.5 120.5
q0 146 101 238.5t307 104.5v189q0 14 8 22t22 8h77q13 0 21.5 -8t8.5 -22v-192q165 -14 267.5 -88t127.5 -203q3 -15 -5 -23.5t-23 -8.5h-112q-24 0 -33 25q-19 50 -77 85.5t-145 48.5v-416q76 -17 136 -37t118.5 -51.5t97 -71t62 -97t23.5 -127.5zM318 1017
q0 -77 56.5 -128t173.5 -81v389q-115 -9 -172.5 -55.5t-57.5 -124.5zM685 201q255 21 255 193q0 96 -59.5 141t-195.5 78v-412z" />
    <glyph glyph-name="percent" unicode="%" horiz-adv-x="1300" 
d="M372 1410q122 0 180.5 -71t58.5 -201t-59 -202.5t-180 -72.5q-120 0 -178.5 72.5t-58.5 202.5t58.5 201t178.5 71zM372 1278q-61 0 -83.5 -36t-22.5 -104q0 -70 22.5 -106.5t83.5 -36.5q63 0 85.5 36t22.5 107q0 69 -22.5 104.5t-85.5 35.5zM1051 1170q25 -20 6 -42
l-703 -937q-19 -24 -42 -6l-62 48q-24 19 -6 42l703 937q18 24 42 6zM926 537q122 0 180.5 -71t58.5 -201t-59 -202.5t-180 -72.5q-120 0 -178.5 72.5t-58.5 202.5t58.5 201t178.5 71zM926 405q-61 0 -83.5 -36t-22.5 -104q0 -70 22.5 -106.5t83.5 -36.5q63 0 85.5 36
t22.5 107q0 69 -22.5 104.5t-85.5 35.5z" />
    <glyph glyph-name="ampersand" unicode="&#x26;" horiz-adv-x="1285" 
d="M1183 108q19 -22 -2 -43l-66 -65q-23 -23 -43 -1l-135 161q-91 -84 -189.5 -131t-219.5 -47q-191 0 -308 101t-117 277q0 56 17.5 108.5t44 93.5t69 84t80.5 73.5t90 68.5q-83 94 -128.5 170.5t-45.5 156.5q0 135 86.5 218t238.5 83q150 0 240 -83t90 -213
q0 -55 -19.5 -105.5t-57.5 -96.5t-77.5 -82t-96.5 -79l311 -368l62 69q19 21 40 0l69 -72q18 -18 -1 -40l-69 -76zM399 1114q0 -53 33.5 -107t98.5 -129q91 67 138 122.5t47 117.5q0 68 -44.5 104.5t-116.5 36.5q-71 0 -113.5 -37t-42.5 -108zM531 151q158 0 305 128
l-325 385q-109 -82 -167 -152t-58 -152q0 -93 68.5 -151t176.5 -58z" />
    <glyph glyph-name="quotesingle" unicode="'" horiz-adv-x="415" 
d="M260 1400q14 0 22.5 -8.5t7.5 -21.5l-14 -382q-2 -30 -30 -30h-76q-14 0 -22 8t-8 22l-15 382q0 14 8.5 22t21.5 8h105z" />
    <glyph glyph-name="parenleft" unicode="(" horiz-adv-x="1080" 
d="M865 1308q-85 0 -151.5 -15.5t-115 -43.5t-83 -74.5t-56 -100t-34 -128.5t-17 -151.5t-4.5 -178.5t4.5 -178.5t17 -152t34 -129t56 -100t83 -74.5t115 -44t151.5 -16v-182q-97 0 -178.5 15.5t-143 42.5t-110.5 69.5t-83 89.5t-59 109.5t-39.5 122t-23 136t-11 142.5
t-2.5 149t2.5 148.5t11 142t23 136t39.5 122t59 109t83 89t110.5 69.5t143 42.5t178.5 15.5v-182z" />
    <glyph glyph-name="parenright" unicode=")" horiz-adv-x="1080" 
d="M215 1308v182q97 0 178.5 -15.5t143 -42.5t110.5 -69.5t83 -89t59 -109t39.5 -122t23 -136t11 -142t2.5 -148.5t-2.5 -149t-11 -142.5t-23 -136t-39.5 -122t-59 -109.5t-83 -89.5t-110.5 -69.5t-143 -42.5t-178.5 -15.5v182q85 0 151.5 16t115 44t83 74.5t56 100t34 129
t17 152t4.5 178.5t-4.5 178.5t-17 151.5t-34 128.5t-56 100t-83 74.5t-115 43.5t-151.5 15.5z" />
    <glyph glyph-name="asterisk" unicode="*" horiz-adv-x="1029" 
d="M813 1153q6 -27 -20 -36l-197 -53l127 -168q18 -24 -8 -42l-45 -28q-24 -18 -40 8l-115 165l-116 -165q-16 -26 -40 -8l-45 28q-25 18 -7 42l127 168l-197 53q-27 9 -21 36l12 50q3 15 13.5 21t24.5 1l197 -60l-6 205q0 14 8.5 22t21.5 8h53q14 0 22 -8t8 -22l-4 -205
l197 60q14 5 24.5 -1t13.5 -21z" />
    <glyph glyph-name="plus" unicode="+" horiz-adv-x="1135" 
d="M940 642q14 0 22 -8t8 -22v-86q0 -14 -8 -22t-22 -8h-299v-300q0 -14 -8.5 -22t-21.5 -8h-86q-13 0 -21.5 8t-8.5 22v300h-300q-13 0 -21.5 8t-8.5 22v86q0 14 8.5 22t21.5 8h300v299q0 13 8.5 21.5t21.5 8.5h86q13 0 21.5 -8.5t8.5 -21.5v-299h299z" />
    <glyph glyph-name="comma" unicode="," horiz-adv-x="708" 
d="M553 155q13 0 21.5 -8.5t8.5 -21.5v-49q0 -122 -21 -248.5t-52 -208.5q-9 -23 -35 -23h-66q-32 0 -26 33q14 74 21.5 183.5t5.5 187.5h-255q-13 0 -21.5 8t-8.5 22v95q0 13 8.5 21.5t21.5 8.5h398z" />
    <glyph glyph-name="hyphen" unicode="-" 
d="M1110 639q14 0 22 -8.5t8 -21.5v-93q0 -14 -8 -22t-22 -8h-940q-14 0 -22 8t-8 22v93q0 13 8 21.5t22 8.5h940z" />
    <glyph glyph-name="period" unicode="." horiz-adv-x="552" 
d="M276 -26q-59 0 -100 41t-41 100t41 101t100 42t100 -42t41 -101t-41 -100t-100 -41z" />
    <glyph glyph-name="slash" unicode="/" horiz-adv-x="1305" 
d="M1089 1400q17 0 23 -10t-1 -25l-732 -1601q-11 -24 -36 -24h-125q-17 0 -24 9t0 25l732 1604q11 22 35 22h128z" />
    <glyph glyph-name="zero" unicode="0" horiz-adv-x="1250" 
d="M625 1420q108 0 185 -19t138 -64t97.5 -121.5t55.5 -190t19 -270.5v-119q0 -157 -19 -270.5t-55.5 -190t-97.5 -122t-138.5 -64.5t-184.5 -19t-184.5 19t-138.5 64.5t-97.5 122t-55.5 190t-19 270.5v119q0 157 19 270.5t55.5 190t97.5 121.5t138 64t185 19zM625 1245
q-58 0 -98.5 -6.5t-79 -24.5t-62.5 -52t-43 -88t-27 -133t-8 -187v-118q0 -108 8 -187t27 -133t43 -88t62.5 -52t79 -24.5t98.5 -6.5q50 0 86 4.5t71.5 17t59 35.5t44.5 59t33 88t18.5 123.5t6.5 163.5v118q0 92 -6.5 163.5t-18.5 123.5t-33 88t-44.5 59t-59 35.5t-71.5 17
t-86 4.5zM497 436q-17 0 -24 9t0 25l188 460q9 24 36 24h58q17 0 24 -9t0 -25l-188 -460q-9 -24 -36 -24h-58z" />
    <glyph glyph-name="one" unicode="1" horiz-adv-x="1145" 
d="M995 151q13 0 21.5 -8.5t8.5 -21.5v-91q0 -14 -8.5 -22t-21.5 -8h-845q-14 0 -22 8t-8 22v91q0 13 8 21.5t22 8.5h366v1070q-137 -129 -318 -129q-30 0 -30 30v103q0 31 30 31q75 0 158 37.5t160 106.5h150q14 0 22 -8t8 -22v-1219h299z" />
    <glyph glyph-name="two" unicode="2" horiz-adv-x="1178" 
d="M1011 162q13 0 21.5 -8t8.5 -22v-102q0 -14 -8.5 -22t-21.5 -8h-841q-14 0 -22 8t-8 22v110q0 100 25 183t67.5 140t97.5 104.5t115.5 81.5l121 65l115.5 62t97.5 64.5t67.5 80t25 103.5q0 103 -67 166t-201 63q-286 0 -297 -232q-2 -31 -31 -28l-111 12q-30 3 -30 32
q0 183 122 281t337 98q218 0 333 -104t115 -287q0 -77 -24.5 -139.5t-66 -107t-95.5 -82t-114 -69l-119.5 -63t-113.5 -70t-95.5 -83t-66 -108.5t-24.5 -141h688z" />
    <glyph glyph-name="three" unicode="3" horiz-adv-x="1227" 
d="M832 747q124 -42 202 -133.5t78 -223.5q0 -191 -139 -303.5t-370 -112.5q-225 0 -351.5 102.5t-126.5 278.5q0 29 30 32l114 12q31 3 31 -28q3 -105 82.5 -169t223.5 -64q145 0 233.5 72t88.5 191q0 121 -103 193t-295 72q-30 0 -30 30v85q0 31 30 31q183 0 269.5 66
t86.5 168q0 95 -76.5 151.5t-202.5 56.5q-131 0 -207.5 -64.5t-79.5 -168.5q0 -31 -31 -28l-114 12q-30 3 -30 32q0 174 124.5 276.5t337.5 102.5q202 0 326.5 -97.5t124.5 -260.5q0 -104 -62 -184.5t-164 -126.5z" />
    <glyph glyph-name="four" unicode="4" horiz-adv-x="1255" 
d="M1095 504q13 0 21.5 -8t8.5 -22v-93q0 -13 -8.5 -21.5t-21.5 -8.5h-139v-321q0 -14 -8 -22t-22 -8h-120q-14 0 -22 8t-8 22v321h-631q-13 0 -21.5 8.5t-8.5 21.5v103q0 22 10 38l639 858q14 20 36 20h126q14 0 22 -8t8 -22v-866h139zM776 504v614l-463 -614h463z" />
    <glyph glyph-name="five" unicode="5" horiz-adv-x="1169" 
d="M228 372q24 0 30 -28q24 -108 98 -160t203 -52q153 0 239.5 80.5t86.5 235.5t-85 235.5t-234 80.5q-184 0 -298 -113q-20 -20 -40 -11l-93 36q-26 11 -20 37l122 661q5 26 32 26h647q14 0 22 -8t8 -22v-97q0 -13 -8 -21.5t-22 -8.5h-539l-69 -388q92 67 276 67
q217 0 346 -126t129 -348q0 -223 -133 -348.5t-366 -125.5q-207 0 -329 92.5t-140 273.5q-3 32 28 32h109z" />
    <glyph glyph-name="six" unicode="6" horiz-adv-x="1235" 
d="M630 854q220 0 347.5 -115t127.5 -315q0 -212 -129 -331t-358 -119q-230 0 -358.5 121t-128.5 343l-1 488q0 259 125.5 374.5t370.5 115.5q200 0 321.5 -91.5t121.5 -254.5q0 -29 -30 -32l-102 -9q-27 -3 -32 29q-13 96 -88 148t-195 52q-71 0 -123.5 -13t-99 -46.5
t-71 -101t-24.5 -167.5v-210q34 61 132 97.5t194 36.5zM618 133q147 0 230.5 72t83.5 219q0 137 -84.5 207.5t-229.5 70.5t-229.5 -70.5t-84.5 -207.5q0 -147 83.5 -219t230.5 -72z" />
    <glyph glyph-name="seven" unicode="7" horiz-adv-x="1185" 
d="M1040 1400q14 0 22 -8t8 -22v-107q0 -19 -8 -38l-573 -1194q-14 -31 -38 -31h-128q-14 0 -21 9t-1 22l585 1212h-731q-13 0 -21.5 8.5t-8.5 21.5v97q0 14 8.5 22t21.5 8h885z" />
    <glyph glyph-name="eight" unicode="8" horiz-adv-x="1265" 
d="M905 769q225 -106 225 -362q0 -203 -130 -318t-367 -115t-367.5 115t-130.5 318q0 256 226 362q-163 93 -163 300q0 156 112.5 251.5t322.5 95.5t322 -95.5t112 -251.5q0 -207 -162 -300zM363 1049q0 -105 70 -159.5t200 -54.5q129 0 199 54.5t70 159.5q0 106 -69 160.5
t-200 54.5t-200.5 -54.5t-69.5 -160.5zM633 133q155 0 239.5 68.5t84.5 205.5t-85.5 206t-238.5 69t-238.5 -69t-85.5 -206t84.5 -205.5t239.5 -68.5z" />
    <glyph glyph-name="nine" unicode="9" horiz-adv-x="1245" 
d="M615 536q-220 0 -347.5 115t-127.5 315q0 212 129 331t358 119q230 0 358.5 -121t128.5 -343l1 -488q0 -259 -125.5 -374.5t-370.5 -115.5q-200 0 -321.5 91.5t-121.5 254.5q0 29 30 32l102 9q27 3 32 -29q13 -96 88 -148t195 -52q71 0 123.5 13t99 46.5t71 101
t24.5 167.5v210q-34 -61 -132 -97.5t-194 -36.5zM627 1257q-147 0 -230.5 -72t-83.5 -219q0 -137 84.5 -207.5t229.5 -70.5t229.5 70.5t84.5 207.5q0 147 -83.5 219t-230.5 72z" />
    <glyph glyph-name="colon" unicode=":" horiz-adv-x="632" 
d="M316 717q-59 0 -100 41t-41 100t41 101t100 42t100 -42t41 -101t-41 -100t-100 -41zM316 -26q-59 0 -100 41t-41 100t41 101t100 42t100 -42t41 -101t-41 -100t-100 -41z" />
    <glyph glyph-name="semicolon" unicode=";" horiz-adv-x="730" 
d="M363 717q-59 0 -100 41t-41 100t41 101t100 42t100 -42t41 -101t-41 -100t-100 -41zM603 155q13 0 21.5 -8.5t8.5 -21.5v-49q0 -122 -21 -248.5t-52 -208.5q-9 -23 -35 -23h-66q-32 0 -26 33q14 74 21.5 183.5t5.5 187.5h-255q-13 0 -21.5 8t-8.5 22v95q0 13 8.5 21.5
t21.5 8.5h398z" />
    <glyph glyph-name="less" unicode="&#x3c;" horiz-adv-x="1059" 
d="M890 803q15 -26 -13 -40l-535 -265l535 -265q27 -14 13 -40l-46 -84q-15 -27 -40 -12l-617 310q-22 11 -22 35v112q0 23 22 36l617 310q25 13 40 -12z" />
    <glyph glyph-name="equal" unicode="=" horiz-adv-x="1135" 
d="M940 804q14 0 22 -8t8 -22v-86q0 -14 -8 -22t-22 -8h-745q-13 0 -21.5 8t-8.5 22v86q0 14 8.5 22t21.5 8h745zM940 481q14 0 22 -8.5t8 -21.5v-86q0 -13 -8 -21.5t-22 -8.5h-745q-13 0 -21.5 8.5t-8.5 21.5v86q0 13 8.5 21.5t21.5 8.5h745z" />
    <glyph glyph-name="greater" unicode="&#x3e;" horiz-adv-x="1059" 
d="M169 803l46 85q15 25 40 12l617 -310q22 -13 22 -36v-112q0 -24 -22 -35l-617 -310q-25 -15 -40 12l-46 84q-14 26 13 40l535 265l-535 265q-28 14 -13 40z" />
    <glyph glyph-name="question" unicode="?" horiz-adv-x="1245" 
d="M515 375q-30 0 -30 32q0 83 14.5 147.5t39 105t56.5 70t67.5 48.5t70.5 34.5t67 32.5t57 38.5t39.5 57t14.5 83.5q0 104 -68 166.5t-208 62.5t-218 -59.5t-80 -172.5q-2 -31 -31 -28l-111 12q-30 3 -30 32q0 183 122 281t337 98q219 0 337.5 -105.5t118.5 -285.5
q0 -86 -23 -146t-60 -93t-81 -57l-88.5 -47t-81.5 -53.5t-60 -87t-23 -136.5q0 -30 -30 -30h-118zM569 -26q-59 0 -100 41t-41 100t41 101t100 42t100 -42t41 -101t-41 -100t-100 -41z" />
    <glyph glyph-name="at" unicode="@" horiz-adv-x="1320" 
d="M668 1058q111 0 207 -36.5t167 -103.5t112 -169.5t41 -227.5q0 -163 -67 -240t-162 -77q-102 0 -136 73q-70 -73 -178 -73q-123 0 -198 80.5t-75 210.5q0 133 75 213.5t198 80.5q114 0 184 -78l31 50h69l-32 -355q-8 -89 63 -89q51 0 73 48.5t22 155.5
q0 207 -109.5 307.5t-284.5 100.5q-80 0 -151 -25.5t-129.5 -75.5t-92.5 -134.5t-34 -192.5q0 -84 22.5 -154.5t61 -118.5t91 -81.5t110.5 -49t121 -15.5q112 0 194 43q24 14 42 -3l48 -43q24 -22 -1 -42q-116 -83 -282 -83q-111 0 -209 36.5t-172.5 104.5t-118 173
t-43.5 233q0 131 43.5 238t118.5 176t172.5 106t208.5 37zM652 319q67 0 106.5 47.5t39.5 128.5q0 83 -39.5 132.5t-106.5 49.5q-72 0 -110.5 -48.5t-38.5 -133.5q0 -82 38.5 -129t110.5 -47z" />
    <glyph glyph-name="A" unicode="A" horiz-adv-x="1370" 
d="M1292 34q6 -15 -0.5 -24.5t-23.5 -9.5h-129q-25 0 -34 24l-99 269h-642l-99 -269q-9 -24 -34 -24h-129q-17 0 -23.5 9.5t-0.5 24.5l508 1342q9 24 36 24h126q27 0 36 -24zM425 458h520l-260 708z" />
    <glyph glyph-name="B" unicode="B" horiz-adv-x="1235" 
d="M851 756q142 -32 213 -127.5t71 -225.5q0 -208 -120.5 -305.5t-376.5 -97.5h-463q-13 0 -21.5 8t-8.5 22v1340q0 14 8.5 22t21.5 8h477q113 0 196 -28.5t128.5 -78t67 -107.5t21.5 -125q0 -112 -53 -192t-161 -113zM885 1045q0 96 -61 140.5t-189 44.5h-303v-405h310
q121 0 182 57t61 163zM635 170q159 0 234.5 55.5t75.5 187.5q0 117 -74 184.5t-228 67.5h-311v-495h303z" />
    <glyph glyph-name="C" unicode="C" horiz-adv-x="1441" 
d="M1236 292l80 -84q21 -21 -1 -42q-201 -192 -477 -192q-147 0 -278.5 56.5t-225.5 153t-149 229.5t-55 281q0 199 93.5 364.5t256 261.5t358.5 96q270 0 477 -191q22 -21 1 -42l-80 -85q-19 -19 -42 0q-160 136 -356 136q-142 0 -260.5 -70t-187.5 -194t-69 -276
q0 -150 69 -273.5t187.5 -193.5t260.5 -70q198 0 356 136q22 19 42 -1z" />
    <glyph glyph-name="D" unicode="D" horiz-adv-x="1363" 
d="M535 1400q178 0 318.5 -53.5t230.5 -148.5t137 -221.5t47 -276.5q0 -149 -47 -275.5t-137 -222t-231 -149t-318 -53.5h-335q-14 0 -22 8t-8 22v1340q0 14 8 22t22 8h335zM535 170q268 0 405.5 139t137.5 391t-137.5 391t-405.5 139h-178v-1060h178z" />
    <glyph glyph-name="E" unicode="E" horiz-adv-x="1220" 
d="M1055 170q13 0 21.5 -8t8.5 -22v-110q0 -14 -8.5 -22t-21.5 -8h-855q-14 0 -22 8t-8 22v1340q0 14 8 22t22 8h853q13 0 21.5 -8t8.5 -22v-110q0 -14 -8.5 -22t-21.5 -8h-696v-415h643q14 0 22 -8.5t8 -21.5v-110q0 -13 -8 -21.5t-22 -8.5h-643v-475h698z" />
    <glyph glyph-name="F" unicode="F" horiz-adv-x="1235" 
d="M1080 1400q14 0 22 -8t8 -22v-110q0 -14 -8 -22t-22 -8h-723v-428h677q14 0 22 -8t8 -22v-110q0 -14 -8 -22t-22 -8h-677v-602q0 -14 -8.5 -22t-21.5 -8h-127q-14 0 -22 8t-8 22v1340q0 14 8 22t22 8h880z" />
    <glyph glyph-name="G" unicode="G" horiz-adv-x="1611" 
d="M1451 738q13 0 21.5 -8t8.5 -22v-79q0 -185 -76 -333t-223 -235t-341 -87q-198 0 -361.5 96.5t-256.5 262.5t-93 364q0 148 55 281t149 229t225.5 152.5t278.5 56.5q270 0 477 -191q22 -21 1 -42l-80 -85q-19 -19 -42 0q-160 136 -356 136q-142 0 -260.5 -70
t-187.5 -193.5t-69 -273.5q0 -230 149.5 -385t370.5 -155q200 0 327 116t133 298h-441q-14 0 -22 8.5t-8 21.5v107q0 14 8 22t22 8h591z" />
    <glyph glyph-name="H" unicode="H" horiz-adv-x="1423" 
d="M1223 1400q13 0 21.5 -8t8.5 -22v-1340q0 -14 -8.5 -22t-21.5 -8h-127q-14 0 -22 8t-8 22v599h-709v-599q0 -14 -8.5 -22t-21.5 -8h-127q-14 0 -22 8t-8 22v1340q0 14 8 22t22 8h127q13 0 21.5 -8t8.5 -22v-571h709v571q0 14 8 22t22 8h127z" />
    <glyph glyph-name="I" unicode="I" horiz-adv-x="1285" 
d="M1110 1230h-374v-1060h374q14 0 22 -8t8 -22v-110q0 -14 -8 -22t-22 -8h-935q-13 0 -21.5 8t-8.5 22v110q0 14 8.5 22t21.5 8h374v1060h-374q-13 0 -21.5 8t-8.5 22v110q0 14 8.5 22t21.5 8h935q14 0 22 -8t8 -22v-110q0 -14 -8 -22t-22 -8z" />
    <glyph glyph-name="J" unicode="J" horiz-adv-x="1265" 
d="M1090 1400q14 0 22 -8t8 -22v-866q0 -135 -37.5 -238.5t-105.5 -167t-157.5 -95.5t-199.5 -32q-108 0 -197 30t-156.5 90.5t-107 157.5t-44.5 225q-1 30 30 30h124q30 0 30 -30q9 -163 94.5 -244.5t226.5 -81.5q143 0 228 88t85 268v726h-589q-14 0 -22 8t-8 22v110
q0 14 8 22t22 8h746z" />
    <glyph glyph-name="K" unicode="K" horiz-adv-x="1234" 
d="M1157 36q11 -15 5.5 -25.5t-23.5 -10.5h-153q-23 0 -36 18l-463 630l-155 -174v-444q0 -14 -8 -22t-22 -8h-127q-13 0 -21.5 8t-8.5 22v1340q0 14 8.5 22t21.5 8h127q14 0 22 -8t8 -22v-647l582 661q13 16 36 16h160q20 0 25 -11t-9 -25l-518 -581z" />
    <glyph glyph-name="L" unicode="L" horiz-adv-x="1175" 
d="M1045 170q13 0 21.5 -8t8.5 -22v-110q0 -14 -8.5 -22t-21.5 -8h-845q-14 0 -22 8t-8 22v1340q0 14 8 22t22 8h127q13 0 21.5 -8t8.5 -22v-1200h688z" />
    <glyph glyph-name="M" unicode="M" horiz-adv-x="1761" 
d="M1561 1400q13 0 21.5 -8t8.5 -22v-1340q0 -14 -8.5 -22t-21.5 -8h-127q-14 0 -22 8t-8 22v1015l-429 -1022q-9 -23 -34 -23h-124q-25 0 -34 23l-426 1015v-1008q0 -14 -8.5 -22t-21.5 -8h-127q-14 0 -22 8t-8 22v1340q0 14 8 22t22 8h159q27 0 36 -20l485 -1169l483 1169
q9 20 36 20h162z" />
    <glyph glyph-name="N" unicode="N" horiz-adv-x="1396" 
d="M1196 1400q14 0 22 -8t8 -22v-1340q0 -27 -25 -30h-164q-25 0 -36 20l-644 1104v-1094q0 -14 -8.5 -22t-21.5 -8h-127q-14 0 -22 8t-8 22v1340q0 27 26 30h163q25 0 36 -20l644 -1103v1093q0 14 8.5 22t21.5 8h127z" />
    <glyph glyph-name="O" unicode="O" horiz-adv-x="1693" 
d="M847 -26q-195 0 -360 96t-261 261.5t-96 362.5q0 148 57 282t153 230.5t228.5 153t278.5 56.5q117 0 226 -36t197 -102.5t154.5 -155t102.5 -199t36 -229.5q0 -197 -96 -362.5t-261 -261.5t-359 -96zM847 151q146 0 268.5 72t193 197t70.5 274q0 150 -70.5 275.5
t-193 197.5t-268.5 72q-110 0 -208.5 -42.5t-170 -115t-113 -174t-41.5 -213.5q0 -227 155 -385t378 -158z" />
    <glyph glyph-name="P" unicode="P" horiz-adv-x="1295" 
d="M696 1400q269 0 386.5 -109.5t117.5 -329.5q0 -221 -117.5 -330.5t-386.5 -109.5h-339v-491q0 -14 -8.5 -22t-21.5 -8h-127q-14 0 -22 8t-8 22v1340q0 14 8 22t22 8h496zM709 691q75 0 128 11.5t96 40.5t64.5 83.5t21.5 134.5t-21.5 134t-64.5 83t-96 40.5t-128 11.5
h-352v-539h352z" />
    <glyph glyph-name="Q" unicode="Q" horiz-adv-x="1693" 
d="M847 -26q-195 0 -360 96t-261 261.5t-96 362.5q0 148 57 282t153 230.5t228.5 153t278.5 56.5q117 0 226 -36t197 -102.5t154.5 -155t102.5 -199t36 -229.5q0 -197 -96 -362.5t-261 -261.5t-359 -96zM847 151q146 0 268.5 72t193 197t70.5 274q0 150 -70.5 275.5
t-193 197.5t-268.5 72q-110 0 -208.5 -42.5t-170 -115t-113 -174t-41.5 -213.5q0 -227 155 -385t378 -158zM1103 -180q32 0 32 -28v-105q0 -32 -30 -32q-65 -1 -127 15t-104 35.5t-104 35.5t-127 15q-32 0 -32 28v104q0 32 32 32q65 2 126.5 -14t103.5 -35.5t103.5 -35.5
t126.5 -15z" />
    <glyph glyph-name="R" unicode="R" horiz-adv-x="1300" 
d="M904 543l268 -508q8 -16 1.5 -25.5t-23.5 -9.5h-132q-23 0 -35 22l-258 499h-29h-339v-491q0 -14 -8.5 -22t-21.5 -8h-127q-14 0 -22 8t-8 22v1340q0 14 8 22t22 8h496q269 0 386.5 -109.5t117.5 -329.5q0 -172 -70 -276t-226 -142zM357 1230v-539h352q75 0 128 11.5
t96 40.5t64.5 83.5t21.5 134.5t-21.5 134t-64.5 83t-96 40.5t-128 11.5h-352z" />
    <glyph glyph-name="S" unicode="S" horiz-adv-x="1241" 
d="M610 799q65 -13 115 -26t107 -32.5t98 -42t81 -55.5t65 -71.5t40 -91t15 -114.5q0 -186 -128.5 -291t-386.5 -105q-230 0 -360 86t-146 256q-2 15 6.5 25.5t21.5 10.5h122q26 0 30 -30q13 -83 98 -130.5t228 -47.5q331 0 331 224q0 44 -9 77.5t-31.5 59t-47 43.5t-68 34
t-81 26t-100.5 25q-85 19 -147.5 39.5t-126 54t-103.5 75.5t-65.5 105t-25.5 142q0 174 117.5 273t344.5 99q218 0 343 -84t142 -251q3 -30 -28 -30h-113q-27 0 -30 24q-12 79 -94 126.5t-219 47.5q-132 0 -207.5 -53t-75.5 -152q0 -100 69 -157.5t219 -88.5z" />
    <glyph glyph-name="T" unicode="T" horiz-adv-x="1275" 
d="M1150 1400q14 0 22 -8t8 -22v-110q0 -14 -8 -22t-22 -8h-419v-1200q0 -14 -8.5 -22t-21.5 -8h-127q-14 0 -22 8t-8 22v1200h-419q-13 0 -21.5 8t-8.5 22v110q0 14 8.5 22t21.5 8h1025z" />
    <glyph glyph-name="U" unicode="U" horiz-adv-x="1403" 
d="M1238 1400q14 0 22 -8t8 -22v-804q0 -293 -149 -444t-418 -151q-268 0 -417 151t-149 444v804q0 14 8.5 22t21.5 8h127q14 0 22 -8t8 -22v-804q0 -207 101 -312.5t278 -105.5q178 0 279 105.5t101 312.5v804q0 14 8.5 22t21.5 8h127z" />
    <glyph glyph-name="V" unicode="V" horiz-adv-x="1370" 
d="M1105 1376q9 24 34 24h129q17 0 23.5 -9.5t0.5 -24.5l-508 -1342q-9 -24 -36 -24h-126q-27 0 -36 24l-508 1342q-6 15 0.5 24.5t23.5 9.5h129q25 0 34 -24l420 -1142z" />
    <glyph glyph-name="W" unicode="W" horiz-adv-x="1988" 
d="M1867 1400q33 0 24 -34l-357 -1342q-6 -24 -36 -24h-153q-28 0 -36 24l-317 1057l-317 -1057q-7 -24 -35 -24h-154q-30 0 -36 24l-353 1342q-10 34 24 34h129q29 0 34 -24l283 -1141l332 1141q4 14 16 21q6 3 16 3h123q10 0 16 -3q12 -7 16 -21l332 -1141l286 1141
q7 24 34 24h129z" />
    <glyph glyph-name="X" unicode="X" horiz-adv-x="1255" 
d="M1154 36q9 -15 3.5 -25.5t-23.5 -10.5h-134q-25 0 -36 20l-336 535l-336 -535q-11 -20 -36 -20h-135q-18 0 -23.5 10.5t3.5 25.5l426 678l-408 650q-9 16 -3.5 26t23.5 10h135q25 0 36 -20l318 -506l318 506q11 20 36 20h134q18 0 23.5 -10t-3.5 -26l-408 -650z" />
    <glyph glyph-name="Y" unicode="Y" horiz-adv-x="1380" 
d="M1289 1400q18 0 24 -10t-4 -26l-525 -821v-513q0 -14 -8 -22t-22 -8h-127q-13 0 -21.5 8t-8.5 22v513l-526 821q-10 16 -4 26t24 10h147q23 0 36 -20l416 -651l416 651q13 20 36 20h147z" />
    <glyph glyph-name="Z" unicode="Z" horiz-adv-x="1265" 
d="M1085 170q13 0 21.5 -8t8.5 -22v-110q0 -14 -8.5 -22t-21.5 -8h-905q-14 0 -22 8t-8 22v120q0 18 12 36l725 1044h-687q-14 0 -22 8t-8 22v110q0 14 8 22t22 8h865q13 0 21.5 -8t8.5 -22v-120q0 -18 -12 -36l-725 -1044h727z" />
    <glyph glyph-name="bracketleft" unicode="[" horiz-adv-x="1055" 
d="M810 1490q14 0 22 -8t8 -22v-91q0 -13 -8 -21.5t-22 -8.5h-408v-1448h408q14 0 22 -8.5t8 -21.5v-91q0 -14 -8 -22t-22 -8h-565q-13 0 -21.5 8t-8.5 22v1690q0 14 8.5 22t21.5 8h565z" />
    <glyph glyph-name="backslash" unicode="\" horiz-adv-x="1305" 
d="M203 1400h128q24 0 35 -22l732 -1604q7 -16 0 -25t-24 -9h-125q-25 0 -36 24l-732 1601q-7 15 -1 25t23 10z" />
    <glyph glyph-name="bracketright" unicode="]" horiz-adv-x="1055" 
d="M245 1490h565q14 0 22 -8t8 -22v-1690q0 -14 -8 -22t-22 -8h-565q-13 0 -21.5 8t-8.5 22v91q0 13 8.5 21.5t21.5 8.5h408v1448h-408q-13 0 -21.5 8.5t-8.5 21.5v91q0 14 8.5 22t21.5 8z" />
    <glyph glyph-name="asciicircum" unicode="^" horiz-adv-x="1143" 
d="M876 650q-26 -15 -40 13l-265 535l-265 -535q-14 -27 -40 -13l-84 46q-27 15 -12 40l310 617q11 22 35 22h112q23 0 36 -22l310 -617q13 -25 -12 -40z" />
    <glyph glyph-name="underscore" unicode="_" 
d="M1110 0q14 0 22 -8t8 -22v-93q0 -13 -8 -21.5t-22 -8.5h-940q-14 0 -22 8.5t-8 21.5v93q0 14 8 22t22 8h940z" />
    <glyph glyph-name="grave" unicode="`" 
d="M527 1460h96q23 0 34 -24l120 -252q7 -16 0 -25t-24 -9h-96q-23 0 -34 24l-120 252q-7 16 0 25t24 9z" />
    <glyph glyph-name="a" unicode="a" horiz-adv-x="1237" 
d="M1102 149q19 -3 27 -11t8 -25v-86q0 -34 -52 -35q-200 -7 -200 161h-4q-83 -88 -201.5 -132.5t-230.5 -44.5q-163 0 -246 74.5t-83 203.5q0 126 79.5 198.5t243.5 97.5l277 42q64 9 94 19t37 26q-1 112 -61 161t-178 49q-240 0 -262 -152q-3 -23 -29 -23h-116
q-31 0 -28 30q31 300 436 300q210 0 311.5 -94t101.5 -269v-409q0 -69 76 -81zM301 273q0 -66 44 -103t136 -37q224 0 370 145v226q-6 -14 -30.5 -22.5t-79.5 -17.5l-257 -40q-101 -16 -142 -53t-41 -98z" />
    <glyph glyph-name="b" unicode="b" horiz-adv-x="1255" 
d="M676 1001q211 0 332.5 -144t121.5 -369q0 -146 -54 -262t-158.5 -183.5t-241.5 -67.5q-215 0 -339 163l-8 -108q-3 -30 -30 -30h-109q-14 0 -22 8t-8 22v1340q0 14 8 22t22 8h120q14 0 22 -8t8 -22v-549h19q44 81 123.5 130.5t193.5 49.5zM644 142q149 0 230 95t81 253
t-80.5 251t-230.5 93q-139 0 -223.5 -94.5t-84.5 -249.5t84.5 -251.5t223.5 -96.5z" />
    <glyph glyph-name="c" unicode="c" horiz-adv-x="1176" 
d="M640 142q175 0 276 133q16 22 40 7l89 -52q26 -16 9 -40q-67 -101 -176 -158.5t-241 -57.5q-221 0 -366.5 147.5t-145.5 366.5q0 220 145.5 367t366.5 147q132 0 241 -57.5t176 -157.5q17 -25 -9 -41l-89 -52q-23 -14 -40 7q-102 134 -276 134q-148 0 -243.5 -96.5
t-95.5 -250.5q0 -153 95.5 -249.5t243.5 -96.5z" />
    <glyph glyph-name="d" unicode="d" horiz-adv-x="1270" 
d="M1080 1400q14 0 22 -8t8 -22v-1340q0 -14 -8 -22t-22 -8h-109q-27 0 -30 30l-8 105q-126 -161 -343 -161q-208 0 -336.5 146t-128.5 368q0 224 126.5 369t338.5 145q120 0 201 -50t122 -131h17v549q0 14 8 22t22 8h120zM622 141q144 0 230.5 97t86.5 252q0 156 -86 251
t-231 95q-149 0 -235.5 -95t-86.5 -251t86.5 -252.5t235.5 -96.5z" />
    <glyph glyph-name="e" unicode="e" horiz-adv-x="1212" 
d="M619 1002q141 0 249.5 -68t163.5 -177t55 -239q0 -58 -11.5 -81.5t-49.5 -23.5h-725q17 -129 113 -208t241 -79q144 0 258 93q25 20 43 3l52 -52q23 -24 1 -46q-152 -150 -373 -150q-227 0 -369 147t-142 367q0 143 62 260t175.5 185.5t256.5 68.5zM619 846
q-127 0 -214 -81.5t-104 -213.5h628q-9 130 -94.5 212.5t-215.5 82.5z" />
    <glyph glyph-name="f" unicode="f" horiz-adv-x="1220" 
d="M1085 980q13 0 21.5 -8t8.5 -22v-91q0 -13 -8.5 -21.5t-21.5 -8.5h-509v-799q0 -14 -8 -22t-22 -8h-120q-14 0 -22 8t-8 22v799h-261q-13 0 -21.5 8.5t-8.5 21.5v91q0 14 8.5 22t21.5 8h261v103q0 113 34.5 192t97.5 120.5t136 59t166 17.5q100 0 187.5 -17.5t87.5 -46.5
v-89q0 -15 -10 -23t-26 -5l-31 8q-31 8 -73 13.5t-96 5.5q-64 0 -112.5 -10t-91.5 -35.5t-66 -76t-23 -124.5v-92h509z" />
    <glyph glyph-name="g" unicode="g" horiz-adv-x="1273" 
d="M1083 980q13 0 21.5 -8t8.5 -22v-932q0 -89 -29 -160.5t-77.5 -118t-114.5 -78t-135.5 -44.5t-144.5 -13q-229 0 -386 102q-24 15 -10 42l38 71q15 26 40 12q142 -71 305 -71q66 0 124.5 14t108.5 43t79.5 81t29.5 122v145q-126 -170 -337 -170q-206 0 -342.5 146.5
t-136.5 356.5t136.5 356.5t342.5 146.5q205 0 333 -165l7 114q3 30 30 30h109zM621 162q135 0 226.5 100.5t91.5 237.5q0 136 -91 235t-227 99q-137 0 -229 -96.5t-92 -237.5q0 -143 92 -240.5t229 -97.5z" />
    <glyph glyph-name="h" unicode="h" horiz-adv-x="1218" 
d="M701 1002q166 0 261.5 -102t95.5 -294v-576q0 -14 -8 -22t-22 -8h-120q-14 0 -22 8t-8 22v556q0 126 -61 188.5t-176 62.5q-66 0 -122.5 -23t-92 -57.5t-57 -66.5t-29.5 -58v-602q0 -14 -8 -22t-22 -8h-120q-14 0 -22 8t-8 22v1340q0 14 8 22t22 8h120q14 0 22 -8t8 -22
v-555h17q49 80 137 133.5t207 53.5z" />
    <glyph glyph-name="i" unicode="i" horiz-adv-x="1155" 
d="M605 1202q-46 0 -77.5 31.5t-31.5 77.5t31.5 77.5t77.5 31.5t77.5 -31.5t31.5 -77.5t-31.5 -77.5t-77.5 -31.5zM1010 156q14 0 22 -8t8 -22v-96q0 -14 -8 -22t-22 -8h-855q-13 0 -21.5 8t-8.5 22v96q0 14 8.5 22t21.5 8h364v669h-314q-13 0 -21.5 8.5t-8.5 21.5v95
q0 14 8.5 22t21.5 8h464q13 0 21.5 -8t8.5 -22v-794h311z" />
    <glyph glyph-name="j" unicode="j" horiz-adv-x="992" 
d="M709 1202q-46 0 -77.5 31.5t-31.5 77.5t31.5 77.5t77.5 31.5t77.5 -31.5t31.5 -77.5t-31.5 -77.5t-77.5 -31.5zM792 980q14 0 22 -8t8 -22v-920q0 -97 -24.5 -171t-64 -119.5t-96 -74t-113.5 -39t-124 -10.5q-61 0 -119 13t-99 32.5t-71 41.5t-42.5 41t-5.5 30l50 79
q7 11 21.5 12t28.5 -9q103 -82 226 -82q52 0 92.5 10.5t79 37t60 81.5t21.5 136v786h-465q-13 0 -21.5 8.5t-8.5 21.5v95q0 14 8.5 22t21.5 8h615z" />
    <glyph glyph-name="k" unicode="k" horiz-adv-x="1155" 
d="M1072 36q12 -15 6 -25.5t-24 -10.5h-143q-22 0 -36 18l-346 415l-189 -198v-205q0 -14 -8 -22t-22 -8h-120q-14 0 -22 8t-8 22v1400q0 14 8 22t22 8h120q14 0 22 -8t8 -22v-968l470 502q16 16 38 16h152q20 0 25 -10.5t-9 -25.5l-373 -391z" />
    <glyph glyph-name="l" unicode="l" horiz-adv-x="1160" 
d="M1020 156q14 0 22 -8t8 -22v-96q0 -14 -8 -22t-22 -8h-865q-13 0 -21.5 8t-8.5 22v96q0 14 8.5 22t21.5 8h364v1089h-342q-13 0 -21.5 8.5t-8.5 21.5v95q0 14 8.5 22t21.5 8h492q13 0 21.5 -8t8.5 -22v-1214h321z" />
    <glyph glyph-name="m" unicode="m" horiz-adv-x="1422" 
d="M190 0q-14 0 -22 8t-8 22v920q0 14 8 22t22 8h101q28 0 30 -30l5 -90h13q27 68 83.5 105t136.5 37q155 0 209 -142h11q65 142 230 142q126 0 189.5 -78.5t63.5 -261.5v-632q0 -14 -8 -22t-22 -8h-109q-13 0 -21.5 8t-8.5 22v632q0 100 -32 142t-100 42
q-74 0 -116.5 -47.5t-50.5 -108.5v-660q0 -14 -8 -22t-22 -8h-106q-14 0 -22 8t-8 22v632q0 100 -32 142t-101 42q-72 0 -114 -47.5t-52 -108.5v-660q0 -14 -8.5 -22t-21.5 -8h-109z" />
    <glyph glyph-name="n" unicode="n" horiz-adv-x="1221" 
d="M704 1002q166 0 261.5 -102t95.5 -294v-576q0 -14 -8.5 -22t-21.5 -8h-120q-13 0 -21.5 8t-8.5 22v556q0 126 -61 188.5t-176 62.5q-72 0 -134 -28t-97 -66.5t-54 -72.5t-19 -52v-588q0 -14 -8 -22t-22 -8h-120q-14 0 -22 8t-8 22v920q0 14 8 22t22 8h112q27 0 30 -30
l8 -135h20q49 80 137 133.5t207 53.5z" />
    <glyph glyph-name="o" unicode="o" horiz-adv-x="1279" 
d="M640 -26q-106 0 -201 40t-164 108.5t-109.5 164t-40.5 201.5q0 142 68.5 260t187 186t259.5 68q214 0 364 -149.5t150 -364.5q0 -216 -150 -365t-364 -149zM640 142q143 0 241 100.5t98 245.5q0 144 -98.5 245.5t-240.5 101.5q-143 0 -241.5 -101.5t-98.5 -245.5
q0 -145 98.5 -245.5t241.5 -100.5z" />
    <glyph glyph-name="p" unicode="p" horiz-adv-x="1255" 
d="M676 1001q211 0 332.5 -144t121.5 -369q0 -146 -54 -262t-158.5 -183.5t-241.5 -67.5q-212 0 -336 159v-484q0 -14 -8 -22t-22 -8h-120q-14 0 -22 8t-8 22v1300q0 14 8 22t22 8h120q14 0 22 -8t8 -22v-129h19q44 81 123.5 130.5t193.5 49.5zM644 142q149 0 230 95t81 253
t-80.5 251t-230.5 93q-139 0 -223.5 -94.5t-84.5 -249.5t84.5 -251.5t223.5 -96.5z" />
    <glyph glyph-name="q" unicode="q" horiz-adv-x="1270" 
d="M1080 980q14 0 22 -8t8 -22v-1300q0 -14 -8 -22t-22 -8h-120q-14 0 -22 8t-8 22v481q-127 -157 -340 -157q-208 0 -336.5 146t-128.5 368q0 224 126.5 369t338.5 145q120 0 201 -50t122 -131h17v129q0 14 8 22t22 8h120zM622 141q144 0 230.5 97t86.5 252q0 156 -86 251
t-231 95q-149 0 -235.5 -95t-86.5 -251t86.5 -252.5t235.5 -96.5z" />
    <glyph glyph-name="r" unicode="r" horiz-adv-x="1209" 
d="M717 1002q171 0 274 -95t103 -273q0 -29 -30 -32l-120 -16q-28 -3 -31 27q-4 112 -67.5 167t-174.5 55q-78 0 -145 -30t-105 -72.5t-59.5 -83t-21.5 -68.5v-551q0 -14 -8 -22t-22 -8h-120q-14 0 -22 8t-8 22v920q0 14 8 22t22 8h112q27 0 30 -30l8 -135h23
q53 79 145.5 133t208.5 54z" />
    <glyph glyph-name="s" unicode="s" horiz-adv-x="1129" 
d="M563 559q190 -25 268 -51q152 -53 177 -179q6 -27 6 -59q0 -136 -113 -216t-336 -80q-202 0 -320 70t-134 229q-3 30 29 30h116q26 0 29 -23q22 -153 279 -153q132 0 202.5 36t70.5 107q0 38 -19 64.5t-60 43t-83.5 25t-111.5 17.5q-58 7 -94 13t-87 17t-82.5 24t-67 35
t-55 49t-33 65.5t-13.5 86.5q0 134 104.5 213t312.5 79q415 0 444 -298q3 -30 -28 -30h-116q-26 0 -29 23q-22 153 -270 153q-243 0 -243 -143q0 -30 12.5 -53t32 -37.5t55 -26t70 -18t87.5 -13.5z" />
    <glyph glyph-name="t" unicode="t" horiz-adv-x="1202" 
d="M1093 158q18 -21 1 -40q-45 -51 -128 -92.5t-198 -41.5q-63 0 -117 10.5t-105 38.5t-86.5 71.5t-57 113.5t-21.5 162v445h-256q-13 0 -21.5 8.5t-8.5 21.5v95q0 14 8.5 22t21.5 8h256v260q0 14 8.5 22t21.5 8h120q13 0 21.5 -8t8.5 -22v-260h416q13 0 21.5 -8t8.5 -22
v-95q0 -13 -8.5 -21.5t-21.5 -8.5h-416v-432q0 -245 234 -245q112 0 201 75q22 21 42 -2z" />
    <glyph glyph-name="u" unicode="u" horiz-adv-x="1211" 
d="M1021 980q13 0 21.5 -8t8.5 -22v-920q0 -14 -8.5 -22t-21.5 -8h-112q-27 0 -30 30l-8 136h-20q-49 -80 -136.5 -134t-204.5 -54q-166 0 -263 102.5t-97 294.5v575q0 14 8 22t22 8h120q14 0 22 -8t8 -22v-555q0 -127 63.5 -190.5t184.5 -63.5q68 0 127.5 28.5t93.5 67.5
t53 73.5t19 52.5v587q0 14 8.5 22t21.5 8h120z" />
    <glyph glyph-name="v" unicode="v" horiz-adv-x="1173" 
d="M903 956q10 24 36 24h121q17 0 24 -9t0 -25l-396 -922q-10 -24 -36 -24h-131q-27 0 -36 24l-396 922q-7 16 0 25t24 9h121q26 0 36 -24l316 -756z" />
    <glyph glyph-name="w" unicode="w" horiz-adv-x="1490" 
d="M1379 980q33 0 24 -34l-244 -922q-6 -24 -36 -24h-148q-29 0 -36 24l-193 723l-195 -723q-6 -24 -36 -24h-147q-28 0 -36 24l-245 922q-9 34 24 34h115q30 0 36 -24l184 -753l207 753q7 24 36 24h112q30 0 36 -24l208 -753l185 753q6 24 36 24h113z" />
    <glyph glyph-name="x" unicode="x" horiz-adv-x="1240" 
d="M1136 36q12 -14 6.5 -25t-24.5 -11h-147q-23 0 -36 17l-316 363l-316 -363q-13 -17 -36 -17h-147q-19 0 -23.5 11t7.5 25l410 468l-385 440q-12 14 -6.5 25t24.5 11h145q23 0 36 -16l291 -338l291 338q13 16 36 16h145q20 0 25.5 -10.5t-7.5 -25.5l-383 -440z" />
    <glyph glyph-name="y" unicode="y" horiz-adv-x="1203" 
d="M1075 980q17 0 24 -9t0 -25l-554 -1302q-11 -24 -36 -24h-121q-17 0 -24 9t0 25l146 344l-406 948q-7 16 0 25t24 9h121q25 0 36 -24l316 -756l317 756q11 24 36 24h121z" />
    <glyph glyph-name="z" unicode="z" horiz-adv-x="1170" 
d="M1010 950v-99q0 -24 -14 -38l-623 -662h607q14 0 22 -8.5t8 -21.5v-91q0 -14 -8 -22t-22 -8h-790q-14 0 -22 8t-8 22v99q0 24 14 38l623 662h-607q-14 0 -22 8.5t-8 21.5v91q0 14 8 22t22 8h790q14 0 22 -8t8 -22z" />
    <glyph glyph-name="braceleft" unicode="{" horiz-adv-x="1113" 
d="M558 870q0 -26 -10 -37l-190 -221l190 -216q10 -12 10 -38v-397q0 -31 19 -50t51 -19h290q14 0 22 -8t8 -22v-92q0 -14 -8 -22t-22 -8h-388q-67 0 -113 43t-46 119v432q0 26 -10 38l-186 220q-18 21 -2 40l188 225q10 12 10 38v433q0 76 46 119t113 43h388q14 0 22 -8
t8 -22v-92q0 -14 -8 -22t-22 -8h-290q-32 0 -51 -19t-19 -50v-399z" />
    <glyph glyph-name="bar" unicode="|" horiz-adv-x="527" 
d="M170 1570q0 14 8 22t22 8h127q13 0 21.5 -8t8.5 -22v-1920q0 -14 -8.5 -22t-21.5 -8h-127q-14 0 -22 8t-8 22v1920z" />
    <glyph glyph-name="braceright" unicode="}" horiz-adv-x="1113" 
d="M555 870v399q0 31 -19 50t-51 19h-290q-13 0 -21.5 8t-8.5 22v92q0 14 8.5 22t21.5 8h388q67 0 113 -43t46 -119v-433q0 -26 10 -38l188 -225q16 -19 -2 -40l-186 -220q-10 -12 -10 -38v-432q0 -76 -46 -119t-113 -43h-388q-13 0 -21.5 8t-8.5 22v92q0 14 8.5 22t21.5 8
h290q32 0 51 19t19 50v397q0 26 10 38l190 216l-190 221q-10 11 -10 37z" />
    <glyph glyph-name="asciitilde" unicode="~" horiz-adv-x="1218" 
d="M410 733q54 0 101.5 -19.5t82 -46.5l67 -54.5t70 -47t77.5 -19.5q53 0 86.5 26.5t42.5 58.5q5 20 25 20h67q27 0 23 -24q-7 -96 -75.5 -153t-175.5 -57q-53 0 -100 19.5t-81.5 47l-66.5 54.5t-69 46.5t-75 19.5q-92 0 -128 -84q-10 -21 -26 -21h-68q-25 0 -22 30
q11 90 77 147t168 57z" />
    <glyph glyph-name="exclamdown" unicode="&#xa1;" horiz-adv-x="632" 
d="M316 1066q59 0 100 -41t41 -100t-41 -101t-100 -42t-100 42t-41 101t41 100t100 41zM435 -242q4 -58 -31 -96t-88 -38t-87.5 38t-30.5 96l54 853q3 31 33 31h63q31 0 33 -31z" />
    <glyph glyph-name="cent" unicode="&#xa2;" horiz-adv-x="1176" 
d="M1045 375q26 -15 9 -39q-58 -86 -150 -140.5t-204 -67.5v-178q0 -14 -8 -22t-22 -8h-72q-14 0 -22 8t-8 22v179q-195 23 -319 163t-124 336q0 197 124 337t319 163v242q0 14 8 22t22 8h72q14 0 22 -8t8 -22v-241q112 -13 204 -67.5t150 -140.5q17 -24 -9 -40l-89 -51
q-23 -14 -40 7q-83 106 -216 127v-671q133 21 216 127q17 21 40 6zM301 628q0 -130 73.5 -220t193.5 -112v665q-120 -22 -193.5 -112t-73.5 -221z" />
    <glyph glyph-name="sterling" unicode="&#xa3;" horiz-adv-x="1230" 
d="M1065 170q13 0 21.5 -8t8.5 -22v-110q0 -14 -8.5 -22t-21.5 -8h-898q-13 0 -21.5 8t-8.5 22v140q34 19 66 45t65.5 64.5t53.5 91t20 110.5q0 45 -10 92h-167q-13 0 -21.5 8.5t-8.5 21.5v106q0 13 8.5 21.5t21.5 8.5h103q-27 54 -41 87t-28 91.5t-14 119.5
q0 177 115.5 278t332.5 101q215 0 336.5 -98t121.5 -281q0 -29 -29 -32l-111 -12q-31 -3 -31 28q-3 113 -81 172.5t-217 59.5q-133 0 -198.5 -63.5t-65.5 -165.5q0 -45 10.5 -89t19.5 -65t34.5 -69.5t31.5 -61.5h488q14 0 22 -8.5t8 -21.5v-106q0 -13 -8 -21.5t-22 -8.5
h-435q7 -52 7 -100q0 -81 -38.5 -163t-97.5 -140h687z" />
    <glyph glyph-name="currency" unicode="&#xa4;" horiz-adv-x="1246" 
d="M1069 952q0 -143 -83 -261l95 -95l-94 -92l-93 93q-120 -93 -273 -93q-151 0 -271 91l-91 -91l-94 92l93 93q-85 116 -85 263t86 265l-94 94l94 92l93 -93q118 90 269 90t272 -91l94 94l94 -92l-97 -97q85 -115 85 -262zM621 622q139 0 236 99.5t97 230.5
q0 130 -97.5 230.5t-235.5 100.5t-234.5 -100t-96.5 -231q0 -132 96.5 -231t234.5 -99z" />
    <glyph glyph-name="yen" unicode="&#xa5;" horiz-adv-x="1380" 
d="M1289 1400q18 0 24 -10t-4 -26l-471 -737h288q14 0 22 -8.5t8 -21.5v-86q0 -13 -8 -21.5t-22 -8.5h-342v-85h342q14 0 22 -8t8 -22v-86q0 -14 -8 -22t-22 -8h-342v-220q0 -14 -8 -22t-22 -8h-127q-13 0 -21.5 8t-8.5 22v220h-342q-13 0 -21.5 8t-8.5 22v86q0 14 8.5 22
t21.5 8h342v85h-342q-13 0 -21.5 8.5t-8.5 21.5v86q0 13 8.5 21.5t21.5 8.5h288l-472 737q-10 16 -4 26t24 10h147q23 0 36 -20l416 -651l416 651q13 20 36 20h147z" />
    <glyph glyph-name="brokenbar" unicode="&#xa6;" horiz-adv-x="527" 
d="M327 1600q13 0 21.5 -8t8.5 -22v-560q0 -14 -8.5 -22t-21.5 -8h-127q-14 0 -22 8t-8 22v560q0 14 8 22t22 8h127zM327 240q13 0 21.5 -8t8.5 -22v-560q0 -14 -8.5 -22t-21.5 -8h-127q-14 0 -22 8t-8 22v560q0 14 8 22t22 8h127z" />
    <glyph glyph-name="section" unicode="&#xa7;" horiz-adv-x="1357" 
d="M1207 558q0 -181 -110 -288q60 -81 60 -195q0 -189 -125 -292.5t-370 -103.5q-230 0 -359.5 85.5t-146.5 256.5q-2 15 6.5 25.5t21.5 10.5h122q26 0 30 -30q13 -84 98 -131.5t228 -47.5q156 0 233.5 53.5t77.5 171.5q0 52 -18 88t-62 62t-95.5 42.5t-141.5 37.5
q-89 21 -151.5 40.5t-134.5 55.5t-116.5 80.5t-74 114t-29.5 157.5q0 156 113 266q-55 85 -55 208q0 173 115 274t327 101q217 0 342.5 -85.5t142.5 -252.5q3 -30 -28 -30h-113q-27 0 -30 24q-12 79 -94.5 128t-218.5 49q-123 0 -193 -54t-70 -154q0 -103 60.5 -159
t207.5 -87q67 -14 117 -26.5t110.5 -32.5t104 -41.5t87.5 -53.5t71 -69.5t44 -88t17 -109.5zM656 473q197 -43 294 -90q76 59 76 176q0 24 -4 45t-14.5 38.5t-20.5 32t-30 28l-35.5 23.5t-43.5 20.5t-47.5 17t-54.5 16l-57 15t-63 14.5q-163 37 -257 88q-67 -56 -67 -162
q0 -59 22 -102.5t68 -73.5t100 -49t134 -37z" />
    <glyph glyph-name="dieresis" unicode="&#xa8;" 
d="M449 1221q-41 0 -70.5 29.5t-29.5 71.5q0 40 29.5 69t70.5 29t70.5 -29t29.5 -69q0 -42 -29.5 -71.5t-70.5 -29.5zM833 1221q-41 0 -70.5 29.5t-29.5 71.5q0 40 29.5 69t70.5 29t70.5 -29t29.5 -69q0 -42 -29.5 -71.5t-70.5 -29.5z" />
    <glyph glyph-name="copyright" unicode="&#xa9;" horiz-adv-x="1406" 
d="M703 112q-155 0 -287 76.5t-209 208.5t-77 287t77 287t209 208.5t287 76.5t287 -76.5t209 -208.5t77 -287t-77 -287t-209 -208.5t-287 -76.5zM703 239q184 0 312 130t128 315q0 186 -128 316t-312 130t-312.5 -130t-128.5 -316q0 -185 128.5 -315t312.5 -130zM900 474
q21 -23 -1 -42q-77 -66 -187 -66q-131 0 -222 91.5t-91 226.5t91 227t222 92q109 0 188 -66q22 -19 0 -42l-34 -35q-15 -16 -41 -2q-53 32 -110 32q-85 0 -143 -59.5t-58 -146.5t58 -146t143 -59q56 0 110 31q25 15 41 -2z" />
    <glyph glyph-name="ordfeminine" unicode="&#xaa;" 
d="M886 1400h114v-718h-114l-20 88q-90 -88 -222 -88q-152 0 -258 106t-106 258t106 258t258 106q131 0 223 -87zM644 814q97 0 165 67.5t68 164.5q0 98 -67.5 165.5t-165.5 67.5q-97 0 -164.5 -68t-67.5 -165t67.5 -164.5t164.5 -67.5z" />
    <glyph glyph-name="guillemotleft" unicode="&#xab;" horiz-adv-x="1246" 
d="M611 944l-252 -382l252 -382q10 -16 4 -26t-24 -10h-132q-25 0 -36 20l-250 378q-14 20 0 40l250 378q11 20 36 20h132q18 0 24 -10t-4 -26zM1075 944l-252 -382l252 -382q10 -16 4 -26t-24 -10h-132q-25 0 -36 20l-250 378q-14 20 0 40l250 378q11 20 36 20h132
q18 0 24 -10t-4 -26z" />
    <glyph glyph-name="logicalnot" unicode="&#xac;" horiz-adv-x="1330" 
d="M1135 609q13 0 21.5 -8.5t8.5 -21.5v-263q0 -14 -8.5 -22t-21.5 -8h-119q-14 0 -22 8t-8 22v142h-791q-13 0 -21.5 8t-8.5 22v91q0 13 8.5 21.5t21.5 8.5h940z" />
    <glyph glyph-name="uni00AD" unicode="&#xad;" 
d="M1110 639q14 0 22 -8.5t8 -21.5v-93q0 -14 -8 -22t-22 -8h-940q-14 0 -22 8t-8 22v93q0 13 8 21.5t22 8.5h940z" />
    <glyph glyph-name="registered" unicode="&#xae;" horiz-adv-x="1406" 
d="M703 1256q155 0 287 -76.5t209 -208.5t77 -287t-77 -287t-209 -208.5t-287 -76.5t-287 76.5t-209 208.5t-77 287t77 287t209 208.5t287 76.5zM703 239q184 0 312 130t128 315q0 186 -128 316t-312 130t-312.5 -130t-128.5 -316q0 -185 128.5 -315t312.5 -130zM979 780
q0 -75 -44.5 -122t-125.5 -60l162 -176q8 -8 4.5 -15.5t-15.5 -7.5h-94q-12 0 -21 11l-165 183h-110v-176q0 -7 -5 -12.5t-12 -5.5h-78q-7 0 -12.5 5.5t-5.5 12.5v536q0 7 5.5 12.5t12.5 5.5h271q110 0 171.5 -49.5t61.5 -141.5zM748 693q58 0 88.5 24.5t30.5 62.5
q0 42 -30 65.5t-89 23.5h-178v-176h178z" />
    <glyph glyph-name="macron" unicode="&#xaf;" 
d="M895 1400q13 0 21.5 -8t8.5 -22v-85q0 -13 -8.5 -21.5t-21.5 -8.5h-510q-13 0 -21.5 8.5t-8.5 21.5v85q0 14 8.5 22t21.5 8h510z" />
    <glyph glyph-name="degree" unicode="&#xb0;" 
d="M640 1410q133 0 222.5 -88t89.5 -222q0 -137 -89.5 -225.5t-222.5 -88.5t-222.5 88.5t-89.5 225.5q0 134 89.5 222t222.5 88zM640 1288q-83 0 -135 -52.5t-52 -135.5q0 -84 52 -137t135 -53q84 0 136 53t52 137q0 83 -52 135.5t-136 52.5z" />
    <glyph glyph-name="plusminus" unicode="&#xb1;" horiz-adv-x="1136" 
d="M941 735q13 0 21.5 -8.5t8.5 -21.5v-86q0 -13 -8.5 -21.5t-21.5 -8.5h-299v-300q0 -13 -8 -21.5t-22 -8.5h-86q-14 0 -22 8.5t-8 21.5v300h-300q-14 0 -22 8.5t-8 21.5v86q0 13 8 21.5t22 8.5h300v299q0 14 8 22t22 8h86q14 0 22 -8t8 -22v-299h299zM940 146q14 0 22 -8
t8 -22v-86q0 -14 -8 -22t-22 -8h-745q-13 0 -21.5 8t-8.5 22v86q0 14 8.5 22t21.5 8h745z" />
    <glyph glyph-name="uni00B2" unicode="&#xb2;" 
d="M1056 362q14 0 22 -8t8 -22v-92q0 -14 -8 -22t-22 -8h-841q-13 0 -21.5 8t-8.5 22v90q0 86 40 150.5t104.5 103t142.5 67.5t155.5 50.5t142 44t104.5 57t40 81.5q0 81 -64.5 119.5t-202.5 38.5q-294 0 -300 -177q0 -31 -31 -28l-109 12q-29 3 -29 32q0 158 118 238.5
t340 80.5q217 0 334 -82t117 -234q0 -63 -30 -113t-79 -81t-112 -58t-128 -44t-128 -39.5t-112 -45t-79 -58.5t-30 -83h667z" />
    <glyph glyph-name="uni00B3" unicode="&#xb3;" 
d="M886 703q59 -12 101.5 -28.5t79 -44t55 -69.5t18.5 -98q0 -77 -36 -132.5t-104.5 -87t-156.5 -45.5t-202 -14q-121 0 -207.5 14t-151.5 46.5t-97 89.5t-32 141q0 29 29 32l115 12q29 3 31 -28q1 -86 74.5 -118.5t230.5 -32.5q77 0 131 5t100.5 19t69.5 41.5t23 68.5
q0 90 -91.5 123.5t-308.5 33.5q-30 0 -30 30v68q0 31 31 31q202 0 288 36t86 111t-74 107t-216 32q-146 0 -219.5 -39.5t-74.5 -133.5q-2 -31 -31 -28l-115 11q-29 3 -29 32q0 165 121.5 238.5t352.5 73.5q217 0 337 -66.5t120 -202.5q0 -87 -60 -145t-158 -83z" />
    <glyph glyph-name="acute" unicode="&#xb4;" 
d="M753 1460q17 0 24 -9t0 -25l-120 -252q-11 -24 -34 -24h-96q-17 0 -24 9t0 25l120 252q11 24 34 24h96z" />
    <glyph glyph-name="uni00B5" unicode="&#xb5;" horiz-adv-x="1216" 
d="M1026 980q14 0 22 -8t8 -22v-920q0 -14 -8 -22t-22 -8h-112q-27 0 -30 30l-8 136h-20q-49 -80 -136.5 -134t-204.5 -54q-107 0 -185 42v-370q0 -14 -8 -22t-22 -8h-120q-14 0 -22 8t-8 22v1015h5v285q0 14 8.5 22t21.5 8h120q13 0 21.5 -8t8.5 -22v-555
q0 -127 63.5 -190.5t184.5 -63.5q68 0 127.5 28.5t93.5 67.5t53 73.5t19 52.5v587q0 14 8 22t22 8h120z" />
    <glyph glyph-name="paragraph" unicode="&#xb6;" 
d="M488 1400h246q14 0 22 -8t8 -22v-1340q0 -14 -8 -22t-22 -8h-114q-14 0 -22 8t-8 22v491h-102q-121 0 -199.5 27t-122 85.5t-60 135.5t-16.5 192t16.5 191.5t60 135t122 85.5t199.5 27zM1045 1400q13 0 21.5 -8t8.5 -22v-1340q0 -14 -8.5 -22t-21.5 -8h-115q-14 0 -22 8
t-8 22v1340q0 14 8 22t22 8h115z" />
    <glyph glyph-name="periodcentered" unicode="&#xb7;" horiz-adv-x="612" 
d="M306 457q-59 0 -100 41t-41 100t41 101t100 42t100 -42t41 -101t-41 -100t-100 -41z" />
    <glyph glyph-name="cedilla" unicode="&#xb8;" 
d="M642 -75q69 -6 117.5 -48t48.5 -109q0 -80 -48.5 -129.5t-118 -63t-148.5 -0.5q-18 3 -18 22v65q0 10 6 15.5t16 4.5q81 -12 128 9t47 66q0 42 -51 60.5t-122 -8.5q-11 -4 -17.5 -0.5t-6.5 14.5v64q0 11 10 24l86 89h146z" />
    <glyph glyph-name="uni00B9" unicode="&#xb9;" 
d="M1060 361q14 0 22 -8.5t8 -21.5v-91q0 -14 -8 -22t-22 -8h-840q-14 0 -22 8t-8 22v91q0 13 8 21.5t22 8.5h364v650q-137 -129 -318 -129q-30 0 -30 30v103q0 31 30 31q74 0 157.5 37.5t160.5 106.5h150q14 0 22 -8t8 -22v-799h296z" />
    <glyph glyph-name="ordmasculine" unicode="&#xba;" 
d="M639 682q-151 0 -257.5 106t-106.5 258t106.5 258t257.5 106t257.5 -106t106.5 -258t-106.5 -258t-257.5 -106zM639 814q97 0 165 67.5t68 164.5t-68 165t-165 68t-165 -67.5t-68 -165.5q0 -97 68 -164.5t165 -67.5z" />
    <glyph glyph-name="guillemotright" unicode="&#xbb;" horiz-adv-x="1246" 
d="M171 944q-10 16 -4 26t24 10h132q25 0 36 -20l250 -378q14 -20 0 -40l-250 -378q-11 -20 -36 -20h-132q-18 0 -24 10t4 26l252 382zM635 944q-10 16 -4 26t24 10h132q25 0 36 -20l250 -378q14 -20 0 -40l-250 -378q-11 -20 -36 -20h-132q-18 0 -24 10t4 26l252 382z" />
    <glyph glyph-name="onequarter" unicode="&#xbc;" 
d="M220 753q-13 0 -21.5 7.5t-8.5 18.5v79q0 11 8.5 18.5t21.5 7.5h364v561q-137 -111 -318 -111q-30 0 -30 26v89q0 27 30 27q158 0 318 124h150q30 0 30 -26v-690h296q13 0 21.5 -7.5t8.5 -18.5v-79q0 -11 -8.5 -18.5t-21.5 -7.5h-840zM1210 679q14 0 22 -8.5t8 -21.5v-73
q0 -14 -8 -22t-22 -8h-1140q-14 0 -22 8t-8 22v73q0 13 8 21.5t22 8.5h1140zM1114 55q30 0 30 -26v-80q0 -11 -8.5 -18.5t-21.5 -7.5h-139v-277q0 -26 -30 -26h-120q-30 0 -30 26v277h-631q-13 0 -21.5 7.5t-8.5 18.5v492q0 11 8.5 18.5t21.5 7.5h120q13 0 21.5 -7.5
t8.5 -18.5v-386h481v386q0 11 8.5 18.5t21.5 7.5h120q13 0 21.5 -7.5t8.5 -18.5v-386h139z" />
    <glyph glyph-name="onehalf" unicode="&#xbd;" 
d="M213 763q-30 0 -30 26v78q0 25 30 25h364v555q-137 -110 -318 -110q-30 0 -30 25v88q0 27 30 27q75 0 158 32t160 91h150q13 0 21.5 -7.5t8.5 -18.5v-682h296q30 0 30 -25v-78q0 -26 -30 -26h-840zM1210 679q14 0 22 -8.5t8 -21.5v-73q0 -14 -8 -22t-22 -8h-1140
q-14 0 -22 8t-8 22v73q0 13 8 21.5t22 8.5h1140zM1095 195q0 -61 -38.5 -107.5t-100 -74t-136 -49.5t-149 -40.5t-136 -40t-100 -55t-38.5 -78.5h667q13 0 21.5 -7.5t8.5 -18.5v-78q0 -26 -30 -26h-841q-30 0 -30 26v76q0 73 40 128.5t104.5 88.5t142.5 57.5t155.5 42.5
t142 37.5t104.5 49t40 69.5q0 69 -64.5 102t-202.5 33q-294 0 -300 -151q0 -27 -31 -24l-109 10q-29 3 -29 28q0 134 118 203t340 69q218 0 334.5 -70t116.5 -200z" />
    <glyph glyph-name="threequarters" unicode="&#xbe;" 
d="M883 1185q59 -11 101.5 -25t79 -37.5t55 -59t18.5 -83.5q0 -66 -36 -113t-104.5 -74t-156.5 -39t-202 -12q-247 0 -367.5 55t-120.5 193q0 25 29 28l115 10q29 3 31 -24q1 -73 74.5 -101t230.5 -28q77 0 131 4.5t100.5 16t69.5 35t23 59.5q0 77 -91.5 105.5t-308.5 28.5
q-30 0 -30 25v58q0 27 31 27q202 0 288 30.5t86 94.5t-74 91.5t-216 27.5q-146 0 -219.5 -33.5t-74.5 -114.5q-2 -26 -31 -24l-115 10q-29 2 -29 27q0 141 121.5 203.5t352.5 62.5q217 0 337 -57t120 -172q0 -74 -60.5 -124t-157.5 -71zM1210 679q14 0 22 -8.5t8 -21.5v-73
q0 -14 -8 -22t-22 -8h-1140q-14 0 -22 8t-8 22v73q0 13 8 21.5t22 8.5h1140zM945 467q13 0 21.5 -7.5t8.5 -18.5v-386h139q30 0 30 -26v-80q0 -11 -8.5 -18.5t-21.5 -7.5h-139v-277q0 -26 -30 -26h-120q-30 0 -30 26v277h-631q-13 0 -21.5 7.5t-8.5 18.5v492q0 11 8.5 18.5
t21.5 7.5h120q13 0 21.5 -7.5t8.5 -18.5v-386h481v386q0 11 8.5 18.5t21.5 7.5h120z" />
    <glyph glyph-name="questiondown" unicode="&#xbf;" horiz-adv-x="1245" 
d="M676 1066q59 0 100 -41t41 -100t-41 -101t-100 -42t-100 42t-41 101t41 100t100 41zM730 665q30 0 30 -32q0 -83 -14.5 -147.5t-39 -105t-56.5 -70t-67.5 -48.5t-70.5 -34.5t-67 -32.5t-57 -38.5t-39.5 -57t-14.5 -83.5q0 -104 68 -166.5t208 -62.5t218 59.5t80 172.5
q2 31 31 28l111 -12q30 -3 30 -32q0 -183 -122 -281t-337 -98q-219 0 -337.5 105.5t-118.5 285.5q0 86 23 146t60 93t81.5 57l88.5 47t81 53.5t60 87t23 136.5q0 30 30 30h118z" />
    <glyph glyph-name="Agrave" unicode="&#xc0;" horiz-adv-x="1370" 
d="M596 1534l-120 252q-7 16 0 25t24 9h96q23 0 34 -24l120 -252q7 -16 0 -25t-24 -9h-96q-23 0 -34 24zM1292 34q6 -15 -0.5 -24.5t-23.5 -9.5h-129q-25 0 -34 24l-99 269h-642l-99 -269q-9 -24 -34 -24h-129q-17 0 -23.5 9.5t-0.5 24.5l508 1342q9 24 36 24h126
q27 0 36 -24zM425 458h520l-260 708z" />
    <glyph glyph-name="Aacute" unicode="&#xc1;" horiz-adv-x="1370" 
d="M642 1510q-17 0 -24 9t0 25l120 252q11 24 34 24h96q17 0 24 -9t0 -25l-120 -252q-11 -24 -34 -24h-96zM1292 34q6 -15 -0.5 -24.5t-23.5 -9.5h-129q-25 0 -34 24l-99 269h-642l-99 -269q-9 -24 -34 -24h-129q-17 0 -23.5 9.5t-0.5 24.5l508 1342q9 24 36 24h126
q27 0 36 -24zM425 458h520l-260 708z" />
    <glyph glyph-name="Acircumflex" unicode="&#xc2;" horiz-adv-x="1370" 
d="M352 1549q-19 0 -24 11t7 25l227 255q14 16 36 16h174q24 0 36 -16l227 -255q12 -14 7.5 -25t-23.5 -11h-124q-20 0 -36 16l-174 172l-173 -172q-17 -16 -36 -16h-124zM1292 34q6 -15 -0.5 -24.5t-23.5 -9.5h-129q-25 0 -34 24l-99 269h-642l-99 -269q-9 -24 -34 -24
h-129q-17 0 -23.5 9.5t-0.5 24.5l508 1342q9 24 36 24h126q27 0 36 -24zM425 458h520l-260 708z" />
    <glyph glyph-name="Atilde" unicode="&#xc3;" horiz-adv-x="1370" 
d="M372 1669q-21 0 -18 24q10 80 59 123t128 43q50 0 94 -21.5t71 -48t62 -48t69 -21.5q64 0 88 61q6 17 22 17h52q9 0 15 -5.5t5 -14.5q-9 -82 -59 -126t-127 -44q-41 0 -77.5 14.5t-62.5 35l-50.5 40.5t-51.5 34.5t-54 14.5q-67 0 -91 -61q-6 -17 -22 -17h-52zM1292 34
q6 -15 -0.5 -24.5t-23.5 -9.5h-129q-25 0 -34 24l-99 269h-642l-99 -269q-9 -24 -34 -24h-129q-17 0 -23.5 9.5t-0.5 24.5l508 1342q9 24 36 24h126q27 0 36 -24zM425 458h520l-260 708z" />
    <glyph glyph-name="Adieresis" unicode="&#xc4;" horiz-adv-x="1370" 
d="M494 1641q-41 0 -70.5 29.5t-29.5 71.5q0 40 29.5 69t70.5 29t70.5 -29t29.5 -69q0 -42 -29.5 -71.5t-70.5 -29.5zM878 1641q-41 0 -70.5 29.5t-29.5 71.5q0 40 29.5 69t70.5 29t70.5 -29t29.5 -69q0 -42 -29.5 -71.5t-70.5 -29.5zM1292 34q6 -15 -0.5 -24.5t-23.5 -9.5
h-129q-25 0 -34 24l-99 269h-642l-99 -269q-9 -24 -34 -24h-129q-17 0 -23.5 9.5t-0.5 24.5l508 1342q9 24 36 24h126q27 0 36 -24zM425 458h520l-260 708z" />
    <glyph glyph-name="Aring" unicode="&#xc5;" horiz-adv-x="1370" 
d="M685 1519q-77 0 -130 53.5t-53 127.5t53 127.5t130 53.5q76 0 129 -53.5t53 -127.5t-53 -127.5t-129 -53.5zM685 1771q-31 0 -52 -20t-21 -51q0 -30 21 -50t52 -20q30 0 51 20t21 50t-21 50.5t-51 20.5zM1292 34q6 -15 -0.5 -24.5t-23.5 -9.5h-129q-25 0 -34 24l-99 269
h-642l-99 -269q-9 -24 -34 -24h-129q-17 0 -23.5 9.5t-0.5 24.5l508 1342q9 24 36 24h126q27 0 36 -24zM425 458h520l-260 708z" />
    <glyph glyph-name="AE" unicode="&#xc6;" 
d="M1183 170q13 0 21.5 -8t8.5 -22v-110q0 -14 -8.5 -22t-21.5 -8h-503q-14 0 -22 8t-8 22v180h-330l-69 -186q-9 -24 -34 -24h-121q-17 0 -23.5 9.5t-0.5 24.5l513 1342q9 24 35 24h561q13 0 21.5 -8t8.5 -22v-110q0 -14 -8.5 -22t-21.5 -8h-351v-408h308q14 0 22 -8t8 -22
v-110q0 -14 -8 -22t-22 -8h-308v-482h353zM380 373h270v728z" />
    <glyph glyph-name="Ccedilla" unicode="&#xc7;" horiz-adv-x="1441" 
d="M1236 292l80 -84q21 -21 -1 -42q-193 -185 -457 -192l-49 -49q69 -6 117.5 -48t48.5 -109q0 -80 -48.5 -129.5t-118 -63t-148.5 -0.5q-18 3 -18 22v65q0 10 6 15.5t16 4.5q81 -12 128 9t47 66q0 42 -51.5 60.5t-121.5 -8.5q-10 -4 -17 -0.5t-7 14.5v64q0 11 10 24l70 72
q-169 28 -304 128t-211.5 253t-76.5 330q0 199 93.5 364.5t256 261.5t358.5 96q270 0 477 -191q22 -21 1 -42l-80 -85q-19 -19 -42 0q-160 136 -356 136q-142 0 -260.5 -70t-187.5 -194t-69 -276q0 -150 69 -273.5t187.5 -193.5t260.5 -70q198 0 356 136q22 19 42 -1z" />
    <glyph glyph-name="Egrave" unicode="&#xc8;" horiz-adv-x="1220" 
d="M438 1820h96q23 0 34 -24l120 -252q7 -16 0 -25t-24 -9h-96q-23 0 -34 24l-120 252q-7 16 0 25t24 9zM1055 170q13 0 21.5 -8t8.5 -22v-110q0 -14 -8.5 -22t-21.5 -8h-855q-14 0 -22 8t-8 22v1340q0 14 8 22t22 8h853q13 0 21.5 -8t8.5 -22v-110q0 -14 -8.5 -22t-21.5 -8
h-696v-415h643q14 0 22 -8.5t8 -21.5v-110q0 -13 -8 -21.5t-22 -8.5h-643v-475h698z" />
    <glyph glyph-name="Eacute" unicode="&#xc9;" horiz-adv-x="1220" 
d="M806 1820q17 0 24 -9t0 -25l-120 -252q-11 -24 -34 -24h-96q-17 0 -24 9t0 25l120 252q11 24 34 24h96zM1055 170q13 0 21.5 -8t8.5 -22v-110q0 -14 -8.5 -22t-21.5 -8h-855q-14 0 -22 8t-8 22v1340q0 14 8 22t22 8h853q13 0 21.5 -8t8.5 -22v-110q0 -14 -8.5 -22
t-21.5 -8h-696v-415h643q14 0 22 -8.5t8 -21.5v-110q0 -13 -8 -21.5t-22 -8.5h-643v-475h698z" />
    <glyph glyph-name="Ecircumflex" unicode="&#xca;" horiz-adv-x="1220" 
d="M710 1856q24 0 36 -16l227 -255q12 -14 7.5 -25t-23.5 -11h-124q-20 0 -36 16l-174 172l-173 -172q-17 -16 -36 -16h-124q-19 0 -24 11t7 25l227 255q14 16 36 16h174zM1055 170q13 0 21.5 -8t8.5 -22v-110q0 -14 -8.5 -22t-21.5 -8h-855q-14 0 -22 8t-8 22v1340
q0 14 8 22t22 8h853q13 0 21.5 -8t8.5 -22v-110q0 -14 -8.5 -22t-21.5 -8h-696v-415h643q14 0 22 -8.5t8 -21.5v-110q0 -13 -8 -21.5t-22 -8.5h-643v-475h698z" />
    <glyph glyph-name="Edieresis" unicode="&#xcb;" horiz-adv-x="1220" 
d="M432 1641q-41 0 -70.5 29.5t-29.5 71.5q0 40 29.5 69t70.5 29t70.5 -29t29.5 -69q0 -42 -29.5 -71.5t-70.5 -29.5zM816 1641q-41 0 -70.5 29.5t-29.5 71.5q0 40 29.5 69t70.5 29t70.5 -29t29.5 -69q0 -42 -29.5 -71.5t-70.5 -29.5zM1055 170q13 0 21.5 -8t8.5 -22v-110
q0 -14 -8.5 -22t-21.5 -8h-855q-14 0 -22 8t-8 22v1340q0 14 8 22t22 8h853q13 0 21.5 -8t8.5 -22v-110q0 -14 -8.5 -22t-21.5 -8h-696v-415h643q14 0 22 -8.5t8 -21.5v-110q0 -13 -8 -21.5t-22 -8.5h-643v-475h698z" />
    <glyph glyph-name="Igrave" unicode="&#xcc;" horiz-adv-x="1285" 
d="M458 1820h96q23 0 34 -24l120 -252q7 -16 0 -25t-24 -9h-96q-23 0 -34 24l-120 252q-7 16 0 25t24 9zM1110 1230h-374v-1060h374q14 0 22 -8t8 -22v-110q0 -14 -8 -22t-22 -8h-935q-13 0 -21.5 8t-8.5 22v110q0 14 8.5 22t21.5 8h374v1060h-374q-13 0 -21.5 8t-8.5 22
v110q0 14 8.5 22t21.5 8h935q14 0 22 -8t8 -22v-110q0 -14 -8 -22t-22 -8z" />
    <glyph glyph-name="Iacute" unicode="&#xcd;" horiz-adv-x="1285" 
d="M826 1820q17 0 24 -9t0 -25l-120 -252q-11 -24 -34 -24h-96q-17 0 -24 9t0 25l120 252q11 24 34 24h96zM1110 1230h-374v-1060h374q14 0 22 -8t8 -22v-110q0 -14 -8 -22t-22 -8h-935q-13 0 -21.5 8t-8.5 22v110q0 14 8.5 22t21.5 8h374v1060h-374q-13 0 -21.5 8t-8.5 22
v110q0 14 8.5 22t21.5 8h935q14 0 22 -8t8 -22v-110q0 -14 -8 -22t-22 -8z" />
    <glyph glyph-name="Icircumflex" unicode="&#xce;" horiz-adv-x="1285" 
d="M730 1856q24 0 36 -16l227 -255q12 -14 7.5 -25t-23.5 -11h-124q-20 0 -36 16l-174 172l-173 -172q-17 -16 -36 -16h-124q-19 0 -24 11t7 25l227 255q14 16 36 16h174zM1110 1230h-374v-1060h374q14 0 22 -8t8 -22v-110q0 -14 -8 -22t-22 -8h-935q-13 0 -21.5 8t-8.5 22
v110q0 14 8.5 22t21.5 8h374v1060h-374q-13 0 -21.5 8t-8.5 22v110q0 14 8.5 22t21.5 8h935q14 0 22 -8t8 -22v-110q0 -14 -8 -22t-22 -8z" />
    <glyph glyph-name="Idieresis" unicode="&#xcf;" horiz-adv-x="1285" 
d="M452 1641q-41 0 -70.5 29.5t-29.5 71.5q0 40 29.5 69t70.5 29t70.5 -29t29.5 -69q0 -42 -29.5 -71.5t-70.5 -29.5zM836 1641q-41 0 -70.5 29.5t-29.5 71.5q0 40 29.5 69t70.5 29t70.5 -29t29.5 -69q0 -42 -29.5 -71.5t-70.5 -29.5zM1110 1230h-374v-1060h374q14 0 22 -8
t8 -22v-110q0 -14 -8 -22t-22 -8h-935q-13 0 -21.5 8t-8.5 22v110q0 14 8.5 22t21.5 8h374v1060h-374q-13 0 -21.5 8t-8.5 22v110q0 14 8.5 22t21.5 8h935q14 0 22 -8t8 -22v-110q0 -14 -8 -22t-22 -8z" />
    <glyph glyph-name="Eth" unicode="&#xd0;" 
d="M516 1400q178 0 318.5 -53.5t230.5 -148.5t137 -221.5t47 -276.5q0 -149 -47 -275.5t-137 -222t-231 -149t-318 -53.5h-335q-13 0 -21.5 8t-8.5 22v595h-27q-14 0 -22 8.5t-8 21.5v85q0 14 8 22t22 8h27v600q0 14 8.5 22t21.5 8h335zM516 170q268 0 405.5 139t137.5 391
t-137.5 391t-405.5 139h-178v-460h296q14 0 22 -8t8 -22v-85q0 -13 -8 -21.5t-22 -8.5h-296v-455h178z" />
    <glyph glyph-name="Ntilde" unicode="&#xd1;" horiz-adv-x="1396" 
d="M385 1669q-21 0 -18 24q10 80 59 123t128 43q50 0 94 -21.5t71 -48t62 -48t69 -21.5q64 0 88 61q6 17 22 17h52q9 0 15 -5.5t5 -14.5q-9 -82 -59 -126t-127 -44q-41 0 -77.5 14.5t-62.5 35l-50.5 40.5t-51.5 34.5t-54 14.5q-67 0 -91 -61q-6 -17 -22 -17h-52zM1196 1400
q14 0 22 -8t8 -22v-1340q0 -27 -25 -30h-164q-25 0 -36 20l-644 1104v-1094q0 -14 -8.5 -22t-21.5 -8h-127q-14 0 -22 8t-8 22v1340q0 27 26 30h163q25 0 36 -20l644 -1103v1093q0 14 8.5 22t21.5 8h127z" />
    <glyph glyph-name="Ograve" unicode="&#xd2;" horiz-adv-x="1693" 
d="M661 1820h96q23 0 34 -24l120 -252q7 -16 0 -25t-24 -9h-96q-23 0 -34 24l-120 252q-7 16 0 25t24 9zM847 -26q-195 0 -360 96t-261 261.5t-96 362.5q0 148 57 282t153 230.5t228.5 153t278.5 56.5q117 0 226 -36t197 -102.5t154.5 -155t102.5 -199t36 -229.5
q0 -197 -96 -362.5t-261 -261.5t-359 -96zM847 151q146 0 268.5 72t193 197t70.5 274q0 150 -70.5 275.5t-193 197.5t-268.5 72q-110 0 -208.5 -42.5t-170 -115t-113 -174t-41.5 -213.5q0 -227 155 -385t378 -158z" />
    <glyph glyph-name="Oacute" unicode="&#xd3;" horiz-adv-x="1693" 
d="M1029 1820q17 0 24 -9t0 -25l-120 -252q-11 -24 -34 -24h-96q-17 0 -24 9t0 25l120 252q11 24 34 24h96zM847 -26q-195 0 -360 96t-261 261.5t-96 362.5q0 148 57 282t153 230.5t228.5 153t278.5 56.5q117 0 226 -36t197 -102.5t154.5 -155t102.5 -199t36 -229.5
q0 -197 -96 -362.5t-261 -261.5t-359 -96zM847 151q146 0 268.5 72t193 197t70.5 274q0 150 -70.5 275.5t-193 197.5t-268.5 72q-110 0 -208.5 -42.5t-170 -115t-113 -174t-41.5 -213.5q0 -227 155 -385t378 -158z" />
    <glyph glyph-name="Ocircumflex" unicode="&#xd4;" horiz-adv-x="1693" 
d="M933 1856q24 0 36 -16l227 -255q12 -14 7.5 -25t-23.5 -11h-124q-20 0 -36 16l-174 172l-173 -172q-17 -16 -36 -16h-124q-19 0 -24 11t7 25l227 255q14 16 36 16h174zM847 -26q-195 0 -360 96t-261 261.5t-96 362.5q0 148 57 282t153 230.5t228.5 153t278.5 56.5
q117 0 226 -36t197 -102.5t154.5 -155t102.5 -199t36 -229.5q0 -197 -96 -362.5t-261 -261.5t-359 -96zM847 151q146 0 268.5 72t193 197t70.5 274q0 150 -70.5 275.5t-193 197.5t-268.5 72q-110 0 -208.5 -42.5t-170 -115t-113 -174t-41.5 -213.5q0 -227 155 -385t378 -158
z" />
    <glyph glyph-name="Otilde" unicode="&#xd5;" horiz-adv-x="1693" 
d="M702 1859q50 0 94 -21.5t71 -48t62 -48t69 -21.5q64 0 88 61q6 17 22 17h52q9 0 15 -5.5t5 -14.5q-9 -82 -59 -126t-127 -44q-41 0 -77.5 14.5t-62.5 35l-50.5 40.5t-51.5 34.5t-54 14.5q-67 0 -91 -61q-6 -17 -22 -17h-52q-21 0 -18 24q10 80 59 123t128 43zM847 -26
q-195 0 -360 96t-261 261.5t-96 362.5q0 148 57 282t153 230.5t228.5 153t278.5 56.5q117 0 226 -36t197 -102.5t154.5 -155t102.5 -199t36 -229.5q0 -197 -96 -362.5t-261 -261.5t-359 -96zM847 151q146 0 268.5 72t193 197t70.5 274q0 150 -70.5 275.5t-193 197.5
t-268.5 72q-110 0 -208.5 -42.5t-170 -115t-113 -174t-41.5 -213.5q0 -227 155 -385t378 -158z" />
    <glyph glyph-name="Odieresis" unicode="&#xd6;" horiz-adv-x="1693" 
d="M655 1641q-41 0 -70.5 29.5t-29.5 71.5q0 40 29.5 69t70.5 29t70.5 -29t29.5 -69q0 -42 -29.5 -71.5t-70.5 -29.5zM1039 1641q-41 0 -70.5 29.5t-29.5 71.5q0 40 29.5 69t70.5 29t70.5 -29t29.5 -69q0 -42 -29.5 -71.5t-70.5 -29.5zM847 -26q-195 0 -360 96t-261 261.5
t-96 362.5q0 148 57 282t153 230.5t228.5 153t278.5 56.5q117 0 226 -36t197 -102.5t154.5 -155t102.5 -199t36 -229.5q0 -197 -96 -362.5t-261 -261.5t-359 -96zM847 151q146 0 268.5 72t193 197t70.5 274q0 150 -70.5 275.5t-193 197.5t-268.5 72q-110 0 -208.5 -42.5
t-170 -115t-113 -174t-41.5 -213.5q0 -227 155 -385t378 -158z" />
    <glyph glyph-name="multiply" unicode="&#xd7;" 
d="M900 417q22 -20 0 -42l-60 -61q-22 -22 -43 0l-211 211l-212 -212q-22 -20 -43 0l-60 61q-21 22 0 43l212 212l-212 212q-22 22 0 42l60 61q21 22 43 0l212 -212l211 211q21 21 43 0l60 -60q22 -21 0 -43l-211 -211z" />
    <glyph glyph-name="Oslash" unicode="&#xd8;" horiz-adv-x="1693" 
d="M1216 1313q159 -96 253 -260t94 -359q0 -197 -96 -362.5t-261 -261.5t-359 -96q-116 0 -223 35l-40 -87q-8 -22 -34 -22h-115q-17 0 -23 10t1 26l64 141q-159 95 -253 259t-94 358q0 148 57 282t153 230.5t228.5 153t278.5 56.5q115 0 222 -35l39 87q8 22 34 22h116
q17 0 23 -10t-1 -26zM314 694q0 -141 63.5 -260.5t173.5 -193.5l444 978q-71 21 -148 21q-110 0 -208.5 -42.5t-170 -115t-113 -174t-41.5 -213.5zM847 151q146 0 268.5 72t193 197t70.5 274q0 142 -64 262t-173 194l-444 -978q70 -21 149 -21z" />
    <glyph glyph-name="Ugrave" unicode="&#xd9;" horiz-adv-x="1403" 
d="M516 1820h96q23 0 34 -24l120 -252q7 -16 0 -25t-24 -9h-96q-23 0 -34 24l-120 252q-7 16 0 25t24 9zM1238 1400q14 0 22 -8t8 -22v-804q0 -293 -149 -444t-418 -151q-268 0 -417 151t-149 444v804q0 14 8.5 22t21.5 8h127q14 0 22 -8t8 -22v-804q0 -207 101 -312.5
t278 -105.5q178 0 279 105.5t101 312.5v804q0 14 8.5 22t21.5 8h127z" />
    <glyph glyph-name="Uacute" unicode="&#xda;" horiz-adv-x="1403" 
d="M884 1820q17 0 24 -9t0 -25l-120 -252q-11 -24 -34 -24h-96q-17 0 -24 9t0 25l120 252q11 24 34 24h96zM1238 1400q14 0 22 -8t8 -22v-804q0 -293 -149 -444t-418 -151q-268 0 -417 151t-149 444v804q0 14 8.5 22t21.5 8h127q14 0 22 -8t8 -22v-804q0 -207 101 -312.5
t278 -105.5q178 0 279 105.5t101 312.5v804q0 14 8.5 22t21.5 8h127z" />
    <glyph glyph-name="Ucircumflex" unicode="&#xdb;" horiz-adv-x="1403" 
d="M788 1856q24 0 36 -16l227 -255q12 -14 7.5 -25t-23.5 -11h-124q-20 0 -36 16l-174 172l-173 -172q-17 -16 -36 -16h-124q-19 0 -24 11t7 25l227 255q14 16 36 16h174zM1238 1400q14 0 22 -8t8 -22v-804q0 -293 -149 -444t-418 -151q-268 0 -417 151t-149 444v804
q0 14 8.5 22t21.5 8h127q14 0 22 -8t8 -22v-804q0 -207 101 -312.5t278 -105.5q178 0 279 105.5t101 312.5v804q0 14 8.5 22t21.5 8h127z" />
    <glyph glyph-name="Udieresis" unicode="&#xdc;" horiz-adv-x="1403" 
d="M510 1641q-41 0 -70.5 29.5t-29.5 71.5q0 40 29.5 69t70.5 29t70.5 -29t29.5 -69q0 -42 -29.5 -71.5t-70.5 -29.5zM894 1641q-41 0 -70.5 29.5t-29.5 71.5q0 40 29.5 69t70.5 29t70.5 -29t29.5 -69q0 -42 -29.5 -71.5t-70.5 -29.5zM1238 1400q14 0 22 -8t8 -22v-804
q0 -293 -149 -444t-418 -151q-268 0 -417 151t-149 444v804q0 14 8.5 22t21.5 8h127q14 0 22 -8t8 -22v-804q0 -207 101 -312.5t278 -105.5q178 0 279 105.5t101 312.5v804q0 14 8.5 22t21.5 8h127z" />
    <glyph glyph-name="Yacute" unicode="&#xdd;" horiz-adv-x="1380" 
d="M647 1510q-17 0 -24 9t0 25l120 252q11 24 34 24h96q17 0 24 -9t0 -25l-120 -252q-11 -24 -34 -24h-96zM1289 1400q18 0 24 -10t-4 -26l-525 -821v-513q0 -14 -8 -22t-22 -8h-127q-13 0 -21.5 8t-8.5 22v513l-526 821q-10 16 -4 26t24 10h147q23 0 36 -20l416 -651
l416 651q13 20 36 20h147z" />
    <glyph glyph-name="Thorn" unicode="&#xde;" 
d="M641 1140q228 0 351 -119.5t123 -320.5q0 -200 -123 -320t-351 -120h-289v-230q0 -14 -8 -22t-22 -8h-127q-13 0 -21.5 8t-8.5 22v1340q0 14 8.5 22t21.5 8h127q14 0 22 -8t8 -22v-230h289zM626 430q308 0 308 270t-308 270h-274v-540h274z" />
    <glyph glyph-name="germandbls" unicode="&#xdf;" horiz-adv-x="1225" 
d="M806 751q151 -28 235 -117t84 -234q0 -220 -135 -310t-433 -90h-114q-13 0 -21.5 8t-8.5 22v89q0 13 8.5 21.5t21.5 8.5h114q84 0 143.5 6.5t110 23t80 45t45.5 73.5t16 108q0 133 -101.5 194t-298.5 61h-109q-13 0 -21.5 8t-8.5 22v88q0 14 8.5 22t21.5 8h109
q161 0 240.5 57t79.5 177q0 99 -68.5 149.5t-216.5 50.5q-152 0 -212 -56.5t-60 -167.5v-988q0 -14 -8.5 -22t-21.5 -8h-120q-13 0 -21.5 8t-8.5 22v988q0 184 112 283t340 99q223 0 340.5 -91.5t117.5 -258.5q0 -239 -239 -299z" />
    <glyph glyph-name="agrave" unicode="&#xe0;" horiz-adv-x="1237" 
d="M525 1114l-120 252q-7 16 0 25t24 9h96q23 0 34 -24l120 -252q7 -16 0 -25t-24 -9h-96q-23 0 -34 24zM1102 149q19 -3 27 -11t8 -25v-86q0 -34 -52 -35q-200 -7 -200 161h-4q-83 -88 -201.5 -132.5t-230.5 -44.5q-163 0 -246 74.5t-83 203.5q0 126 79.5 198.5t243.5 97.5
l277 42q64 9 94 19t37 26q-1 112 -61 161t-178 49q-240 0 -262 -152q-3 -23 -29 -23h-116q-31 0 -28 30q31 300 436 300q210 0 311.5 -94t101.5 -269v-409q0 -69 76 -81zM301 273q0 -66 44 -103t136 -37q224 0 370 145v226q-6 -14 -30.5 -22.5t-79.5 -17.5l-257 -40
q-101 -16 -142 -53t-41 -98z" />
    <glyph glyph-name="aacute" unicode="&#xe1;" horiz-adv-x="1237" 
d="M571 1090q-17 0 -24 9t0 25l120 252q11 24 34 24h96q17 0 24 -9t0 -25l-120 -252q-11 -24 -34 -24h-96zM1102 149q19 -3 27 -11t8 -25v-86q0 -34 -52 -35q-200 -7 -200 161h-4q-83 -88 -201.5 -132.5t-230.5 -44.5q-163 0 -246 74.5t-83 203.5q0 126 79.5 198.5
t243.5 97.5l277 42q64 9 94 19t37 26q-1 112 -61 161t-178 49q-240 0 -262 -152q-3 -23 -29 -23h-116q-31 0 -28 30q31 300 436 300q210 0 311.5 -94t101.5 -269v-409q0 -69 76 -81zM301 273q0 -66 44 -103t136 -37q224 0 370 145v226q-6 -14 -30.5 -22.5t-79.5 -17.5
l-257 -40q-101 -16 -142 -53t-41 -98z" />
    <glyph glyph-name="acircumflex" unicode="&#xe2;" horiz-adv-x="1237" 
d="M281 1129q-19 0 -24 11t7 25l227 255q14 16 36 16h174q24 0 36 -16l227 -255q12 -14 7.5 -25t-23.5 -11h-124q-20 0 -36 16l-174 172l-173 -172q-17 -16 -36 -16h-124zM1102 149q19 -3 27 -11t8 -25v-86q0 -34 -52 -35q-200 -7 -200 161h-4q-83 -88 -201.5 -132.5
t-230.5 -44.5q-163 0 -246 74.5t-83 203.5q0 126 79.5 198.5t243.5 97.5l277 42q64 9 94 19t37 26q-1 112 -61 161t-178 49q-240 0 -262 -152q-3 -23 -29 -23h-116q-31 0 -28 30q31 300 436 300q210 0 311.5 -94t101.5 -269v-409q0 -69 76 -81zM301 273q0 -66 44 -103
t136 -37q224 0 370 145v226q-6 -14 -30.5 -22.5t-79.5 -17.5l-257 -40q-101 -16 -142 -53t-41 -98z" />
    <glyph glyph-name="atilde" unicode="&#xe3;" horiz-adv-x="1237" 
d="M301 1249q-21 0 -18 24q10 80 59 123t128 43q50 0 94 -21.5t71 -48t62 -48t69 -21.5q64 0 88 61q6 17 22 17h52q9 0 15 -5.5t5 -14.5q-9 -82 -59 -126t-127 -44q-41 0 -77.5 14.5t-62.5 35l-50.5 40.5t-51.5 34.5t-54 14.5q-67 0 -91 -61q-6 -17 -22 -17h-52zM1102 149
q19 -3 27 -11t8 -25v-86q0 -34 -52 -35q-200 -7 -200 161h-4q-83 -88 -201.5 -132.5t-230.5 -44.5q-163 0 -246 74.5t-83 203.5q0 126 79.5 198.5t243.5 97.5l277 42q64 9 94 19t37 26q-1 112 -61 161t-178 49q-240 0 -262 -152q-3 -23 -29 -23h-116q-31 0 -28 30
q31 300 436 300q210 0 311.5 -94t101.5 -269v-409q0 -69 76 -81zM301 273q0 -66 44 -103t136 -37q224 0 370 145v226q-6 -14 -30.5 -22.5t-79.5 -17.5l-257 -40q-101 -16 -142 -53t-41 -98z" />
    <glyph glyph-name="adieresis" unicode="&#xe4;" horiz-adv-x="1237" 
d="M423 1221q-41 0 -70.5 29.5t-29.5 71.5q0 40 29.5 69t70.5 29t70.5 -29t29.5 -69q0 -42 -29.5 -71.5t-70.5 -29.5zM807 1221q-41 0 -70.5 29.5t-29.5 71.5q0 40 29.5 69t70.5 29t70.5 -29t29.5 -69q0 -42 -29.5 -71.5t-70.5 -29.5zM1102 149q19 -3 27 -11t8 -25v-86
q0 -34 -52 -35q-200 -7 -200 161h-4q-83 -88 -201.5 -132.5t-230.5 -44.5q-163 0 -246 74.5t-83 203.5q0 126 79.5 198.5t243.5 97.5l277 42q64 9 94 19t37 26q-1 112 -61 161t-178 49q-240 0 -262 -152q-3 -23 -29 -23h-116q-31 0 -28 30q31 300 436 300q210 0 311.5 -94
t101.5 -269v-409q0 -69 76 -81zM301 273q0 -66 44 -103t136 -37q224 0 370 145v226q-6 -14 -30.5 -22.5t-79.5 -17.5l-257 -40q-101 -16 -142 -53t-41 -98z" />
    <glyph glyph-name="aring" unicode="&#xe5;" horiz-adv-x="1237" 
d="M614 1099q-77 0 -130 53.5t-53 127.5t53 127.5t130 53.5q76 0 129 -53.5t53 -127.5t-53 -127.5t-129 -53.5zM614 1351q-31 0 -52 -20t-21 -51q0 -30 21 -50t52 -20q30 0 51 20t21 50t-21 50.5t-51 20.5zM1102 149q19 -3 27 -11t8 -25v-86q0 -34 -52 -35q-200 -7 -200 161
h-4q-83 -88 -201.5 -132.5t-230.5 -44.5q-163 0 -246 74.5t-83 203.5q0 126 79.5 198.5t243.5 97.5l277 42q64 9 94 19t37 26q-1 112 -61 161t-178 49q-240 0 -262 -152q-3 -23 -29 -23h-116q-31 0 -28 30q31 300 436 300q210 0 311.5 -94t101.5 -269v-409q0 -69 76 -81z
M301 273q0 -66 44 -103t136 -37q224 0 370 145v226q-6 -14 -30.5 -22.5t-79.5 -17.5l-257 -40q-101 -16 -142 -53t-41 -98z" />
    <glyph glyph-name="ae" unicode="&#xe6;" horiz-adv-x="1936" 
d="M1343 1002q141 0 249.5 -68t163.5 -177t55 -239q0 -58 -11.5 -81.5t-49.5 -23.5h-725q17 -129 113 -208t241 -79q144 0 258 93q25 20 43 3l52 -52q23 -24 1 -46q-152 -150 -373 -150q-138 0 -247 57t-177 157q-222 -212 -487 -212q-163 0 -246 74.5t-83 203.5
q0 126 79.5 198.5t243.5 97.5l275 42q67 10 96 20t36 27q-2 112 -61 160t-177 48q-240 0 -262 -152q-3 -23 -29 -23h-116q-31 0 -28 30q31 300 436 300q271 0 365 -159q67 76 160.5 117.5t204.5 41.5zM1343 846q-127 0 -214 -81.5t-104 -213.5h628q-9 130 -94.5 212.5
t-215.5 82.5zM481 133q110 0 208 37.5t189 136.5q-29 85 -29 181v17q-7 -15 -30.5 -23.5t-78.5 -17.5l-256 -40q-101 -16 -142 -53t-41 -98q0 -66 44 -103t136 -37z" />
    <glyph glyph-name="ccedilla" unicode="&#xe7;" horiz-adv-x="1176" 
d="M1045 230q26 -16 9 -40q-64 -96 -166 -153t-225 -62l-50 -50q69 -6 117.5 -48t48.5 -109q0 -80 -48.5 -129.5t-118 -63t-148.5 -0.5q-18 3 -18 22v65q0 10 6 15.5t16 4.5q81 -12 128 9t47 66q0 42 -51.5 60.5t-121.5 -8.5q-10 -4 -17 -0.5t-7 14.5v64q0 11 10 24l71 74
q-179 35 -290.5 174t-111.5 329q0 220 145.5 367t366.5 147q132 0 241 -57.5t176 -157.5q17 -25 -9 -41l-89 -52q-23 -14 -40 7q-102 134 -276 134q-148 0 -243.5 -96.5t-95.5 -250.5q0 -153 95.5 -249.5t243.5 -96.5q175 0 276 133q16 22 40 7z" />
    <glyph glyph-name="egrave" unicode="&#xe8;" horiz-adv-x="1212" 
d="M517 1114l-120 252q-7 16 0 25t24 9h96q23 0 34 -24l120 -252q7 -16 0 -25t-24 -9h-96q-23 0 -34 24zM619 1002q141 0 249.5 -68t163.5 -177t55 -239q0 -58 -11.5 -81.5t-49.5 -23.5h-725q17 -129 113 -208t241 -79q144 0 258 93q25 20 43 3l52 -52q23 -24 1 -46
q-152 -150 -373 -150q-227 0 -369 147t-142 367q0 143 62 260t175.5 185.5t256.5 68.5zM619 846q-127 0 -214 -81.5t-104 -213.5h628q-9 130 -94.5 212.5t-215.5 82.5z" />
    <glyph glyph-name="eacute" unicode="&#xe9;" horiz-adv-x="1212" 
d="M563 1090q-17 0 -24 9t0 25l120 252q11 24 34 24h96q17 0 24 -9t0 -25l-120 -252q-11 -24 -34 -24h-96zM619 1002q141 0 249.5 -68t163.5 -177t55 -239q0 -58 -11.5 -81.5t-49.5 -23.5h-725q17 -129 113 -208t241 -79q144 0 258 93q25 20 43 3l52 -52q23 -24 1 -46
q-152 -150 -373 -150q-227 0 -369 147t-142 367q0 143 62 260t175.5 185.5t256.5 68.5zM619 846q-127 0 -214 -81.5t-104 -213.5h628q-9 130 -94.5 212.5t-215.5 82.5z" />
    <glyph glyph-name="ecircumflex" unicode="&#xea;" horiz-adv-x="1212" 
d="M273 1129q-19 0 -24 11t7 25l227 255q14 16 36 16h174q24 0 36 -16l227 -255q12 -14 7.5 -25t-23.5 -11h-124q-20 0 -36 16l-174 172l-173 -172q-17 -16 -36 -16h-124zM619 1002q141 0 249.5 -68t163.5 -177t55 -239q0 -58 -11.5 -81.5t-49.5 -23.5h-725
q17 -129 113 -208t241 -79q144 0 258 93q25 20 43 3l52 -52q23 -24 1 -46q-152 -150 -373 -150q-227 0 -369 147t-142 367q0 143 62 260t175.5 185.5t256.5 68.5zM619 846q-127 0 -214 -81.5t-104 -213.5h628q-9 130 -94.5 212.5t-215.5 82.5z" />
    <glyph glyph-name="edieresis" unicode="&#xeb;" horiz-adv-x="1212" 
d="M415 1221q-41 0 -70.5 29.5t-29.5 71.5q0 40 29.5 69t70.5 29t70.5 -29t29.5 -69q0 -42 -29.5 -71.5t-70.5 -29.5zM799 1221q-41 0 -70.5 29.5t-29.5 71.5q0 40 29.5 69t70.5 29t70.5 -29t29.5 -69q0 -42 -29.5 -71.5t-70.5 -29.5zM619 1002q141 0 249.5 -68t163.5 -177
t55 -239q0 -58 -11.5 -81.5t-49.5 -23.5h-725q17 -129 113 -208t241 -79q144 0 258 93q25 20 43 3l52 -52q23 -24 1 -46q-152 -150 -373 -150q-227 0 -369 147t-142 367q0 143 62 260t175.5 185.5t256.5 68.5zM619 846q-127 0 -214 -81.5t-104 -213.5h628
q-9 130 -94.5 212.5t-215.5 82.5z" />
    <glyph glyph-name="igrave" unicode="&#xec;" horiz-adv-x="1155" 
d="M489 1114l-120 252q-7 16 0 25t24 9h96q23 0 34 -24l120 -252q7 -16 0 -25t-24 -9h-96q-23 0 -34 24zM1010 156q14 0 22 -8t8 -22v-96q0 -14 -8 -22t-22 -8h-855q-13 0 -21.5 8t-8.5 22v96q0 14 8.5 22t21.5 8h364v669h-314q-13 0 -21.5 8.5t-8.5 21.5v95q0 14 8.5 22
t21.5 8h464q13 0 21.5 -8t8.5 -22v-794h311z" />
    <glyph glyph-name="iacute" unicode="&#xed;" horiz-adv-x="1155" 
d="M535 1090q-17 0 -24 9t0 25l120 252q11 24 34 24h96q17 0 24 -9t0 -25l-120 -252q-11 -24 -34 -24h-96zM1010 156q14 0 22 -8t8 -22v-96q0 -14 -8 -22t-22 -8h-855q-13 0 -21.5 8t-8.5 22v96q0 14 8.5 22t21.5 8h364v669h-314q-13 0 -21.5 8.5t-8.5 21.5v95q0 14 8.5 22
t21.5 8h464q13 0 21.5 -8t8.5 -22v-794h311z" />
    <glyph glyph-name="icircumflex" unicode="&#xee;" horiz-adv-x="1155" 
d="M245 1129q-19 0 -24 11t7 25l227 255q14 16 36 16h174q24 0 36 -16l227 -255q12 -14 7.5 -25t-23.5 -11h-124q-20 0 -36 16l-174 172l-173 -172q-17 -16 -36 -16h-124zM1010 156q14 0 22 -8t8 -22v-96q0 -14 -8 -22t-22 -8h-855q-13 0 -21.5 8t-8.5 22v96q0 14 8.5 22
t21.5 8h364v669h-314q-13 0 -21.5 8.5t-8.5 21.5v95q0 14 8.5 22t21.5 8h464q13 0 21.5 -8t8.5 -22v-794h311z" />
    <glyph glyph-name="idieresis" unicode="&#xef;" horiz-adv-x="1155" 
d="M387 1221q-41 0 -70.5 29.5t-29.5 71.5q0 40 29.5 69t70.5 29t70.5 -29t29.5 -69q0 -42 -29.5 -71.5t-70.5 -29.5zM771 1221q-41 0 -70.5 29.5t-29.5 71.5q0 40 29.5 69t70.5 29t70.5 -29t29.5 -69q0 -42 -29.5 -71.5t-70.5 -29.5zM1010 156q14 0 22 -8t8 -22v-96
q0 -14 -8 -22t-22 -8h-855q-13 0 -21.5 8t-8.5 22v96q0 14 8.5 22t21.5 8h364v669h-314q-13 0 -21.5 8.5t-8.5 21.5v95q0 14 8.5 22t21.5 8h464q13 0 21.5 -8t8.5 -22v-794h311z" />
    <glyph glyph-name="eth" unicode="&#xf0;" 
d="M1158 1269q15 2 23.5 -5.5t8.5 -22.5v-76q0 -29 -28 -32l-52 -7v-1096q0 -14 -8 -22t-22 -8h-109q-27 0 -30 30l-8 105q-126 -161 -343 -161q-208 0 -336.5 146t-128.5 368q0 224 126.5 369t338.5 145q120 0 201 -50t122 -131h17v280l-165 -22q-15 -2 -23.5 5.5
t-8.5 22.5v76q0 27 28 32l169 23v132q0 14 8 22t22 8h120q14 0 22 -8t8 -22v-108zM622 141q144 0 230.5 97t86.5 252q0 156 -86 251t-231 95q-149 0 -235.5 -95t-86.5 -251t86.5 -252.5t235.5 -96.5z" />
    <glyph glyph-name="ntilde" unicode="&#xf1;" horiz-adv-x="1221" 
d="M298 1249q-21 0 -18 24q10 80 59 123t128 43q50 0 94 -21.5t71 -48t62 -48t69 -21.5q64 0 88 61q6 17 22 17h52q9 0 15 -5.5t5 -14.5q-9 -82 -59 -126t-127 -44q-41 0 -77.5 14.5t-62.5 35l-50.5 40.5t-51.5 34.5t-54 14.5q-67 0 -91 -61q-6 -17 -22 -17h-52zM704 1002
q166 0 261.5 -102t95.5 -294v-576q0 -14 -8.5 -22t-21.5 -8h-120q-13 0 -21.5 8t-8.5 22v556q0 126 -61 188.5t-176 62.5q-72 0 -134 -28t-97 -66.5t-54 -72.5t-19 -52v-588q0 -14 -8 -22t-22 -8h-120q-14 0 -22 8t-8 22v920q0 14 8 22t22 8h112q27 0 30 -30l8 -135h20
q49 80 137 133.5t207 53.5z" />
    <glyph glyph-name="ograve" unicode="&#xf2;" horiz-adv-x="1279" 
d="M454 1400h96q23 0 34 -24l120 -252q7 -16 0 -25t-24 -9h-96q-23 0 -34 24l-120 252q-7 16 0 25t24 9zM640 -26q-106 0 -201 40t-164 108.5t-109.5 164t-40.5 201.5q0 142 68.5 260t187 186t259.5 68q214 0 364 -149.5t150 -364.5q0 -216 -150 -365t-364 -149zM640 142
q143 0 241 100.5t98 245.5q0 144 -98.5 245.5t-240.5 101.5q-143 0 -241.5 -101.5t-98.5 -245.5q0 -145 98.5 -245.5t241.5 -100.5z" />
    <glyph glyph-name="oacute" unicode="&#xf3;" horiz-adv-x="1279" 
d="M822 1400q17 0 24 -9t0 -25l-120 -252q-11 -24 -34 -24h-96q-17 0 -24 9t0 25l120 252q11 24 34 24h96zM640 -26q-106 0 -201 40t-164 108.5t-109.5 164t-40.5 201.5q0 142 68.5 260t187 186t259.5 68q214 0 364 -149.5t150 -364.5q0 -216 -150 -365t-364 -149zM640 142
q143 0 241 100.5t98 245.5q0 144 -98.5 245.5t-240.5 101.5q-143 0 -241.5 -101.5t-98.5 -245.5q0 -145 98.5 -245.5t241.5 -100.5z" />
    <glyph glyph-name="ocircumflex" unicode="&#xf4;" horiz-adv-x="1279" 
d="M726 1436q24 0 36 -16l227 -255q12 -14 7.5 -25t-23.5 -11h-124q-20 0 -36 16l-174 172l-173 -172q-17 -16 -36 -16h-124q-19 0 -24 11t7 25l227 255q14 16 36 16h174zM640 -26q-106 0 -201 40t-164 108.5t-109.5 164t-40.5 201.5q0 142 68.5 260t187 186t259.5 68
q214 0 364 -149.5t150 -364.5q0 -216 -150 -365t-364 -149zM640 142q143 0 241 100.5t98 245.5q0 144 -98.5 245.5t-240.5 101.5q-143 0 -241.5 -101.5t-98.5 -245.5q0 -145 98.5 -245.5t241.5 -100.5z" />
    <glyph glyph-name="otilde" unicode="&#xf5;" horiz-adv-x="1279" 
d="M495 1439q50 0 94 -21.5t71 -48t62 -48t69 -21.5q64 0 88 61q6 17 22 17h52q9 0 15 -5.5t5 -14.5q-9 -82 -59 -126t-127 -44q-41 0 -77.5 14.5t-62.5 35l-50.5 40.5t-51.5 34.5t-54 14.5q-67 0 -91 -61q-6 -17 -22 -17h-52q-21 0 -18 24q10 80 59 123t128 43zM640 -26
q-106 0 -201 40t-164 108.5t-109.5 164t-40.5 201.5q0 142 68.5 260t187 186t259.5 68q214 0 364 -149.5t150 -364.5q0 -216 -150 -365t-364 -149zM640 142q143 0 241 100.5t98 245.5q0 144 -98.5 245.5t-240.5 101.5q-143 0 -241.5 -101.5t-98.5 -245.5q0 -145 98.5 -245.5
t241.5 -100.5z" />
    <glyph glyph-name="odieresis" unicode="&#xf6;" horiz-adv-x="1279" 
d="M448 1221q-41 0 -70.5 29.5t-29.5 71.5q0 40 29.5 69t70.5 29t70.5 -29t29.5 -69q0 -42 -29.5 -71.5t-70.5 -29.5zM832 1221q-41 0 -70.5 29.5t-29.5 71.5q0 40 29.5 69t70.5 29t70.5 -29t29.5 -69q0 -42 -29.5 -71.5t-70.5 -29.5zM640 -26q-106 0 -201 40t-164 108.5
t-109.5 164t-40.5 201.5q0 142 68.5 260t187 186t259.5 68q214 0 364 -149.5t150 -364.5q0 -216 -150 -365t-364 -149zM640 142q143 0 241 100.5t98 245.5q0 144 -98.5 245.5t-240.5 101.5q-143 0 -241.5 -101.5t-98.5 -245.5q0 -145 98.5 -245.5t241.5 -100.5z" />
    <glyph glyph-name="divide" unicode="&#xf7;" horiz-adv-x="1135" 
d="M568 734q-59 0 -100 41t-41 100t41 101t100 42t100 -42t41 -101t-41 -100t-100 -41zM940 642q14 0 22 -8t8 -22v-86q0 -14 -8 -22t-22 -8h-745q-13 0 -21.5 8t-8.5 22v86q0 14 8.5 22t21.5 8h745zM568 120q-59 0 -100 41t-41 100t41 101t100 42t100 -42t41 -101t-41 -100
t-100 -41z" />
    <glyph glyph-name="oslash" unicode="&#xf8;" horiz-adv-x="1279" 
d="M916 923q109 -69 173.5 -184t64.5 -251q0 -216 -150 -365t-364 -149q-74 0 -145 20l-51 -112q-9 -22 -34 -22h-95q-17 0 -23 10t1 26l71 156q-110 69 -174.5 184t-64.5 252q0 142 68.5 260t187 186t259.5 68q75 0 144 -20l51 112q9 22 34 22h96q17 0 23 -10t-1 -26z
M300 488q0 -84 36 -157t99 -121l279 617q-38 8 -74 8q-143 0 -241.5 -101.5t-98.5 -245.5zM640 142q143 0 241 100.5t98 245.5q0 84 -36 156.5t-98 121.5l-280 -616q38 -8 75 -8z" />
    <glyph glyph-name="ugrave" unicode="&#xf9;" horiz-adv-x="1211" 
d="M512 1114l-120 252q-7 16 0 25t24 9h96q23 0 34 -24l120 -252q7 -16 0 -25t-24 -9h-96q-23 0 -34 24zM1021 980q13 0 21.5 -8t8.5 -22v-920q0 -14 -8.5 -22t-21.5 -8h-112q-27 0 -30 30l-8 136h-20q-49 -80 -136.5 -134t-204.5 -54q-166 0 -263 102.5t-97 294.5v575
q0 14 8 22t22 8h120q14 0 22 -8t8 -22v-555q0 -127 63.5 -190.5t184.5 -63.5q68 0 127.5 28.5t93.5 67.5t53 73.5t19 52.5v587q0 14 8.5 22t21.5 8h120z" />
    <glyph glyph-name="uacute" unicode="&#xfa;" horiz-adv-x="1211" 
d="M558 1090q-17 0 -24 9t0 25l120 252q11 24 34 24h96q17 0 24 -9t0 -25l-120 -252q-11 -24 -34 -24h-96zM1021 980q13 0 21.5 -8t8.5 -22v-920q0 -14 -8.5 -22t-21.5 -8h-112q-27 0 -30 30l-8 136h-20q-49 -80 -136.5 -134t-204.5 -54q-166 0 -263 102.5t-97 294.5v575
q0 14 8 22t22 8h120q14 0 22 -8t8 -22v-555q0 -127 63.5 -190.5t184.5 -63.5q68 0 127.5 28.5t93.5 67.5t53 73.5t19 52.5v587q0 14 8.5 22t21.5 8h120z" />
    <glyph glyph-name="ucircumflex" unicode="&#xfb;" horiz-adv-x="1211" 
d="M268 1129q-19 0 -24 11t7 25l227 255q14 16 36 16h174q24 0 36 -16l227 -255q12 -14 7.5 -25t-23.5 -11h-124q-20 0 -36 16l-174 172l-173 -172q-17 -16 -36 -16h-124zM1021 980q13 0 21.5 -8t8.5 -22v-920q0 -14 -8.5 -22t-21.5 -8h-112q-27 0 -30 30l-8 136h-20
q-49 -80 -136.5 -134t-204.5 -54q-166 0 -263 102.5t-97 294.5v575q0 14 8 22t22 8h120q14 0 22 -8t8 -22v-555q0 -127 63.5 -190.5t184.5 -63.5q68 0 127.5 28.5t93.5 67.5t53 73.5t19 52.5v587q0 14 8.5 22t21.5 8h120z" />
    <glyph glyph-name="udieresis" unicode="&#xfc;" horiz-adv-x="1211" 
d="M410 1221q-41 0 -70.5 29.5t-29.5 71.5q0 40 29.5 69t70.5 29t70.5 -29t29.5 -69q0 -42 -29.5 -71.5t-70.5 -29.5zM794 1221q-41 0 -70.5 29.5t-29.5 71.5q0 40 29.5 69t70.5 29t70.5 -29t29.5 -69q0 -42 -29.5 -71.5t-70.5 -29.5zM1021 980q13 0 21.5 -8t8.5 -22v-920
q0 -14 -8.5 -22t-21.5 -8h-112q-27 0 -30 30l-8 136h-20q-49 -80 -136.5 -134t-204.5 -54q-166 0 -263 102.5t-97 294.5v575q0 14 8 22t22 8h120q14 0 22 -8t8 -22v-555q0 -127 63.5 -190.5t184.5 -63.5q68 0 127.5 28.5t93.5 67.5t53 73.5t19 52.5v587q0 14 8.5 22t21.5 8
h120z" />
    <glyph glyph-name="yacute" unicode="&#xfd;" horiz-adv-x="1203" 
d="M784 1400q17 0 24 -9t0 -25l-120 -252q-11 -24 -34 -24h-96q-17 0 -24 9t0 25l120 252q11 24 34 24h96zM1075 980q17 0 24 -9t0 -25l-554 -1302q-11 -24 -36 -24h-121q-17 0 -24 9t0 25l146 344l-406 948q-7 16 0 25t24 9h121q25 0 36 -24l316 -756l317 756q11 24 36 24
h121z" />
    <glyph glyph-name="thorn" unicode="&#xfe;" horiz-adv-x="1255" 
d="M676 1001q211 0 332.5 -144t121.5 -369q0 -146 -54 -262t-158.5 -183.5t-241.5 -67.5q-212 0 -336 159v-484q0 -14 -8 -22t-22 -8h-120q-14 0 -22 8t-8 22v1720q0 14 8 22t22 8h120q14 0 22 -8t8 -22v-549h19q44 81 123.5 130.5t193.5 49.5zM644 142q149 0 230 95t81 253
t-80.5 251t-230.5 93q-139 0 -223.5 -94.5t-84.5 -249.5t84.5 -251.5t223.5 -96.5z" />
    <glyph glyph-name="ydieresis" unicode="&#xff;" horiz-adv-x="1203" 
d="M410 1221q-41 0 -70.5 29.5t-29.5 71.5q0 40 29.5 69t70.5 29t70.5 -29t29.5 -69q0 -42 -29.5 -71.5t-70.5 -29.5zM794 1221q-41 0 -70.5 29.5t-29.5 71.5q0 40 29.5 69t70.5 29t70.5 -29t29.5 -69q0 -42 -29.5 -71.5t-70.5 -29.5zM1075 980q17 0 24 -9t0 -25l-554 -1302
q-11 -24 -36 -24h-121q-17 0 -24 9t0 25l146 344l-406 948q-7 16 0 25t24 9h121q25 0 36 -24l316 -756l317 756q11 24 36 24h121z" />
    <glyph glyph-name="Amacron" unicode="&#x100;" horiz-adv-x="1370" 
d="M430 1671q-14 0 -22 8.5t-8 21.5v85q0 14 8 22t22 8h510q14 0 22 -8t8 -22v-85q0 -13 -8 -21.5t-22 -8.5h-510zM1292 34q6 -15 -0.5 -24.5t-23.5 -9.5h-129q-25 0 -34 24l-99 269h-642l-99 -269q-9 -24 -34 -24h-129q-17 0 -23.5 9.5t-0.5 24.5l508 1342q9 24 36 24h126
q27 0 36 -24zM425 458h520l-260 708z" />
    <glyph glyph-name="amacron" unicode="&#x101;" horiz-adv-x="1237" 
d="M359 1251q-13 0 -21.5 8.5t-8.5 21.5v85q0 14 8.5 22t21.5 8h510q13 0 21.5 -8t8.5 -22v-85q0 -13 -8.5 -21.5t-21.5 -8.5h-510zM1102 149q19 -3 27 -11t8 -25v-86q0 -34 -52 -35q-200 -7 -200 161h-4q-83 -88 -201.5 -132.5t-230.5 -44.5q-163 0 -246 74.5t-83 203.5
q0 126 79.5 198.5t243.5 97.5l277 42q64 9 94 19t37 26q-1 112 -61 161t-178 49q-240 0 -262 -152q-3 -23 -29 -23h-116q-31 0 -28 30q31 300 436 300q210 0 311.5 -94t101.5 -269v-409q0 -69 76 -81zM301 273q0 -66 44 -103t136 -37q224 0 370 145v226q-6 -14 -30.5 -22.5
t-79.5 -17.5l-257 -40q-101 -16 -142 -53t-41 -98z" />
    <glyph glyph-name="Abreve" unicode="&#x102;" horiz-adv-x="1370" 
d="M685 1540q-127 0 -205 73t-89 187q-3 30 28 30h68q26 0 32 -28q12 -57 55.5 -94.5t110.5 -37.5q68 0 111.5 37.5t55.5 94.5q6 28 32 28h67q32 0 29 -30q-12 -114 -90 -187t-205 -73zM1292 34q6 -15 -0.5 -24.5t-23.5 -9.5h-129q-25 0 -34 24l-99 269h-642l-99 -269
q-9 -24 -34 -24h-129q-17 0 -23.5 9.5t-0.5 24.5l508 1342q9 24 36 24h126q27 0 36 -24zM425 458h520l-260 708z" />
    <glyph glyph-name="abreve" unicode="&#x103;" horiz-adv-x="1237" 
d="M614 1120q-127 0 -205 73t-89 187q-3 30 28 30h68q26 0 32 -28q12 -57 55.5 -94.5t110.5 -37.5q68 0 111.5 37.5t55.5 94.5q6 28 32 28h67q32 0 29 -30q-12 -114 -90 -187t-205 -73zM1102 149q19 -3 27 -11t8 -25v-86q0 -34 -52 -35q-200 -7 -200 161h-4
q-83 -88 -201.5 -132.5t-230.5 -44.5q-163 0 -246 74.5t-83 203.5q0 126 79.5 198.5t243.5 97.5l277 42q64 9 94 19t37 26q-1 112 -61 161t-178 49q-240 0 -262 -152q-3 -23 -29 -23h-116q-31 0 -28 30q31 300 436 300q210 0 311.5 -94t101.5 -269v-409q0 -69 76 -81z
M301 273q0 -66 44 -103t136 -37q224 0 370 145v226q-6 -14 -30.5 -22.5t-79.5 -17.5l-257 -40q-101 -16 -142 -53t-41 -98z" />
    <glyph glyph-name="Aogonek" unicode="&#x104;" horiz-adv-x="1370" 
d="M1292 34q6 -15 -0.5 -24.5t-23.5 -9.5h-61q-97 -7 -156.5 -59.5t-59.5 -115.5q0 -61 42.5 -88t119.5 -10v-123q-30 -14 -70.5 -18t-84 5.5t-80 31t-60 64.5t-23.5 101q0 54 22 101t60 80.5t80.5 57.5t91.5 40l-83 226h-642l-99 -269q-9 -24 -34 -24h-129q-17 0 -23.5 9.5
t-0.5 24.5l508 1342q9 24 36 24h126q27 0 36 -24zM425 458h520l-260 708z" />
    <glyph glyph-name="aogonek" unicode="&#x105;" horiz-adv-x="1237" 
d="M1102 149q19 -3 27 -11t8 -25v-86q0 -27 -32 -33v-2q-100 0 -158.5 -54.5t-58.5 -120.5q0 -61 42.5 -88t119.5 -10v-123q-38 -17 -90.5 -17.5t-104 16t-87 65t-35.5 120.5q0 87 53.5 152.5t138.5 104.5q-40 40 -40 116h-4q-83 -88 -201.5 -132.5t-230.5 -44.5
q-163 0 -246 74.5t-83 203.5q0 126 79.5 198.5t243.5 97.5l277 42q64 9 94 19t37 26q-1 112 -61 161t-178 49q-240 0 -262 -152q-3 -23 -29 -23h-116q-31 0 -28 30q31 300 436 300q210 0 311.5 -94t101.5 -269v-409q0 -69 76 -81zM301 273q0 -66 44 -103t136 -37
q224 0 370 145v226q-6 -14 -30.5 -22.5t-79.5 -17.5l-257 -40q-101 -16 -142 -53t-41 -98z" />
    <glyph glyph-name="Cacute" unicode="&#x106;" horiz-adv-x="1441" 
d="M985 1820q17 0 24 -9t0 -25l-120 -252q-11 -24 -34 -24h-96q-17 0 -24 9t0 25l120 252q11 24 34 24h96zM1236 292l80 -84q21 -21 -1 -42q-201 -192 -477 -192q-147 0 -278.5 56.5t-225.5 153t-149 229.5t-55 281q0 199 93.5 364.5t256 261.5t358.5 96q270 0 477 -191
q22 -21 1 -42l-80 -85q-19 -19 -42 0q-160 136 -356 136q-142 0 -260.5 -70t-187.5 -194t-69 -276q0 -150 69 -273.5t187.5 -193.5t260.5 -70q198 0 356 136q22 19 42 -1z" />
    <glyph glyph-name="cacute" unicode="&#x107;" horiz-adv-x="1176" 
d="M789 1400q17 0 24 -9t0 -25l-120 -252q-11 -24 -34 -24h-96q-17 0 -24 9t0 25l120 252q11 24 34 24h96zM640 142q175 0 276 133q16 22 40 7l89 -52q26 -16 9 -40q-67 -101 -176 -158.5t-241 -57.5q-221 0 -366.5 147.5t-145.5 366.5q0 220 145.5 367t366.5 147
q132 0 241 -57.5t176 -157.5q17 -25 -9 -41l-89 -52q-23 -14 -40 7q-102 134 -276 134q-148 0 -243.5 -96.5t-95.5 -250.5q0 -153 95.5 -249.5t243.5 -96.5z" />
    <glyph glyph-name="Cdotaccent" unicode="&#x10a;" horiz-adv-x="1441" 
d="M802 1631q-41 0 -70.5 29.5t-29.5 71.5q0 40 29.5 69t70.5 29t70.5 -29t29.5 -69q0 -42 -29.5 -71.5t-70.5 -29.5zM1236 292l80 -84q21 -21 -1 -42q-201 -192 -477 -192q-147 0 -278.5 56.5t-225.5 153t-149 229.5t-55 281q0 199 93.5 364.5t256 261.5t358.5 96
q270 0 477 -191q22 -21 1 -42l-80 -85q-19 -19 -42 0q-160 136 -356 136q-142 0 -260.5 -70t-187.5 -194t-69 -276q0 -150 69 -273.5t187.5 -193.5t260.5 -70q198 0 356 136q22 19 42 -1z" />
    <glyph glyph-name="cdotaccent" unicode="&#x10b;" horiz-adv-x="1176" 
d="M606 1211q-41 0 -70.5 29.5t-29.5 71.5q0 40 29.5 69t70.5 29t70.5 -29t29.5 -69q0 -42 -29.5 -71.5t-70.5 -29.5zM640 142q175 0 276 133q16 22 40 7l89 -52q26 -16 9 -40q-67 -101 -176 -158.5t-241 -57.5q-221 0 -366.5 147.5t-145.5 366.5q0 220 145.5 367t366.5 147
q132 0 241 -57.5t176 -157.5q17 -25 -9 -41l-89 -52q-23 -14 -40 7q-102 134 -276 134q-148 0 -243.5 -96.5t-95.5 -250.5q0 -153 95.5 -249.5t243.5 -96.5z" />
    <glyph glyph-name="Ccaron" unicode="&#x10c;" horiz-adv-x="1441" 
d="M889 1549h-174q-22 0 -36 16l-227 255q-12 14 -7 25t24 11h124q19 0 36 -16l173 -172l174 172q16 16 36 16h124q19 0 23.5 -11t-7.5 -25l-227 -255q-12 -16 -36 -16zM1236 292l80 -84q21 -21 -1 -42q-201 -192 -477 -192q-147 0 -278.5 56.5t-225.5 153t-149 229.5
t-55 281q0 199 93.5 364.5t256 261.5t358.5 96q270 0 477 -191q22 -21 1 -42l-80 -85q-19 -19 -42 0q-160 136 -356 136q-142 0 -260.5 -70t-187.5 -194t-69 -276q0 -150 69 -273.5t187.5 -193.5t260.5 -70q198 0 356 136q22 19 42 -1z" />
    <glyph glyph-name="ccaron" unicode="&#x10d;" horiz-adv-x="1176" 
d="M693 1129h-174q-22 0 -36 16l-227 255q-12 14 -7 25t24 11h124q19 0 36 -16l173 -172l174 172q16 16 36 16h124q19 0 23.5 -11t-7.5 -25l-227 -255q-12 -16 -36 -16zM640 142q175 0 276 133q16 22 40 7l89 -52q26 -16 9 -40q-67 -101 -176 -158.5t-241 -57.5
q-221 0 -366.5 147.5t-145.5 366.5q0 220 145.5 367t366.5 147q132 0 241 -57.5t176 -157.5q17 -25 -9 -41l-89 -52q-23 -14 -40 7q-102 134 -276 134q-148 0 -243.5 -96.5t-95.5 -250.5q0 -153 95.5 -249.5t243.5 -96.5z" />
    <glyph glyph-name="Dcaron" unicode="&#x10e;" horiz-adv-x="1363" 
d="M581 1565l-227 255q-12 14 -7 25t24 11h124q19 0 36 -16l173 -172l174 172q16 16 36 16h124q19 0 23.5 -11t-7.5 -25l-227 -255q-12 -16 -36 -16h-174q-22 0 -36 16zM535 1400q178 0 318.5 -53.5t230.5 -148.5t137 -221.5t47 -276.5q0 -149 -47 -275.5t-137 -222
t-231 -149t-318 -53.5h-335q-14 0 -22 8t-8 22v1340q0 14 8 22t22 8h335zM535 170q268 0 405.5 139t137.5 391t-137.5 391t-405.5 139h-178v-1060h178z" />
    <glyph glyph-name="dcaron" unicode="&#x10f;" 
d="M1504 1614q17 0 24 -9t0 -25l-120 -252q-11 -24 -34 -24h-96q-17 0 -24 9t0 25l120 252q11 24 34 24h96zM1080 1400q14 0 22 -8t8 -22v-1340q0 -14 -8 -22t-22 -8h-109q-27 0 -30 30l-8 105q-126 -161 -343 -161q-208 0 -336.5 146t-128.5 368q0 224 126.5 369t338.5 145
q120 0 201 -50t122 -131h17v549q0 14 8 22t22 8h120zM622 141q144 0 230.5 97t86.5 252q0 156 -86 251t-231 95q-149 0 -235.5 -95t-86.5 -251t86.5 -252.5t235.5 -96.5z" />
    <glyph glyph-name="Dcroat" unicode="&#x110;" 
d="M516 1400q178 0 318.5 -53.5t230.5 -148.5t137 -221.5t47 -276.5q0 -149 -47 -275.5t-137 -222t-231 -149t-318 -53.5h-335q-13 0 -21.5 8t-8.5 22v595h-27q-14 0 -22 8.5t-8 21.5v85q0 14 8 22t22 8h27v600q0 14 8.5 22t21.5 8h335zM516 170q268 0 405.5 139t137.5 391
t-137.5 391t-405.5 139h-178v-460h296q14 0 22 -8t8 -22v-85q0 -13 -8 -21.5t-22 -8.5h-296v-455h178z" />
    <glyph glyph-name="dcroat" unicode="&#x111;" 
d="M1170 1277q14 0 22 -8.5t8 -21.5v-85q0 -14 -8 -22t-22 -8h-60v-1102q0 -14 -8 -22t-22 -8h-109q-27 0 -30 30l-8 105q-126 -161 -343 -161q-208 0 -336.5 146t-128.5 368q0 224 126.5 369t338.5 145q120 0 201 -50t122 -131h17v311h-270q-14 0 -22 8t-8 22v85
q0 13 8 21.5t22 8.5h270v93q0 14 8 22t22 8h120q14 0 22 -8t8 -22v-93h60zM622 141q144 0 230.5 97t86.5 252q0 156 -86 251t-231 95q-149 0 -235.5 -95t-86.5 -251t86.5 -252.5t235.5 -96.5z" />
    <glyph glyph-name="Emacron" unicode="&#x112;" horiz-adv-x="1220" 
d="M878 1816q14 0 22 -8t8 -22v-85q0 -13 -8 -21.5t-22 -8.5h-510q-14 0 -22 8.5t-8 21.5v85q0 14 8 22t22 8h510zM1055 170q13 0 21.5 -8t8.5 -22v-110q0 -14 -8.5 -22t-21.5 -8h-855q-14 0 -22 8t-8 22v1340q0 14 8 22t22 8h853q13 0 21.5 -8t8.5 -22v-110q0 -14 -8.5 -22
t-21.5 -8h-696v-415h643q14 0 22 -8.5t8 -21.5v-110q0 -13 -8 -21.5t-22 -8.5h-643v-475h698z" />
    <glyph glyph-name="emacron" unicode="&#x113;" horiz-adv-x="1212" 
d="M351 1251q-13 0 -21.5 8.5t-8.5 21.5v85q0 14 8.5 22t21.5 8h510q13 0 21.5 -8t8.5 -22v-85q0 -13 -8.5 -21.5t-21.5 -8.5h-510zM619 1002q141 0 249.5 -68t163.5 -177t55 -239q0 -58 -11.5 -81.5t-49.5 -23.5h-725q17 -129 113 -208t241 -79q144 0 258 93q25 20 43 3
l52 -52q23 -24 1 -46q-152 -150 -373 -150q-227 0 -369 147t-142 367q0 143 62 260t175.5 185.5t256.5 68.5zM619 846q-127 0 -214 -81.5t-104 -213.5h628q-9 130 -94.5 212.5t-215.5 82.5z" />
    <glyph glyph-name="Edotaccent" unicode="&#x116;" horiz-adv-x="1220" 
d="M623 1631q-41 0 -70.5 29.5t-29.5 71.5q0 40 29.5 69t70.5 29t70.5 -29t29.5 -69q0 -42 -29.5 -71.5t-70.5 -29.5zM1055 170q13 0 21.5 -8t8.5 -22v-110q0 -14 -8.5 -22t-21.5 -8h-855q-14 0 -22 8t-8 22v1340q0 14 8 22t22 8h853q13 0 21.5 -8t8.5 -22v-110
q0 -14 -8.5 -22t-21.5 -8h-696v-415h643q14 0 22 -8.5t8 -21.5v-110q0 -13 -8 -21.5t-22 -8.5h-643v-475h698z" />
    <glyph glyph-name="edotaccent" unicode="&#x117;" horiz-adv-x="1212" 
d="M606 1211q-41 0 -70.5 29.5t-29.5 71.5q0 40 29.5 69t70.5 29t70.5 -29t29.5 -69q0 -42 -29.5 -71.5t-70.5 -29.5zM619 1002q141 0 249.5 -68t163.5 -177t55 -239q0 -58 -11.5 -81.5t-49.5 -23.5h-725q17 -129 113 -208t241 -79q144 0 258 93q25 20 43 3l52 -52
q23 -24 1 -46q-152 -150 -373 -150q-227 0 -369 147t-142 367q0 143 62 260t175.5 185.5t256.5 68.5zM619 846q-127 0 -214 -81.5t-104 -213.5h628q-9 130 -94.5 212.5t-215.5 82.5z" />
    <glyph glyph-name="Eogonek" unicode="&#x118;" 
d="M1055 170q13 0 21.5 -8t8.5 -22v-110q0 -18 -12 -25v-5q-97 -7 -156.5 -59.5t-59.5 -115.5q0 -61 42.5 -88t119.5 -10v-123q-30 -14 -70.5 -18t-84 5.5t-80 31t-60 64.5t-23.5 101q0 126 119 212h-620q-14 0 -22 8t-8 22v1340q0 14 8 22t22 8h853q13 0 21.5 -8t8.5 -22
v-110q0 -14 -8.5 -22t-21.5 -8h-696v-415h643q14 0 22 -8.5t8 -21.5v-110q0 -13 -8 -21.5t-22 -8.5h-643v-475h698z" />
    <glyph glyph-name="eogonek" unicode="&#x119;" horiz-adv-x="1212" 
d="M619 1002q141 0 249.5 -68t163.5 -177t55 -239q0 -58 -11.5 -81.5t-49.5 -23.5h-725q17 -129 113 -208t241 -79q144 0 258 93q25 20 43 3l52 -52q23 -24 1 -46q-87 -87 -201 -124h-1q-2 -1 -7 -2.5t-8 -2.5q-86 -27 -136.5 -76t-50.5 -108q0 -58 42.5 -84.5t119.5 -9.5
v-123q-30 -14 -70.5 -18t-84 5.5t-80 31t-60 64.5t-23.5 101q0 117 109 201q-196 26 -314.5 168t-118.5 341q0 143 62 260t175.5 185.5t256.5 68.5zM619 846q-127 0 -214 -81.5t-104 -213.5h628q-9 130 -94.5 212.5t-215.5 82.5z" />
    <glyph glyph-name="Ecaron" unicode="&#x11a;" horiz-adv-x="1220" 
d="M710 1549h-174q-22 0 -36 16l-227 255q-12 14 -7 25t24 11h124q19 0 36 -16l173 -172l174 172q16 16 36 16h124q19 0 23.5 -11t-7.5 -25l-227 -255q-12 -16 -36 -16zM1055 170q13 0 21.5 -8t8.5 -22v-110q0 -14 -8.5 -22t-21.5 -8h-855q-14 0 -22 8t-8 22v1340q0 14 8 22
t22 8h853q13 0 21.5 -8t8.5 -22v-110q0 -14 -8.5 -22t-21.5 -8h-696v-415h643q14 0 22 -8.5t8 -21.5v-110q0 -13 -8 -21.5t-22 -8.5h-643v-475h698z" />
    <glyph glyph-name="ecaron" unicode="&#x11b;" horiz-adv-x="1212" 
d="M483 1145l-227 255q-12 14 -7 25t24 11h124q19 0 36 -16l173 -172l174 172q16 16 36 16h124q19 0 23.5 -11t-7.5 -25l-227 -255q-12 -16 -36 -16h-174q-22 0 -36 16zM619 1002q141 0 249.5 -68t163.5 -177t55 -239q0 -58 -11.5 -81.5t-49.5 -23.5h-725q17 -129 113 -208
t241 -79q144 0 258 93q25 20 43 3l52 -52q23 -24 1 -46q-152 -150 -373 -150q-227 0 -369 147t-142 367q0 143 62 260t175.5 185.5t256.5 68.5zM619 846q-127 0 -214 -81.5t-104 -213.5h628q-9 130 -94.5 212.5t-215.5 82.5z" />
    <glyph glyph-name="Gbreve" unicode="&#x11e;" horiz-adv-x="1611" 
d="M800 1540q-127 0 -205 73t-89 187q-3 30 28 30h68q26 0 32 -28q12 -57 55.5 -94.5t110.5 -37.5q68 0 111.5 37.5t55.5 94.5q6 28 32 28h67q32 0 29 -30q-12 -114 -90 -187t-205 -73zM1451 738q13 0 21.5 -8t8.5 -22v-79q0 -185 -76 -333t-223 -235t-341 -87
q-198 0 -361.5 96.5t-256.5 262.5t-93 364q0 148 55 281t149 229t225.5 152.5t278.5 56.5q270 0 477 -191q22 -21 1 -42l-80 -85q-19 -19 -42 0q-160 136 -356 136q-142 0 -260.5 -70t-187.5 -193.5t-69 -273.5q0 -230 149.5 -385t370.5 -155q200 0 327 116t133 298h-441
q-14 0 -22 8.5t-8 21.5v107q0 14 8 22t22 8h591z" />
    <glyph glyph-name="gbreve" unicode="&#x11f;" horiz-adv-x="1273" 
d="M637 1120q-127 0 -205 73t-89 187q-3 30 28 30h68q26 0 32 -28q12 -57 55.5 -94.5t110.5 -37.5q68 0 111.5 37.5t55.5 94.5q6 28 32 28h67q32 0 29 -30q-12 -114 -90 -187t-205 -73zM1083 980q13 0 21.5 -8t8.5 -22v-932q0 -89 -29 -160.5t-77.5 -118t-114.5 -78
t-135.5 -44.5t-144.5 -13q-229 0 -386 102q-24 15 -10 42l38 71q15 26 40 12q142 -71 305 -71q66 0 124.5 14t108.5 43t79.5 81t29.5 122v145q-126 -170 -337 -170q-206 0 -342.5 146.5t-136.5 356.5t136.5 356.5t342.5 146.5q205 0 333 -165l7 114q3 30 30 30h109zM621 162
q135 0 226.5 100.5t91.5 237.5q0 136 -91 235t-227 99q-137 0 -229 -96.5t-92 -237.5q0 -143 92 -240.5t229 -97.5z" />
    <glyph glyph-name="Gdotaccent" unicode="&#x120;" horiz-adv-x="1611" 
d="M800 1631q-41 0 -70.5 29.5t-29.5 71.5q0 40 29.5 69t70.5 29t70.5 -29t29.5 -69q0 -42 -29.5 -71.5t-70.5 -29.5zM1451 738q13 0 21.5 -8t8.5 -22v-79q0 -185 -76 -333t-223 -235t-341 -87q-198 0 -361.5 96.5t-256.5 262.5t-93 364q0 148 55 281t149 229t225.5 152.5
t278.5 56.5q270 0 477 -191q22 -21 1 -42l-80 -85q-19 -19 -42 0q-160 136 -356 136q-142 0 -260.5 -70t-187.5 -193.5t-69 -273.5q0 -230 149.5 -385t370.5 -155q200 0 327 116t133 298h-441q-14 0 -22 8.5t-8 21.5v107q0 14 8 22t22 8h591z" />
    <glyph glyph-name="gdotaccent" unicode="&#x121;" horiz-adv-x="1273" 
d="M637 1211q-41 0 -70.5 29.5t-29.5 71.5q0 40 29.5 69t70.5 29t70.5 -29t29.5 -69q0 -42 -29.5 -71.5t-70.5 -29.5zM1083 980q13 0 21.5 -8t8.5 -22v-932q0 -89 -29 -160.5t-77.5 -118t-114.5 -78t-135.5 -44.5t-144.5 -13q-229 0 -386 102q-24 15 -10 42l38 71
q15 26 40 12q142 -71 305 -71q66 0 124.5 14t108.5 43t79.5 81t29.5 122v145q-126 -170 -337 -170q-206 0 -342.5 146.5t-136.5 356.5t136.5 356.5t342.5 146.5q205 0 333 -165l7 114q3 30 30 30h109zM621 162q135 0 226.5 100.5t91.5 237.5q0 136 -91 235t-227 99
q-137 0 -229 -96.5t-92 -237.5q0 -143 92 -240.5t229 -97.5z" />
    <glyph glyph-name="Gcommaaccent" unicode="&#x122;" horiz-adv-x="1611" 
d="M1451 738q13 0 21.5 -8t8.5 -22v-79q0 -185 -76 -333t-223 -235t-341 -87q-198 0 -361.5 96.5t-256.5 262.5t-93 364q0 148 55 281t149 229t225.5 152.5t278.5 56.5q270 0 477 -191q22 -21 1 -42l-80 -85q-19 -19 -42 0q-160 136 -356 136q-142 0 -260.5 -70
t-187.5 -193.5t-69 -273.5q0 -230 149.5 -385t370.5 -155q200 0 327 116t133 298h-441q-14 0 -22 8.5t-8 21.5v107q0 14 8 22t22 8h591zM1015 -167q13 0 21 -7.5t8 -20.5v-46q0 -115 -20 -234.5t-49 -196.5q-8 -21 -33 -21h-62q-30 0 -25 31q13 70 20.5 173t5.5 176h-240
q-28 0 -28 28v90q0 28 28 28h374z" />
    <glyph glyph-name="gcommaaccent" unicode="&#x123;" horiz-adv-x="1273" 
d="M403 1198q-13 0 -21 7.5t-8 20.5v46q0 115 20 234.5t49 196.5q8 21 33 21h62q30 0 25 -31q-13 -70 -20.5 -173t-5.5 -176h240q28 0 28 -28v-90q0 -28 -28 -28h-374zM1083 980q13 0 21.5 -8t8.5 -22v-932q0 -89 -29 -160.5t-77.5 -118t-114.5 -78t-135.5 -44.5t-144.5 -13
q-229 0 -386 102q-24 15 -10 42l38 71q15 26 40 12q142 -71 305 -71q66 0 124.5 14t108.5 43t79.5 81t29.5 122v145q-126 -170 -337 -170q-206 0 -342.5 146.5t-136.5 356.5t136.5 356.5t342.5 146.5q205 0 333 -165l7 114q3 30 30 30h109zM621 162q135 0 226.5 100.5
t91.5 237.5q0 136 -91 235t-227 99q-137 0 -229 -96.5t-92 -237.5q0 -143 92 -240.5t229 -97.5z" />
    <glyph glyph-name="Hbar" unicode="&#x126;" horiz-adv-x="1423" 
d="M1223 1400q13 0 21.5 -8t8.5 -22v-1340q0 -14 -8.5 -22t-21.5 -8h-127q-14 0 -22 8t-8 22v599h-709v-599q0 -14 -8.5 -22t-21.5 -8h-127q-14 0 -22 8t-8 22v1340q0 14 8 22t22 8h127q13 0 21.5 -8t8.5 -22v-256h699v-159h-699v-156h709v571q0 14 8 22t22 8h127z" />
    <glyph glyph-name="hbar" unicode="&#x127;" horiz-adv-x="1218" 
d="M701 1002q166 0 261.5 -102t95.5 -294v-576q0 -14 -8 -22t-22 -8h-120q-14 0 -22 8t-8 22v556q0 126 -61 188.5t-176 62.5q-66 0 -122.5 -23t-92 -57.5t-57 -66.5t-29.5 -58v-602q0 -14 -8 -22t-22 -8h-120q-14 0 -22 8t-8 22v1095h-90q-14 0 -22 8.5t-8 21.5v85
q0 14 8 22t22 8h90v100q0 14 8 22t22 8h120q14 0 22 -8t8 -22v-100h240q14 0 22 -8t8 -22v-85q0 -13 -8 -21.5t-22 -8.5h-240v-310h17q49 80 137 133.5t207 53.5z" />
    <glyph glyph-name="Imacron" unicode="&#x12a;" horiz-adv-x="1285" 
d="M898 1816q14 0 22 -8t8 -22v-85q0 -13 -8 -21.5t-22 -8.5h-510q-14 0 -22 8.5t-8 21.5v85q0 14 8 22t22 8h510zM1110 1230h-374v-1060h374q14 0 22 -8t8 -22v-110q0 -14 -8 -22t-22 -8h-935q-13 0 -21.5 8t-8.5 22v110q0 14 8.5 22t21.5 8h374v1060h-374q-13 0 -21.5 8
t-8.5 22v110q0 14 8.5 22t21.5 8h935q14 0 22 -8t8 -22v-110q0 -14 -8 -22t-22 -8z" />
    <glyph glyph-name="imacron" unicode="&#x12b;" horiz-adv-x="1155" 
d="M323 1251q-13 0 -21.5 8.5t-8.5 21.5v85q0 14 8.5 22t21.5 8h510q13 0 21.5 -8t8.5 -22v-85q0 -13 -8.5 -21.5t-21.5 -8.5h-510zM1010 156q14 0 22 -8t8 -22v-96q0 -14 -8 -22t-22 -8h-855q-13 0 -21.5 8t-8.5 22v96q0 14 8.5 22t21.5 8h364v669h-314q-13 0 -21.5 8.5
t-8.5 21.5v95q0 14 8.5 22t21.5 8h464q13 0 21.5 -8t8.5 -22v-794h311z" />
    <glyph glyph-name="iogonek" unicode="&#x12f;" 
d="M578 1211q-41 0 -70.5 29.5t-29.5 71.5q0 40 29.5 69t70.5 29t70.5 -29t29.5 -69q0 -42 -29.5 -71.5t-70.5 -29.5zM1010 156q14 0 22 -8t8 -22v-96q0 -14 -8 -22t-22 -8h-205q-97 -7 -156.5 -59.5t-59.5 -115.5q0 -61 42.5 -88t119.5 -10v-123q-30 -14 -70.5 -18t-84 5.5
t-80 31t-60 64.5t-23.5 101q0 126 119 212h-397q-13 0 -21.5 8t-8.5 22v96q0 14 8.5 22t21.5 8h364v669h-314q-13 0 -21.5 8.5t-8.5 21.5v95q0 14 8.5 22t21.5 8h464q13 0 21.5 -8t8.5 -22v-794h311z" />
    <glyph glyph-name="Idotaccent" unicode="&#x130;" horiz-adv-x="1285" 
d="M643 1631q-41 0 -70.5 29.5t-29.5 71.5q0 40 29.5 69t70.5 29t70.5 -29t29.5 -69q0 -42 -29.5 -71.5t-70.5 -29.5zM1110 1230h-374v-1060h374q14 0 22 -8t8 -22v-110q0 -14 -8 -22t-22 -8h-935q-13 0 -21.5 8t-8.5 22v110q0 14 8.5 22t21.5 8h374v1060h-374
q-13 0 -21.5 8t-8.5 22v110q0 14 8.5 22t21.5 8h935q14 0 22 -8t8 -22v-110q0 -14 -8 -22t-22 -8z" />
    <glyph glyph-name="dotlessi" unicode="&#x131;" horiz-adv-x="1155" 
d="M1010 156q14 0 22 -8t8 -22v-96q0 -14 -8 -22t-22 -8h-855q-13 0 -21.5 8t-8.5 22v96q0 14 8.5 22t21.5 8h364v669h-314q-13 0 -21.5 8.5t-8.5 21.5v95q0 14 8.5 22t21.5 8h464q13 0 21.5 -8t8.5 -22v-794h311z" />
    <glyph glyph-name="IJ" unicode="&#x132;" 
d="M275 1400q13 0 21.5 -8t8.5 -22v-1340q0 -14 -8.5 -22t-21.5 -8h-127q-14 0 -22 8t-8 22v1340q0 14 8 22t22 8h127zM1133 1400q13 0 21.5 -8t8.5 -22v-866q0 -132 -38.5 -234.5t-105.5 -164t-151 -92.5t-181 -31q-137 0 -229 49q-25 14 -12 41l46 94q13 25 38 16
q64 -26 140 -26q61 0 114.5 20.5t97 61t69 109t25.5 157.5v726h-474q-14 0 -22 8t-8 22v110q0 14 8 22t22 8h631z" />
    <glyph glyph-name="ij" unicode="&#x133;" horiz-adv-x="1320" 
d="M269 1202q-46 0 -77.5 31.5t-31.5 77.5t31.5 77.5t77.5 31.5t77.5 -31.5t31.5 -77.5t-31.5 -77.5t-77.5 -31.5zM1037 1202q-46 0 -77.5 31.5t-31.5 77.5t31.5 77.5t77.5 31.5t77.5 -31.5t31.5 -77.5t-31.5 -77.5t-77.5 -31.5zM333 980q13 0 21.5 -8t8.5 -22v-920
q0 -14 -8.5 -22t-21.5 -8h-120q-13 0 -21.5 8t-8.5 22v920q0 14 8.5 22t21.5 8h120zM1120 980q14 0 22 -8t8 -22v-920q0 -97 -24.5 -171t-64 -119.5t-96 -74t-113.5 -39t-124 -10.5q-61 0 -119 13t-99 32.5t-71 41.5t-42.5 41t-5.5 30l50 79q7 11 21.5 12t28.5 -9
q103 -82 226 -82q52 0 92.5 10.5t79 37t60 81.5t21.5 136v786h-465q-13 0 -21.5 8.5t-8.5 21.5v95q0 14 8.5 22t21.5 8h615z" />
    <glyph glyph-name="Kcommaaccent" unicode="&#x136;" horiz-adv-x="1234" 
d="M1157 36q11 -15 5.5 -25.5t-23.5 -10.5h-153q-23 0 -36 18l-463 630l-155 -174v-444q0 -14 -8 -22t-22 -8h-127q-13 0 -21.5 8t-8.5 22v1340q0 14 8.5 22t21.5 8h127q14 0 22 -8t8 -22v-647l582 661q13 16 36 16h160q20 0 25 -11t-9 -25l-518 -581zM858 -167
q13 0 21 -7.5t8 -20.5v-46q0 -115 -20 -234.5t-49 -196.5q-8 -21 -33 -21h-62q-30 0 -25 31q13 70 20.5 173t5.5 176h-240q-28 0 -28 28v90q0 28 28 28h374z" />
    <glyph glyph-name="kcommaaccent" unicode="&#x137;" horiz-adv-x="1155" 
d="M1072 36q12 -15 6 -25.5t-24 -10.5h-143q-22 0 -36 18l-346 415l-189 -198v-205q0 -14 -8 -22t-22 -8h-120q-14 0 -22 8t-8 22v1400q0 14 8 22t22 8h120q14 0 22 -8t8 -22v-968l470 502q16 16 38 16h152q20 0 25 -10.5t-9 -25.5l-373 -391zM793 -167q13 0 21 -7.5
t8 -20.5v-46q0 -115 -20 -234.5t-49 -196.5q-8 -21 -33 -21h-62q-30 0 -25 31q13 70 20.5 173t5.5 176h-240q-28 0 -28 28v90q0 28 28 28h374z" />
    <glyph glyph-name="Lacute" unicode="&#x139;" horiz-adv-x="1175" 
d="M240 1484q-17 0 -24 9t0 25l120 252q11 24 34 24h96q17 0 24 -9t0 -25l-120 -252q-11 -24 -34 -24h-96zM1045 170q13 0 21.5 -8t8.5 -22v-110q0 -14 -8.5 -22t-21.5 -8h-845q-14 0 -22 8t-8 22v1340q0 14 8 22t22 8h127q13 0 21.5 -8t8.5 -22v-1200h688z" />
    <glyph glyph-name="lacute" unicode="&#x13a;" horiz-adv-x="1160" 
d="M545 1515q-17 0 -24 9t0 25l120 252q11 24 34 24h96q17 0 24 -9t0 -25l-120 -252q-11 -24 -34 -24h-96zM1020 156q14 0 22 -8t8 -22v-96q0 -14 -8 -22t-22 -8h-865q-13 0 -21.5 8t-8.5 22v96q0 14 8.5 22t21.5 8h364v1089h-342q-13 0 -21.5 8.5t-8.5 21.5v95q0 14 8.5 22
t21.5 8h492q13 0 21.5 -8t8.5 -22v-1214h321z" />
    <glyph glyph-name="Lcommaaccent" unicode="&#x13b;" horiz-adv-x="1175" 
d="M1045 170q13 0 21.5 -8t8.5 -22v-110q0 -14 -8.5 -22t-21.5 -8h-845q-14 0 -22 8t-8 22v1340q0 14 8 22t22 8h127q13 0 21.5 -8t8.5 -22v-1200h688zM828 -167q13 0 21 -7.5t8 -20.5v-46q0 -115 -20 -234.5t-49 -196.5q-8 -21 -33 -21h-62q-30 0 -25 31q13 70 20.5 173
t5.5 176h-240q-28 0 -28 28v90q0 28 28 28h374z" />
    <glyph glyph-name="lcommaaccent" unicode="&#x13c;" horiz-adv-x="1160" 
d="M1020 156q14 0 22 -8t8 -22v-96q0 -14 -8 -22t-22 -8h-865q-13 0 -21.5 8t-8.5 22v96q0 14 8.5 22t21.5 8h364v1089h-342q-13 0 -21.5 8.5t-8.5 21.5v95q0 14 8.5 22t21.5 8h492q13 0 21.5 -8t8.5 -22v-1214h321zM803 -167q13 0 21 -7.5t8 -20.5v-46q0 -115 -20 -234.5
t-49 -196.5q-8 -21 -33 -21h-62q-30 0 -25 31q13 70 20.5 173t5.5 176h-240q-28 0 -28 28v90q0 28 28 28h374z" />
    <glyph glyph-name="Lcaron" unicode="&#x13d;" horiz-adv-x="1176" 
d="M1045 170q13 0 21.5 -8t8.5 -22v-110q0 -14 -8.5 -22t-21.5 -8h-845q-14 0 -22 8t-8 22v1340q0 14 8 22t22 8h127q13 0 21.5 -8t8.5 -22v-1200h688zM515 1245q-13 0 -21.5 8.5t-8.5 21.5v95q0 14 8.5 22t21.5 8h398q13 0 21.5 -8t8.5 -22v-49q0 -122 -21 -248.5
t-52 -208.5q-9 -23 -35 -23h-66q-32 0 -26 33q14 74 21.5 183.5t5.5 187.5h-255z" />
    <glyph glyph-name="lcaron" unicode="&#x13e;" horiz-adv-x="1255" 
d="M1020 156q14 0 22 -8t8 -22v-96q0 -14 -8 -22t-22 -8h-865q-13 0 -21.5 8t-8.5 22v96q0 14 8.5 22t21.5 8h364v1089h-342q-13 0 -21.5 8.5t-8.5 21.5v95q0 14 8.5 22t21.5 8h492q13 0 21.5 -8t8.5 -22v-1214h321zM1211 1400q13 0 21.5 -8t8.5 -22v-49q0 -122 -21 -248.5
t-52 -208.5q-9 -23 -35 -23h-66q-32 0 -26 33q14 74 21.5 183.5t5.5 187.5h-255q-13 0 -21.5 8.5t-8.5 21.5v95q0 14 8.5 22t21.5 8h398z" />
    <glyph glyph-name="Ldot" unicode="&#x13f;" horiz-adv-x="1175" 
d="M1045 170q13 0 21.5 -8t8.5 -22v-110q0 -14 -8.5 -22t-21.5 -8h-845q-14 0 -22 8t-8 22v1340q0 14 8 22t22 8h127q13 0 21.5 -8t8.5 -22v-1200h688zM729 631q-59 0 -100 41t-41 100t41 101t100 42t100 -42t41 -101t-41 -100t-100 -41z" />
    <glyph glyph-name="ldot" unicode="&#x140;" horiz-adv-x="1209" 
d="M1020 156q14 0 22 -8t8 -22v-96q0 -14 -8 -22t-22 -8h-865q-13 0 -21.5 8t-8.5 22v96q0 14 8.5 22t21.5 8h364v1089h-342q-13 0 -21.5 8.5t-8.5 21.5v95q0 14 8.5 22t21.5 8h492q13 0 21.5 -8t8.5 -22v-1214h321zM953 911q59 0 100 -42t41 -101t-41 -100t-100 -41
t-100 41t-41 100t41 101t100 42z" />
    <glyph glyph-name="Lslash" unicode="&#x141;" 
d="M1033 170q13 0 21.5 -8t8.5 -22v-110q0 -14 -8.5 -22t-21.5 -8h-765q-14 0 -22 8t-8 22v455l-107 -104q-15 -15 -25.5 -9.5t-10.5 25.5v118q0 22 16 38l127 123v694q0 14 8 22t22 8h127q13 0 21.5 -8t8.5 -22v-512l181 176q15 14 25.5 9t10.5 -25v-116q0 -22 -16 -38
l-201 -196v-498h608z" />
    <glyph glyph-name="lslash" unicode="&#x142;" 
d="M1040 156q14 0 22 -8t8 -22v-96q0 -14 -8 -22t-22 -8h-865q-13 0 -21.5 8t-8.5 22v96q0 14 8.5 22t21.5 8h364v384l-164 -160v172l164 160v533h-342q-13 0 -21.5 8.5t-8.5 21.5v95q0 14 8.5 22t21.5 8h492q13 0 21.5 -8t8.5 -22v-482l192 187l1 -170l-193 -189v-560h321z
" />
    <glyph glyph-name="Nacute" unicode="&#x143;" horiz-adv-x="1396" 
d="M655 1510q-17 0 -24 9t0 25l120 252q11 24 34 24h96q17 0 24 -9t0 -25l-120 -252q-11 -24 -34 -24h-96zM1196 1400q14 0 22 -8t8 -22v-1340q0 -27 -25 -30h-164q-25 0 -36 20l-644 1104v-1094q0 -14 -8.5 -22t-21.5 -8h-127q-14 0 -22 8t-8 22v1340q0 27 26 30h163
q25 0 36 -20l644 -1103v1093q0 14 8.5 22t21.5 8h127z" />
    <glyph glyph-name="nacute" unicode="&#x144;" horiz-adv-x="1221" 
d="M568 1090q-17 0 -24 9t0 25l120 252q11 24 34 24h96q17 0 24 -9t0 -25l-120 -252q-11 -24 -34 -24h-96zM704 1002q166 0 261.5 -102t95.5 -294v-576q0 -14 -8.5 -22t-21.5 -8h-120q-13 0 -21.5 8t-8.5 22v556q0 126 -61 188.5t-176 62.5q-72 0 -134 -28t-97 -66.5
t-54 -72.5t-19 -52v-588q0 -14 -8 -22t-22 -8h-120q-14 0 -22 8t-8 22v920q0 14 8 22t22 8h112q27 0 30 -30l8 -135h20q49 80 137 133.5t207 53.5z" />
    <glyph glyph-name="Ncommaaccent" unicode="&#x145;" horiz-adv-x="1396" 
d="M1196 1400q14 0 22 -8t8 -22v-1340q0 -27 -25 -30h-164q-25 0 -36 20l-644 1104v-1094q0 -14 -8.5 -22t-21.5 -8h-127q-14 0 -22 8t-8 22v1340q0 27 26 30h163q25 0 36 -20l644 -1103v1093q0 14 8.5 22t21.5 8h127zM913 -167q13 0 21 -7.5t8 -20.5v-46q0 -115 -20 -234.5
t-49 -196.5q-8 -21 -33 -21h-62q-30 0 -25 31q13 70 20.5 173t5.5 176h-240q-28 0 -28 28v90q0 28 28 28h374z" />
    <glyph glyph-name="ncommaaccent" unicode="&#x146;" horiz-adv-x="1221" 
d="M704 1002q166 0 261.5 -102t95.5 -294v-576q0 -14 -8.5 -22t-21.5 -8h-120q-13 0 -21.5 8t-8.5 22v556q0 126 -61 188.5t-176 62.5q-72 0 -134 -28t-97 -66.5t-54 -72.5t-19 -52v-588q0 -14 -8 -22t-22 -8h-120q-14 0 -22 8t-8 22v920q0 14 8 22t22 8h112q27 0 30 -30
l8 -135h20q49 80 137 133.5t207 53.5zM826 -167q13 0 21 -7.5t8 -20.5v-46q0 -115 -20 -234.5t-49 -196.5q-8 -21 -33 -21h-62q-30 0 -25 31q13 70 20.5 173t5.5 176h-240q-28 0 -28 28v90q0 28 28 28h374z" />
    <glyph glyph-name="Ncaron" unicode="&#x147;" horiz-adv-x="1396" 
d="M575 1565l-227 255q-12 14 -7 25t24 11h124q19 0 36 -16l173 -172l174 172q16 16 36 16h124q19 0 23.5 -11t-7.5 -25l-227 -255q-12 -16 -36 -16h-174q-22 0 -36 16zM1196 1400q14 0 22 -8t8 -22v-1340q0 -27 -25 -30h-164q-25 0 -36 20l-644 1104v-1094q0 -14 -8.5 -22
t-21.5 -8h-127q-14 0 -22 8t-8 22v1340q0 27 26 30h163q25 0 36 -20l644 -1103v1093q0 14 8.5 22t21.5 8h127z" />
    <glyph glyph-name="ncaron" unicode="&#x148;" horiz-adv-x="1221" 
d="M488 1145l-227 255q-12 14 -7 25t24 11h124q19 0 36 -16l173 -172l174 172q16 16 36 16h124q19 0 23.5 -11t-7.5 -25l-227 -255q-12 -16 -36 -16h-174q-22 0 -36 16zM704 1002q166 0 261.5 -102t95.5 -294v-576q0 -14 -8.5 -22t-21.5 -8h-120q-13 0 -21.5 8t-8.5 22v556
q0 126 -61 188.5t-176 62.5q-72 0 -134 -28t-97 -66.5t-54 -72.5t-19 -52v-588q0 -14 -8 -22t-22 -8h-120q-14 0 -22 8t-8 22v920q0 14 8 22t22 8h112q27 0 30 -30l8 -135h20q49 80 137 133.5t207 53.5z" />
    <glyph glyph-name="Eng" unicode="&#x14a;" horiz-adv-x="1396" 
d="M1196 1400q14 0 22 -8t8 -22v-1370q0 -213 -127.5 -311.5t-380.5 -98.5v173q148 0 227 47.5t92 148.5l-680 1165v-1094q0 -14 -8.5 -22t-21.5 -8h-127q-14 0 -22 8t-8 22v1340q0 27 26 30h163q25 0 36 -20l644 -1103v1093q0 14 8.5 22t21.5 8h127z" />
    <glyph glyph-name="eng" unicode="&#x14b;" horiz-adv-x="1221" 
d="M704 1002q166 0 261.5 -102t95.5 -294v-593q0 -202 -91 -305.5t-252 -103.5q-18 0 -23 17l-36 124q-3 9 1.5 15.5t14.5 6.5q100 0 153 67t53 199v553q0 126 -61 188.5t-176 62.5q-72 0 -134 -28t-97 -66.5t-54 -72.5t-19 -52v-588q0 -14 -8 -22t-22 -8h-120q-14 0 -22 8
t-8 22v920q0 14 8 22t22 8h112q27 0 30 -30l8 -135h20q49 80 137 133.5t207 53.5z" />
    <glyph glyph-name="Omacron" unicode="&#x14c;" horiz-adv-x="1693" 
d="M1101 1816q13 0 21.5 -8t8.5 -22v-85q0 -13 -8.5 -21.5t-21.5 -8.5h-510q-13 0 -21.5 8.5t-8.5 21.5v85q0 14 8.5 22t21.5 8h510zM847 -26q-195 0 -360 96t-261 261.5t-96 362.5q0 148 57 282t153 230.5t228.5 153t278.5 56.5q117 0 226 -36t197 -102.5t154.5 -155
t102.5 -199t36 -229.5q0 -197 -96 -362.5t-261 -261.5t-359 -96zM847 151q146 0 268.5 72t193 197t70.5 274q0 150 -70.5 275.5t-193 197.5t-268.5 72q-110 0 -208.5 -42.5t-170 -115t-113 -174t-41.5 -213.5q0 -227 155 -385t378 -158z" />
    <glyph glyph-name="omacron" unicode="&#x14d;" horiz-adv-x="1279" 
d="M894 1396q14 0 22 -8t8 -22v-85q0 -13 -8 -21.5t-22 -8.5h-510q-14 0 -22 8.5t-8 21.5v85q0 14 8 22t22 8h510zM640 -26q-106 0 -201 40t-164 108.5t-109.5 164t-40.5 201.5q0 142 68.5 260t187 186t259.5 68q214 0 364 -149.5t150 -364.5q0 -216 -150 -365t-364 -149z
M640 142q143 0 241 100.5t98 245.5q0 144 -98.5 245.5t-240.5 101.5q-143 0 -241.5 -101.5t-98.5 -245.5q0 -145 98.5 -245.5t241.5 -100.5z" />
    <glyph glyph-name="Ohungarumlaut" unicode="&#x150;" horiz-adv-x="1693" 
d="M854 1820q17 0 24 -9t0 -25l-120 -252q-11 -24 -34 -24h-96q-17 0 -24 9t0 25l120 252q11 24 34 24h96zM1164 1820q17 0 24 -9t0 -25l-120 -252q-11 -24 -34 -24h-96q-17 0 -24 9t0 25l120 252q11 24 34 24h96zM847 -26q-195 0 -360 96t-261 261.5t-96 362.5
q0 148 57 282t153 230.5t228.5 153t278.5 56.5q117 0 226 -36t197 -102.5t154.5 -155t102.5 -199t36 -229.5q0 -197 -96 -362.5t-261 -261.5t-359 -96zM847 151q146 0 268.5 72t193 197t70.5 274q0 150 -70.5 275.5t-193 197.5t-268.5 72q-110 0 -208.5 -42.5t-170 -115
t-113 -174t-41.5 -213.5q0 -227 155 -385t378 -158z" />
    <glyph glyph-name="ohungarumlaut" unicode="&#x151;" horiz-adv-x="1279" 
d="M647 1400q17 0 24 -9t0 -25l-120 -252q-11 -24 -34 -24h-96q-17 0 -24 9t0 25l120 252q11 24 34 24h96zM957 1400q17 0 24 -9t0 -25l-120 -252q-11 -24 -34 -24h-96q-17 0 -24 9t0 25l120 252q11 24 34 24h96zM640 -26q-106 0 -201 40t-164 108.5t-109.5 164t-40.5 201.5
q0 142 68.5 260t187 186t259.5 68q214 0 364 -149.5t150 -364.5q0 -216 -150 -365t-364 -149zM640 142q143 0 241 100.5t98 245.5q0 144 -98.5 245.5t-240.5 101.5q-143 0 -241.5 -101.5t-98.5 -245.5q0 -145 98.5 -245.5t241.5 -100.5z" />
    <glyph glyph-name="OE" unicode="&#x152;" 
d="M1125 170q13 0 21.5 -8t8.5 -22v-110q0 -14 -8.5 -22t-21.5 -8h-505q-109 0 -185 16t-138 57.5t-98 114t-55 182.5t-19 266v119q0 130 12.5 228.5t39.5 170t65.5 119t96 76t124.5 40t157 11.5h503q13 0 21.5 -8t8.5 -22v-110q0 -14 -8.5 -22t-21.5 -8h-316v-408h263
q14 0 22 -8t8 -22v-110q0 -14 -8 -22t-22 -8h-263v-482h318zM620 183v1035q-59 0 -97.5 -5t-77 -21.5t-61 -47.5t-41 -82t-26 -127t-7.5 -181v-118q0 -105 7.5 -180t26 -125t40.5 -79.5t61.5 -44.5t76.5 -19.5t98 -4.5z" />
    <glyph glyph-name="oe" unicode="&#x153;" horiz-adv-x="2035" 
d="M1442 1002q141 0 249.5 -68t163.5 -177t55 -239q0 -58 -11.5 -81.5t-49.5 -23.5h-700q-5 -31 -12 -59q33 -105 123 -166.5t218 -61.5q144 0 258 93q25 20 43 3l52 -52q23 -24 1 -46q-152 -150 -373 -150q-131 0 -237.5 52.5t-174.5 145.5q-72 -93 -178 -145.5t-229 -52.5
q-106 0 -201 40t-164 108.5t-109.5 164t-40.5 201.5q0 142 68.5 260t187 186t259.5 68q123 0 228.5 -52.5t177.5 -144.5q67 93 169.5 145t226.5 52zM1442 846q-110 0 -191 -62t-113 -167q9 -33 12 -66h602q-9 130 -94.5 212.5t-215.5 82.5zM640 142q111 0 198 63.5
t122 165.5q-12 57 -12 117t12 117q-35 102 -122 166t-198 64q-143 0 -241.5 -101.5t-98.5 -245.5q0 -145 98.5 -245.5t241.5 -100.5z" />
    <glyph glyph-name="Racute" unicode="&#x154;" horiz-adv-x="1300" 
d="M585 1510q-17 0 -24 9t0 25l120 252q11 24 34 24h96q17 0 24 -9t0 -25l-120 -252q-11 -24 -34 -24h-96zM904 543l268 -508q8 -16 1.5 -25.5t-23.5 -9.5h-132q-23 0 -35 22l-258 499h-29h-339v-491q0 -14 -8.5 -22t-21.5 -8h-127q-14 0 -22 8t-8 22v1340q0 14 8 22t22 8
h496q269 0 386.5 -109.5t117.5 -329.5q0 -172 -70 -276t-226 -142zM357 1230v-539h352q75 0 128 11.5t96 40.5t64.5 83.5t21.5 134.5t-21.5 134t-64.5 83t-96 40.5t-128 11.5h-352z" />
    <glyph glyph-name="racute" unicode="&#x155;" horiz-adv-x="1209" 
d="M562 1090q-17 0 -24 9t0 25l120 252q11 24 34 24h96q17 0 24 -9t0 -25l-120 -252q-11 -24 -34 -24h-96zM717 1002q171 0 274 -95t103 -273q0 -29 -30 -32l-120 -16q-28 -3 -31 27q-4 112 -67.5 167t-174.5 55q-78 0 -145 -30t-105 -72.5t-59.5 -83t-21.5 -68.5v-551
q0 -14 -8 -22t-22 -8h-120q-14 0 -22 8t-8 22v920q0 14 8 22t22 8h112q27 0 30 -30l8 -135h23q53 79 145.5 133t208.5 54z" />
    <glyph glyph-name="Rcommaaccent" unicode="&#x156;" horiz-adv-x="1300" 
d="M904 543l268 -508q8 -16 1.5 -25.5t-23.5 -9.5h-132q-23 0 -35 22l-258 499h-29h-339v-491q0 -14 -8.5 -22t-21.5 -8h-127q-14 0 -22 8t-8 22v1340q0 14 8 22t22 8h496q269 0 386.5 -109.5t117.5 -329.5q0 -172 -70 -276t-226 -142zM357 1230v-539h352q75 0 128 11.5
t96 40.5t64.5 83.5t21.5 134.5t-21.5 134t-64.5 83t-96 40.5t-128 11.5h-352zM843 -167q13 0 21 -7.5t8 -20.5v-46q0 -115 -20 -234.5t-49 -196.5q-8 -21 -33 -21h-62q-30 0 -25 31q13 70 20.5 173t5.5 176h-240q-28 0 -28 28v90q0 28 28 28h374z" />
    <glyph glyph-name="rcommaaccent" unicode="&#x157;" horiz-adv-x="1209" 
d="M717 1002q171 0 274 -95t103 -273q0 -29 -30 -32l-120 -16q-28 -3 -31 27q-4 112 -67.5 167t-174.5 55q-78 0 -145 -30t-105 -72.5t-59.5 -83t-21.5 -68.5v-551q0 -14 -8 -22t-22 -8h-120q-14 0 -22 8t-8 22v920q0 14 8 22t22 8h112q27 0 30 -30l8 -135h23
q53 79 145.5 133t208.5 54zM462 -167q13 0 21 -7.5t8 -20.5v-46q0 -115 -20 -234.5t-49 -196.5q-8 -21 -33 -21h-62q-30 0 -25 31q13 70 20.5 173t5.5 176h-240q-28 0 -28 28v90q0 28 28 28h374z" />
    <glyph glyph-name="Rcaron" unicode="&#x158;" horiz-adv-x="1300" 
d="M505 1565l-227 255q-12 14 -7 25t24 11h124q19 0 36 -16l173 -172l174 172q16 16 36 16h124q19 0 23.5 -11t-7.5 -25l-227 -255q-12 -16 -36 -16h-174q-22 0 -36 16zM904 543l268 -508q8 -16 1.5 -25.5t-23.5 -9.5h-132q-23 0 -35 22l-258 499h-29h-339v-491
q0 -14 -8.5 -22t-21.5 -8h-127q-14 0 -22 8t-8 22v1340q0 14 8 22t22 8h496q269 0 386.5 -109.5t117.5 -329.5q0 -172 -70 -276t-226 -142zM357 1230v-539h352q75 0 128 11.5t96 40.5t64.5 83.5t21.5 134.5t-21.5 134t-64.5 83t-96 40.5t-128 11.5h-352z" />
    <glyph glyph-name="rcaron" unicode="&#x159;" horiz-adv-x="1209" 
d="M482 1145l-227 255q-12 14 -7 25t24 11h124q19 0 36 -16l173 -172l174 172q16 16 36 16h124q19 0 23.5 -11t-7.5 -25l-227 -255q-12 -16 -36 -16h-174q-22 0 -36 16zM717 1002q171 0 274 -95t103 -273q0 -29 -30 -32l-120 -16q-28 -3 -31 27q-4 112 -67.5 167t-174.5 55
q-78 0 -145 -30t-105 -72.5t-59.5 -83t-21.5 -68.5v-551q0 -14 -8 -22t-22 -8h-120q-14 0 -22 8t-8 22v920q0 14 8 22t22 8h112q27 0 30 -30l8 -135h23q53 79 145.5 133t208.5 54z" />
    <glyph glyph-name="Sacute" unicode="&#x15a;" horiz-adv-x="1241" 
d="M804 1820q17 0 24 -9t0 -25l-120 -252q-11 -24 -34 -24h-96q-17 0 -24 9t0 25l120 252q11 24 34 24h96zM610 799q65 -13 115 -26t107 -32.5t98 -42t81 -55.5t65 -71.5t40 -91t15 -114.5q0 -186 -128.5 -291t-386.5 -105q-230 0 -360 86t-146 256q-2 15 6.5 25.5
t21.5 10.5h122q26 0 30 -30q13 -83 98 -130.5t228 -47.5q331 0 331 224q0 44 -9 77.5t-31.5 59t-47 43.5t-68 34t-81 26t-100.5 25q-85 19 -147.5 39.5t-126 54t-103.5 75.5t-65.5 105t-25.5 142q0 174 117.5 273t344.5 99q218 0 343 -84t142 -251q3 -30 -28 -30h-113
q-27 0 -30 24q-12 79 -94 126.5t-219 47.5q-132 0 -207.5 -53t-75.5 -152q0 -100 69 -157.5t219 -88.5z" />
    <glyph glyph-name="sacute" unicode="&#x15b;" horiz-adv-x="1129" 
d="M745 1400q17 0 24 -9t0 -25l-120 -252q-11 -24 -34 -24h-96q-17 0 -24 9t0 25l120 252q11 24 34 24h96zM563 559q190 -25 268 -51q152 -53 177 -179q6 -27 6 -59q0 -136 -113 -216t-336 -80q-202 0 -320 70t-134 229q-3 30 29 30h116q26 0 29 -23q22 -153 279 -153
q132 0 202.5 36t70.5 107q0 38 -19 64.5t-60 43t-83.5 25t-111.5 17.5q-58 7 -94 13t-87 17t-82.5 24t-67 35t-55 49t-33 65.5t-13.5 86.5q0 134 104.5 213t312.5 79q415 0 444 -298q3 -30 -28 -30h-116q-26 0 -29 23q-22 153 -270 153q-243 0 -243 -143q0 -30 12.5 -53
t32 -37.5t55 -26t70 -18t87.5 -13.5z" />
    <glyph glyph-name="Scedilla" unicode="&#x15e;" horiz-adv-x="1241" 
d="M1131 366q0 -175 -114 -279t-343 -116l-46 -46q69 -6 117.5 -48t48.5 -109q0 -80 -48.5 -129.5t-118 -63t-148.5 -0.5q-18 3 -18 22v65q0 10 6 15.5t16 4.5q81 -12 128 9t47 66q0 42 -51 60.5t-122 -8.5q-11 -4 -17.5 -0.5t-6.5 14.5v64q0 11 10 24l60 62
q-192 15 -299.5 100t-121.5 239q-2 15 6.5 25.5t21.5 10.5h122q26 0 30 -30q13 -83 98 -130.5t228 -47.5q331 0 331 224q0 44 -9 77.5t-31.5 59t-47 43.5t-68 34t-81 26t-100.5 25q-85 19 -147.5 39.5t-126 54t-103.5 75.5t-65.5 105t-25.5 142q0 174 117.5 273t344.5 99
q218 0 343 -84t142 -251q3 -30 -28 -30h-113q-27 0 -30 24q-12 79 -94 126.5t-219 47.5q-132 0 -207.5 -53t-75.5 -152q0 -100 69 -157.5t219 -88.5q65 -13 115 -26t107 -32.5t98 -42t81 -55.5t65 -71.5t40 -91t15 -114.5z" />
    <glyph glyph-name="scedilla" unicode="&#x15f;" horiz-adv-x="1129" 
d="M1014 270q0 -127 -99 -206t-296 -89l-50 -50q69 -6 117.5 -48t48.5 -109q0 -80 -48.5 -129.5t-118 -63t-148.5 -0.5q-18 3 -18 22v65q0 10 6 15.5t16 4.5q81 -12 128 9t47 66q0 42 -51.5 60.5t-121.5 -8.5q-10 -4 -17 -0.5t-7 14.5v64q0 11 10 24l64 66q-338 30 -365 296
q-3 30 29 30h116q26 0 29 -23q22 -153 279 -153q132 0 202.5 36t70.5 107q0 38 -19 64.5t-60 43t-83.5 25t-111.5 17.5q-58 7 -94 13t-87 17t-82.5 24t-67 35t-55 49t-33 65.5t-13.5 86.5q0 134 104.5 213t312.5 79q415 0 444 -298q3 -30 -28 -30h-116q-26 0 -29 23
q-22 153 -270 153q-243 0 -243 -143q0 -30 12.5 -53t32 -37.5t55 -26t70 -18t87.5 -13.5q190 -25 268 -51q152 -53 177 -179q6 -27 6 -59z" />
    <glyph glyph-name="Scaron" unicode="&#x160;" horiz-adv-x="1241" 
d="M708 1549h-174q-22 0 -36 16l-227 255q-12 14 -7 25t24 11h124q19 0 36 -16l173 -172l174 172q16 16 36 16h124q19 0 23.5 -11t-7.5 -25l-227 -255q-12 -16 -36 -16zM610 799q65 -13 115 -26t107 -32.5t98 -42t81 -55.5t65 -71.5t40 -91t15 -114.5q0 -186 -128.5 -291
t-386.5 -105q-230 0 -360 86t-146 256q-2 15 6.5 25.5t21.5 10.5h122q26 0 30 -30q13 -83 98 -130.5t228 -47.5q331 0 331 224q0 44 -9 77.5t-31.5 59t-47 43.5t-68 34t-81 26t-100.5 25q-85 19 -147.5 39.5t-126 54t-103.5 75.5t-65.5 105t-25.5 142q0 174 117.5 273
t344.5 99q218 0 343 -84t142 -251q3 -30 -28 -30h-113q-27 0 -30 24q-12 79 -94 126.5t-219 47.5q-132 0 -207.5 -53t-75.5 -152q0 -100 69 -157.5t219 -88.5z" />
    <glyph glyph-name="scaron" unicode="&#x161;" horiz-adv-x="1129" 
d="M649 1129h-174q-22 0 -36 16l-227 255q-12 14 -7 25t24 11h124q19 0 36 -16l173 -172l174 172q16 16 36 16h124q19 0 23.5 -11t-7.5 -25l-227 -255q-12 -16 -36 -16zM563 559q190 -25 268 -51q152 -53 177 -179q6 -27 6 -59q0 -136 -113 -216t-336 -80q-202 0 -320 70
t-134 229q-3 30 29 30h116q26 0 29 -23q22 -153 279 -153q132 0 202.5 36t70.5 107q0 38 -19 64.5t-60 43t-83.5 25t-111.5 17.5q-58 7 -94 13t-87 17t-82.5 24t-67 35t-55 49t-33 65.5t-13.5 86.5q0 134 104.5 213t312.5 79q415 0 444 -298q3 -30 -28 -30h-116
q-26 0 -29 23q-22 153 -270 153q-243 0 -243 -143q0 -30 12.5 -53t32 -37.5t55 -26t70 -18t87.5 -13.5z" />
    <glyph glyph-name="uni0162" unicode="&#x162;" horiz-adv-x="1275" 
d="M1150 1400q14 0 22 -8t8 -22v-110q0 -14 -8 -22t-22 -8h-419v-1200q0 -14 -8.5 -22t-21.5 -8h19l-75 -75q69 -6 117.5 -48t48.5 -109q0 -80 -48.5 -129.5t-118 -63t-148.5 -0.5q-18 3 -18 22v65q0 10 6 15.5t16 4.5q81 -12 128 9t47 66q0 42 -51.5 60.5t-121.5 -8.5
q-10 -4 -17 -0.5t-7 14.5v64q0 11 10 24l86 89q-14 0 -22 8t-8 22v1200h-419q-13 0 -21.5 8t-8.5 22v110q0 14 8.5 22t21.5 8h1025z" />
    <glyph glyph-name="uni0163" unicode="&#x163;" horiz-adv-x="1202" 
d="M1093 158q18 -21 1 -40q-45 -51 -128 -92.5t-198 -41.5q-47 0 -92 6l-65 -65q69 -6 117.5 -48t48.5 -109q0 -80 -48.5 -129.5t-118 -63t-148.5 -0.5q-18 3 -18 22v65q0 10 6 15.5t16 4.5q81 -12 128 9t47 66q0 42 -51.5 60.5t-121.5 -8.5q-10 -4 -17 -0.5t-7 14.5v64
q0 11 10 24l86 89h90q-249 64 -249 380v445h-256q-13 0 -21.5 8.5t-8.5 21.5v95q0 14 8.5 22t21.5 8h256v260q0 14 8.5 22t21.5 8h120q13 0 21.5 -8t8.5 -22v-260h416q13 0 21.5 -8t8.5 -22v-95q0 -13 -8.5 -21.5t-21.5 -8.5h-416v-432q0 -245 234 -245q112 0 201 75
q22 21 42 -2z" />
    <glyph glyph-name="Tcaron" unicode="&#x164;" horiz-adv-x="1275" 
d="M725 1549h-174q-22 0 -36 16l-227 255q-12 14 -7 25t24 11h124q19 0 36 -16l173 -172l174 172q16 16 36 16h124q19 0 23.5 -11t-7.5 -25l-227 -255q-12 -16 -36 -16zM1150 1400q14 0 22 -8t8 -22v-110q0 -14 -8 -22t-22 -8h-419v-1200q0 -14 -8.5 -22t-21.5 -8h-127
q-14 0 -22 8t-8 22v1200h-419q-13 0 -21.5 8t-8.5 22v110q0 14 8.5 22t21.5 8h1025z" />
    <glyph glyph-name="tcaron" unicode="&#x165;" horiz-adv-x="1202" 
d="M785 1304q-17 0 -24 9t0 25l120 252q11 24 34 24h96q17 0 24 -9t0 -25l-120 -252q-11 -24 -34 -24h-96zM1093 158q18 -21 1 -40q-45 -51 -128 -92.5t-198 -41.5q-63 0 -117 10.5t-105 38.5t-86.5 71.5t-57 113.5t-21.5 162v445h-256q-13 0 -21.5 8.5t-8.5 21.5v95
q0 14 8.5 22t21.5 8h256v260q0 14 8.5 22t21.5 8h120q13 0 21.5 -8t8.5 -22v-260h416q13 0 21.5 -8t8.5 -22v-95q0 -13 -8.5 -21.5t-21.5 -8.5h-416v-432q0 -245 234 -245q112 0 201 75q22 21 42 -2z" />
    <glyph glyph-name="Tbar" unicode="&#x166;" horiz-adv-x="1275" 
d="M1150 1400q14 0 22 -8t8 -22v-110q0 -14 -8 -22t-22 -8h-419v-250h164q13 0 21.5 -8t8.5 -22v-85q0 -13 -8.5 -21.5t-21.5 -8.5h-164v-805q0 -14 -8.5 -22t-21.5 -8h-127q-14 0 -22 8t-8 22v805h-159q-13 0 -21.5 8.5t-8.5 21.5v85q0 14 8.5 22t21.5 8h159v250h-419
q-13 0 -21.5 8t-8.5 22v110q0 14 8.5 22t21.5 8h1025z" />
    <glyph glyph-name="tbar" unicode="&#x167;" horiz-adv-x="1202" 
d="M1093 158q18 -21 1 -40q-45 -51 -128 -92.5t-198 -41.5q-63 0 -117 10.5t-105 38.5t-86.5 71.5t-57 113.5t-21.5 162v168h-256q-13 0 -21.5 8t-8.5 22v91q0 13 8.5 21.5t21.5 8.5h256v126h-256q-13 0 -21.5 8.5t-8.5 21.5v95q0 14 8.5 22t21.5 8h256v260q0 14 8.5 22
t21.5 8h120q13 0 21.5 -8t8.5 -22v-260h416q13 0 21.5 -8t8.5 -22v-95q0 -13 -8.5 -21.5t-21.5 -8.5h-416v-126h406q13 0 21.5 -8.5t8.5 -21.5v-91q0 -14 -8.5 -22t-21.5 -8h-406v-155q0 -245 234 -245q112 0 201 75q22 21 42 -2z" />
    <glyph glyph-name="Umacron" unicode="&#x16a;" horiz-adv-x="1403" 
d="M956 1816q14 0 22 -8t8 -22v-85q0 -13 -8 -21.5t-22 -8.5h-510q-14 0 -22 8.5t-8 21.5v85q0 14 8 22t22 8h510zM1238 1400q14 0 22 -8t8 -22v-804q0 -293 -149 -444t-418 -151q-268 0 -417 151t-149 444v804q0 14 8.5 22t21.5 8h127q14 0 22 -8t8 -22v-804
q0 -207 101 -312.5t278 -105.5q178 0 279 105.5t101 312.5v804q0 14 8.5 22t21.5 8h127z" />
    <glyph glyph-name="umacron" unicode="&#x16b;" horiz-adv-x="1211" 
d="M346 1251q-14 0 -22 8.5t-8 21.5v85q0 14 8 22t22 8h510q14 0 22 -8t8 -22v-85q0 -13 -8 -21.5t-22 -8.5h-510zM1021 980q13 0 21.5 -8t8.5 -22v-920q0 -14 -8.5 -22t-21.5 -8h-112q-27 0 -30 30l-8 136h-20q-49 -80 -136.5 -134t-204.5 -54q-166 0 -263 102.5t-97 294.5
v575q0 14 8 22t22 8h120q14 0 22 -8t8 -22v-555q0 -127 63.5 -190.5t184.5 -63.5q68 0 127.5 28.5t93.5 67.5t53 73.5t19 52.5v587q0 14 8.5 22t21.5 8h120z" />
    <glyph glyph-name="Ubreve" unicode="&#x16c;" horiz-adv-x="1403" 
d="M868 1802q6 28 32 28h67q32 0 29 -30q-12 -114 -90 -187t-205 -73t-205 73t-89 187q-3 30 28 30h68q26 0 32 -28q12 -57 55.5 -94.5t110.5 -37.5q68 0 111.5 37.5t55.5 94.5zM1238 1400q14 0 22 -8t8 -22v-804q0 -293 -149 -444t-418 -151q-268 0 -417 151t-149 444v804
q0 14 8.5 22t21.5 8h127q14 0 22 -8t8 -22v-804q0 -207 101 -312.5t278 -105.5q178 0 279 105.5t101 312.5v804q0 14 8.5 22t21.5 8h127z" />
    <glyph glyph-name="ubreve" unicode="&#x16d;" horiz-adv-x="1211" 
d="M601 1120q-127 0 -205 73t-89 187q-3 30 28 30h68q26 0 32 -28q12 -57 55.5 -94.5t110.5 -37.5q68 0 111.5 37.5t55.5 94.5q6 28 32 28h67q32 0 29 -30q-12 -114 -90 -187t-205 -73zM1021 980q13 0 21.5 -8t8.5 -22v-920q0 -14 -8.5 -22t-21.5 -8h-112q-27 0 -30 30
l-8 136h-20q-49 -80 -136.5 -134t-204.5 -54q-166 0 -263 102.5t-97 294.5v575q0 14 8 22t22 8h120q14 0 22 -8t8 -22v-555q0 -127 63.5 -190.5t184.5 -63.5q68 0 127.5 28.5t93.5 67.5t53 73.5t19 52.5v587q0 14 8.5 22t21.5 8h120z" />
    <glyph glyph-name="Uring" unicode="&#x16e;" horiz-adv-x="1403" 
d="M701 1881q76 0 129 -53.5t53 -127.5t-53 -127.5t-129 -53.5q-77 0 -130 53.5t-53 127.5t53 127.5t130 53.5zM701 1630q30 0 51 20t21 50t-21 50.5t-51 20.5q-31 0 -52 -20t-21 -51q0 -30 21 -50t52 -20zM1238 1400q14 0 22 -8t8 -22v-804q0 -293 -149 -444t-418 -151
q-268 0 -417 151t-149 444v804q0 14 8.5 22t21.5 8h127q14 0 22 -8t8 -22v-804q0 -207 101 -312.5t278 -105.5q178 0 279 105.5t101 312.5v804q0 14 8.5 22t21.5 8h127z" />
    <glyph glyph-name="uring" unicode="&#x16f;" horiz-adv-x="1211" 
d="M601 1099q-77 0 -130 53.5t-53 127.5t53 127.5t130 53.5q76 0 129 -53.5t53 -127.5t-53 -127.5t-129 -53.5zM601 1351q-31 0 -52 -20t-21 -51q0 -30 21 -50t52 -20q30 0 51 20t21 50t-21 50.5t-51 20.5zM1021 980q13 0 21.5 -8t8.5 -22v-920q0 -14 -8.5 -22t-21.5 -8
h-112q-27 0 -30 30l-8 136h-20q-49 -80 -136.5 -134t-204.5 -54q-166 0 -263 102.5t-97 294.5v575q0 14 8 22t22 8h120q14 0 22 -8t8 -22v-555q0 -127 63.5 -190.5t184.5 -63.5q68 0 127.5 28.5t93.5 67.5t53 73.5t19 52.5v587q0 14 8.5 22t21.5 8h120z" />
    <glyph glyph-name="Uhungarumlaut" unicode="&#x170;" horiz-adv-x="1403" 
d="M709 1820q17 0 24 -9t0 -25l-120 -252q-11 -24 -34 -24h-96q-17 0 -24 9t0 25l120 252q11 24 34 24h96zM1019 1820q17 0 24 -9t0 -25l-120 -252q-11 -24 -34 -24h-96q-17 0 -24 9t0 25l120 252q11 24 34 24h96zM1238 1400q14 0 22 -8t8 -22v-804q0 -293 -149 -444
t-418 -151q-268 0 -417 151t-149 444v804q0 14 8.5 22t21.5 8h127q14 0 22 -8t8 -22v-804q0 -207 101 -312.5t278 -105.5q178 0 279 105.5t101 312.5v804q0 14 8.5 22t21.5 8h127z" />
    <glyph glyph-name="uhungarumlaut" unicode="&#x171;" horiz-adv-x="1211" 
d="M383 1090q-17 0 -24 9t0 25l120 252q11 24 34 24h96q17 0 24 -9t0 -25l-120 -252q-11 -24 -34 -24h-96zM693 1090q-17 0 -24 9t0 25l120 252q11 24 34 24h96q17 0 24 -9t0 -25l-120 -252q-11 -24 -34 -24h-96zM1021 980q13 0 21.5 -8t8.5 -22v-920q0 -14 -8.5 -22
t-21.5 -8h-112q-27 0 -30 30l-8 136h-20q-49 -80 -136.5 -134t-204.5 -54q-166 0 -263 102.5t-97 294.5v575q0 14 8 22t22 8h120q14 0 22 -8t8 -22v-555q0 -127 63.5 -190.5t184.5 -63.5q68 0 127.5 28.5t93.5 67.5t53 73.5t19 52.5v587q0 14 8.5 22t21.5 8h120z" />
    <glyph glyph-name="Uogonek" unicode="&#x172;" horiz-adv-x="1403" 
d="M1238 1400q14 0 22 -8t8 -22v-804q0 -271 -128 -421t-361 -171q-120 -63 -120 -153q0 -58 42.5 -84.5t119.5 -9.5v-123q-38 -17 -90.5 -17.5t-104 16t-87 65t-35.5 120.5q0 107 94 189q-222 28 -342.5 176.5t-120.5 412.5v804q0 14 8.5 22t21.5 8h127q14 0 22 -8t8 -22
v-804q0 -207 101 -312.5t278 -105.5q178 0 279 105.5t101 312.5v804q0 14 8.5 22t21.5 8h127z" />
    <glyph glyph-name="uogonek" unicode="&#x173;" horiz-adv-x="1240" 
d="M1060 0q-99 0 -157.5 -54.5t-58.5 -120.5q0 -61 42.5 -88t119.5 -10v-123q-30 -14 -70.5 -18t-84 5.5t-80 31t-60 64.5t-23.5 101q0 87 53 151.5t137 104.5l-7 122h-20q-49 -80 -136.5 -134t-204.5 -54q-166 0 -263 102.5t-97 294.5v575q0 14 8 22t22 8h120q14 0 22 -8
t8 -22v-555q0 -127 63.5 -190.5t184.5 -63.5q68 0 127.5 28.5t93.5 67.5t53 73.5t19 52.5v587q0 14 8.5 22t21.5 8h120q13 0 21.5 -8t8.5 -22v-859q8 1 24 1z" />
    <glyph glyph-name="Wcircumflex" unicode="&#x174;" horiz-adv-x="1988" 
d="M661 1549q-19 0 -24 11t7 25l227 255q14 16 36 16h174q24 0 36 -16l227 -255q12 -14 7.5 -25t-23.5 -11h-124q-20 0 -36 16l-174 172l-173 -172q-17 -16 -36 -16h-124zM1867 1400q33 0 24 -34l-357 -1342q-6 -24 -36 -24h-153q-28 0 -36 24l-317 1057l-317 -1057
q-7 -24 -35 -24h-154q-30 0 -36 24l-353 1342q-10 34 24 34h129q29 0 34 -24l283 -1141l332 1141q4 14 16 21q6 3 16 3h123q10 0 16 -3q12 -7 16 -21l332 -1141l286 1141q7 24 34 24h129z" />
    <glyph glyph-name="wcircumflex" unicode="&#x175;" horiz-adv-x="1490" 
d="M414 1129q-19 0 -24 11t7 25l227 255q14 16 36 16h174q24 0 36 -16l227 -255q12 -14 7.5 -25t-23.5 -11h-124q-20 0 -36 16l-174 172l-173 -172q-17 -16 -36 -16h-124zM1379 980q33 0 24 -34l-244 -922q-6 -24 -36 -24h-148q-29 0 -36 24l-193 723l-195 -723
q-6 -24 -36 -24h-147q-28 0 -36 24l-245 922q-9 34 24 34h115q30 0 36 -24l184 -753l207 753q7 24 36 24h112q30 0 36 -24l208 -753l185 753q6 24 36 24h113z" />
    <glyph glyph-name="Ycircumflex" unicode="&#x176;" horiz-adv-x="1380" 
d="M357 1549q-19 0 -24 11t7 25l227 255q14 16 36 16h174q24 0 36 -16l227 -255q12 -14 7.5 -25t-23.5 -11h-124q-20 0 -36 16l-174 172l-173 -172q-17 -16 -36 -16h-124zM1289 1400q18 0 24 -10t-4 -26l-525 -821v-513q0 -14 -8 -22t-22 -8h-127q-13 0 -21.5 8t-8.5 22v513
l-526 821q-10 16 -4 26t24 10h147q23 0 36 -20l416 -651l416 651q13 20 36 20h147z" />
    <glyph glyph-name="ycircumflex" unicode="&#x177;" horiz-adv-x="1203" 
d="M688 1436q24 0 36 -16l227 -255q12 -14 7.5 -25t-23.5 -11h-124q-20 0 -36 16l-174 172l-173 -172q-17 -16 -36 -16h-124q-19 0 -24 11t7 25l227 255q14 16 36 16h174zM1075 980q17 0 24 -9t0 -25l-554 -1302q-11 -24 -36 -24h-121q-17 0 -24 9t0 25l146 344l-406 948
q-7 16 0 25t24 9h121q25 0 36 -24l316 -756l317 756q11 24 36 24h121z" />
    <glyph glyph-name="Ydieresis" unicode="&#x178;" horiz-adv-x="1380" 
d="M499 1641q-41 0 -70.5 29.5t-29.5 71.5q0 40 29.5 69t70.5 29t70.5 -29t29.5 -69q0 -42 -29.5 -71.5t-70.5 -29.5zM883 1641q-41 0 -70.5 29.5t-29.5 71.5q0 40 29.5 69t70.5 29t70.5 -29t29.5 -69q0 -42 -29.5 -71.5t-70.5 -29.5zM1289 1400q18 0 24 -10t-4 -26
l-525 -821v-513q0 -14 -8 -22t-22 -8h-127q-13 0 -21.5 8t-8.5 22v513l-526 821q-10 16 -4 26t24 10h147q23 0 36 -20l416 -651l416 651q13 20 36 20h147z" />
    <glyph glyph-name="Zacute" unicode="&#x179;" horiz-adv-x="1265" 
d="M816 1820q17 0 24 -9t0 -25l-120 -252q-11 -24 -34 -24h-96q-17 0 -24 9t0 25l120 252q11 24 34 24h96zM1085 170q13 0 21.5 -8t8.5 -22v-110q0 -14 -8.5 -22t-21.5 -8h-905q-14 0 -22 8t-8 22v120q0 18 12 36l725 1044h-687q-14 0 -22 8t-8 22v110q0 14 8 22t22 8h865
q13 0 21.5 -8t8.5 -22v-120q0 -18 -12 -36l-725 -1044h727z" />
    <glyph glyph-name="zacute" unicode="&#x17a;" horiz-adv-x="1170" 
d="M768 1400q17 0 24 -9t0 -25l-120 -252q-11 -24 -34 -24h-96q-17 0 -24 9t0 25l120 252q11 24 34 24h96zM1010 950v-99q0 -24 -14 -38l-623 -662h607q14 0 22 -8.5t8 -21.5v-91q0 -14 -8 -22t-22 -8h-790q-14 0 -22 8t-8 22v99q0 24 14 38l623 662h-607q-14 0 -22 8.5
t-8 21.5v91q0 14 8 22t22 8h790q14 0 22 -8t8 -22z" />
    <glyph glyph-name="Zdotaccent" unicode="&#x17b;" horiz-adv-x="1265" 
d="M633 1631q-41 0 -70.5 29.5t-29.5 71.5q0 40 29.5 69t70.5 29t70.5 -29t29.5 -69q0 -42 -29.5 -71.5t-70.5 -29.5zM1085 170q13 0 21.5 -8t8.5 -22v-110q0 -14 -8.5 -22t-21.5 -8h-905q-14 0 -22 8t-8 22v120q0 18 12 36l725 1044h-687q-14 0 -22 8t-8 22v110q0 14 8 22
t22 8h865q13 0 21.5 -8t8.5 -22v-120q0 -18 -12 -36l-725 -1044h727z" />
    <glyph glyph-name="zdotaccent" unicode="&#x17c;" horiz-adv-x="1170" 
d="M585 1211q-41 0 -70.5 29.5t-29.5 71.5q0 40 29.5 69t70.5 29t70.5 -29t29.5 -69q0 -42 -29.5 -71.5t-70.5 -29.5zM1010 950v-99q0 -24 -14 -38l-623 -662h607q14 0 22 -8.5t8 -21.5v-91q0 -14 -8 -22t-22 -8h-790q-14 0 -22 8t-8 22v99q0 24 14 38l623 662h-607
q-14 0 -22 8.5t-8 21.5v91q0 14 8 22t22 8h790q14 0 22 -8t8 -22z" />
    <glyph glyph-name="Zcaron" unicode="&#x17d;" horiz-adv-x="1265" 
d="M720 1549h-174q-22 0 -36 16l-227 255q-12 14 -7 25t24 11h124q19 0 36 -16l173 -172l174 172q16 16 36 16h124q19 0 23.5 -11t-7.5 -25l-227 -255q-12 -16 -36 -16zM1085 170q13 0 21.5 -8t8.5 -22v-110q0 -14 -8.5 -22t-21.5 -8h-905q-14 0 -22 8t-8 22v120q0 18 12 36
l725 1044h-687q-14 0 -22 8t-8 22v110q0 14 8 22t22 8h865q13 0 21.5 -8t8.5 -22v-120q0 -18 -12 -36l-725 -1044h727z" />
    <glyph glyph-name="zcaron" unicode="&#x17e;" horiz-adv-x="1170" 
d="M672 1129h-174q-22 0 -36 16l-227 255q-12 14 -7 25t24 11h124q19 0 36 -16l173 -172l174 172q16 16 36 16h124q19 0 23.5 -11t-7.5 -25l-227 -255q-12 -16 -36 -16zM1010 950v-99q0 -24 -14 -38l-623 -662h607q14 0 22 -8.5t8 -21.5v-91q0 -14 -8 -22t-22 -8h-790
q-14 0 -22 8t-8 22v99q0 24 14 38l623 662h-607q-14 0 -22 8.5t-8 21.5v91q0 14 8 22t22 8h790q14 0 22 -8t8 -22z" />
    <glyph glyph-name="florin" unicode="&#x192;" 
d="M915 1472q90 0 175 -18t85 -46v-89q0 -15 -10 -23t-26 -5q-2 0 -31 8t-68 13.5t-86 5.5q-55 0 -93 -10t-69 -35.5t-46 -75.5t-15 -125v-92h385q14 0 22 -8t8 -22v-91q0 -13 -8 -21.5t-22 -8.5h-385v-449q0 -114 -26.5 -192.5t-77.5 -120.5t-113.5 -59.5t-146.5 -17.5
q-90 0 -175 18t-85 47v88q0 15 10 23t26 5q2 0 31 -8t68 -13.5t86 -5.5q55 0 93 10t69 36t46 75.5t15 124.5v439h-407q-14 0 -22 8.5t-8 21.5v91q0 14 8 22t22 8h407v103q0 114 26.5 192.5t77.5 120t113.5 59t146.5 17.5z" />
    <glyph glyph-name="uni01CD" unicode="&#x1cd;" horiz-adv-x="1370" 
d="M562 1565l-227 255q-12 14 -7 25t24 11h124q19 0 36 -16l173 -172l174 172q16 16 36 16h124q19 0 23.5 -11t-7.5 -25l-227 -255q-12 -16 -36 -16h-174q-22 0 -36 16zM1292 34q6 -15 -0.5 -24.5t-23.5 -9.5h-129q-25 0 -34 24l-99 269h-642l-99 -269q-9 -24 -34 -24h-129
q-17 0 -23.5 9.5t-0.5 24.5l508 1342q9 24 36 24h126q27 0 36 -24zM425 458h520l-260 708z" />
    <glyph glyph-name="uni01CE" unicode="&#x1ce;" horiz-adv-x="1237" 
d="M491 1145l-227 255q-12 14 -7 25t24 11h124q19 0 36 -16l173 -172l174 172q16 16 36 16h124q19 0 23.5 -11t-7.5 -25l-227 -255q-12 -16 -36 -16h-174q-22 0 -36 16zM1102 149q19 -3 27 -11t8 -25v-86q0 -34 -52 -35q-200 -7 -200 161h-4q-83 -88 -201.5 -132.5
t-230.5 -44.5q-163 0 -246 74.5t-83 203.5q0 126 79.5 198.5t243.5 97.5l277 42q64 9 94 19t37 26q-1 112 -61 161t-178 49q-240 0 -262 -152q-3 -23 -29 -23h-116q-31 0 -28 30q31 300 436 300q210 0 311.5 -94t101.5 -269v-409q0 -69 76 -81zM301 273q0 -66 44 -103
t136 -37q224 0 370 145v226q-6 -14 -30.5 -22.5t-79.5 -17.5l-257 -40q-101 -16 -142 -53t-41 -98z" />
    <glyph glyph-name="uni01CF" unicode="&#x1cf;" horiz-adv-x="1285" 
d="M730 1549h-174q-22 0 -36 16l-227 255q-12 14 -7 25t24 11h124q19 0 36 -16l173 -172l174 172q16 16 36 16h124q19 0 23.5 -11t-7.5 -25l-227 -255q-12 -16 -36 -16zM1110 1230h-374v-1060h374q14 0 22 -8t8 -22v-110q0 -14 -8 -22t-22 -8h-935q-13 0 -21.5 8t-8.5 22
v110q0 14 8.5 22t21.5 8h374v1060h-374q-13 0 -21.5 8t-8.5 22v110q0 14 8.5 22t21.5 8h935q14 0 22 -8t8 -22v-110q0 -14 -8 -22t-22 -8z" />
    <glyph glyph-name="uni01D0" unicode="&#x1d0;" horiz-adv-x="1155" 
d="M455 1145l-227 255q-12 14 -7 25t24 11h124q19 0 36 -16l173 -172l174 172q16 16 36 16h124q19 0 23.5 -11t-7.5 -25l-227 -255q-12 -16 -36 -16h-174q-22 0 -36 16zM1010 156q14 0 22 -8t8 -22v-96q0 -14 -8 -22t-22 -8h-855q-13 0 -21.5 8t-8.5 22v96q0 14 8.5 22
t21.5 8h364v669h-314q-13 0 -21.5 8.5t-8.5 21.5v95q0 14 8.5 22t21.5 8h464q13 0 21.5 -8t8.5 -22v-794h311z" />
    <glyph glyph-name="uni01D1" unicode="&#x1d1;" horiz-adv-x="1693" 
d="M933 1549h-174q-22 0 -36 16l-227 255q-12 14 -7 25t24 11h124q19 0 36 -16l173 -172l174 172q16 16 36 16h124q19 0 23.5 -11t-7.5 -25l-227 -255q-12 -16 -36 -16zM847 -26q-195 0 -360 96t-261 261.5t-96 362.5q0 148 57 282t153 230.5t228.5 153t278.5 56.5
q117 0 226 -36t197 -102.5t154.5 -155t102.5 -199t36 -229.5q0 -197 -96 -362.5t-261 -261.5t-359 -96zM847 151q146 0 268.5 72t193 197t70.5 274q0 150 -70.5 275.5t-193 197.5t-268.5 72q-110 0 -208.5 -42.5t-170 -115t-113 -174t-41.5 -213.5q0 -227 155 -385t378 -158
z" />
    <glyph glyph-name="uni01D2" unicode="&#x1d2;" horiz-adv-x="1279" 
d="M726 1129h-174q-22 0 -36 16l-227 255q-12 14 -7 25t24 11h124q19 0 36 -16l173 -172l174 172q16 16 36 16h124q19 0 23.5 -11t-7.5 -25l-227 -255q-12 -16 -36 -16zM640 -26q-106 0 -201 40t-164 108.5t-109.5 164t-40.5 201.5q0 142 68.5 260t187 186t259.5 68
q214 0 364 -149.5t150 -364.5q0 -216 -150 -365t-364 -149zM640 142q143 0 241 100.5t98 245.5q0 144 -98.5 245.5t-240.5 101.5q-143 0 -241.5 -101.5t-98.5 -245.5q0 -145 98.5 -245.5t241.5 -100.5z" />
    <glyph glyph-name="uni01D3" unicode="&#x1d3;" horiz-adv-x="1403" 
d="M788 1549h-174q-22 0 -36 16l-227 255q-12 14 -7 25t24 11h124q19 0 36 -16l173 -172l174 172q16 16 36 16h124q19 0 23.5 -11t-7.5 -25l-227 -255q-12 -16 -36 -16zM1238 1400q14 0 22 -8t8 -22v-804q0 -293 -149 -444t-418 -151q-268 0 -417 151t-149 444v804
q0 14 8.5 22t21.5 8h127q14 0 22 -8t8 -22v-804q0 -207 101 -312.5t278 -105.5q178 0 279 105.5t101 312.5v804q0 14 8.5 22t21.5 8h127z" />
    <glyph glyph-name="uni01D4" unicode="&#x1d4;" horiz-adv-x="1211" 
d="M478 1145l-227 255q-12 14 -7 25t24 11h124q19 0 36 -16l173 -172l174 172q16 16 36 16h124q19 0 23.5 -11t-7.5 -25l-227 -255q-12 -16 -36 -16h-174q-22 0 -36 16zM1021 980q13 0 21.5 -8t8.5 -22v-920q0 -14 -8.5 -22t-21.5 -8h-112q-27 0 -30 30l-8 136h-20
q-49 -80 -136.5 -134t-204.5 -54q-166 0 -263 102.5t-97 294.5v575q0 14 8 22t22 8h120q14 0 22 -8t8 -22v-555q0 -127 63.5 -190.5t184.5 -63.5q68 0 127.5 28.5t93.5 67.5t53 73.5t19 52.5v587q0 14 8.5 22t21.5 8h120z" />
    <glyph glyph-name="uni01EA" unicode="&#x1ea;" horiz-adv-x="1693" 
d="M945 -19q-66 -22 -104 -67t-38 -94q0 -61 42.5 -88t119.5 -10v-123q-30 -14 -70.5 -18t-84 5.5t-80 31t-60 64.5t-23.5 101q0 116 101 198q-173 24 -314 123t-222.5 254.5t-81.5 335.5q0 148 57 282t153 230.5t228.5 153t278.5 56.5q117 0 226 -36t197 -102.5t154.5 -155
t102.5 -199t36 -229.5q0 -180 -81.5 -335.5t-222.5 -255t-314 -122.5zM314 694q0 -227 155 -385t378 -158q146 0 268.5 72t193 197t70.5 274q0 150 -70.5 275.5t-193 197.5t-268.5 72q-110 0 -208.5 -42.5t-170 -115t-113 -174t-41.5 -213.5z" />
    <glyph glyph-name="uni01EB" unicode="&#x1eb;" horiz-adv-x="1279" 
d="M755 -13q-154 -70 -154 -166q0 -58 42.5 -84.5t119.5 -9.5v-123q-30 -14 -70.5 -18t-84 5.5t-80 31t-60 64.5t-23.5 101q0 113 100 194q-182 33 -301 174.5t-119 331.5q0 142 68.5 260t187 186t259.5 68q214 0 364 -149.5t150 -364.5q0 -185 -112.5 -323.5t-286.5 -177.5
zM300 488q0 -145 98.5 -245.5t241.5 -100.5t241 100.5t98 245.5q0 144 -98.5 245.5t-240.5 101.5q-143 0 -241.5 -101.5t-98.5 -245.5z" />
    <glyph glyph-name="Scommaaccent" unicode="&#x218;" horiz-adv-x="1241" 
d="M610 799q65 -13 115 -26t107 -32.5t98 -42t81 -55.5t65 -71.5t40 -91t15 -114.5q0 -186 -128.5 -291t-386.5 -105q-230 0 -360 86t-146 256q-2 15 6.5 25.5t21.5 10.5h122q26 0 30 -30q13 -83 98 -130.5t228 -47.5q331 0 331 224q0 44 -9 77.5t-31.5 59t-47 43.5t-68 34
t-81 26t-100.5 25q-85 19 -147.5 39.5t-126 54t-103.5 75.5t-65.5 105t-25.5 142q0 174 117.5 273t344.5 99q218 0 343 -84t142 -251q3 -30 -28 -30h-113q-27 0 -30 24q-12 79 -94 126.5t-219 47.5q-132 0 -207.5 -53t-75.5 -152q0 -100 69 -157.5t219 -88.5zM836 -167
q13 0 21 -7.5t8 -20.5v-46q0 -115 -20 -234.5t-49 -196.5q-8 -21 -33 -21h-62q-30 0 -25 31q13 70 20.5 173t5.5 176h-240q-28 0 -28 28v90q0 28 28 28h374z" />
    <glyph glyph-name="scommaaccent" unicode="&#x219;" horiz-adv-x="1129" 
d="M563 559q190 -25 268 -51q152 -53 177 -179q6 -27 6 -59q0 -136 -113 -216t-336 -80q-202 0 -320 70t-134 229q-3 30 29 30h116q26 0 29 -23q22 -153 279 -153q132 0 202.5 36t70.5 107q0 38 -19 64.5t-60 43t-83.5 25t-111.5 17.5q-58 7 -94 13t-87 17t-82.5 24t-67 35
t-55 49t-33 65.5t-13.5 86.5q0 134 104.5 213t312.5 79q415 0 444 -298q3 -30 -28 -30h-116q-26 0 -29 23q-22 153 -270 153q-243 0 -243 -143q0 -30 12.5 -53t32 -37.5t55 -26t70 -18t87.5 -13.5zM777 -167q13 0 21 -7.5t8 -20.5v-46q0 -115 -20 -234.5t-49 -196.5
q-8 -21 -33 -21h-62q-30 0 -25 31q13 70 20.5 173t5.5 176h-240q-28 0 -28 28v90q0 28 28 28h374z" />
    <glyph glyph-name="uni021A" unicode="&#x21a;" horiz-adv-x="1275" 
d="M1150 1400q14 0 22 -8t8 -22v-110q0 -14 -8 -22t-22 -8h-419v-1200q0 -14 -8.5 -22t-21.5 -8h-127q-14 0 -22 8t-8 22v1200h-419q-13 0 -21.5 8t-8.5 22v110q0 14 8.5 22t21.5 8h1025zM853 -167q13 0 21 -7.5t8 -20.5v-46q0 -115 -20 -234.5t-49 -196.5q-8 -21 -33 -21
h-62q-30 0 -25 31q13 70 20.5 173t5.5 176h-240q-28 0 -28 28v90q0 28 28 28h374z" />
    <glyph glyph-name="uni021B" unicode="&#x21b;" horiz-adv-x="1202" 
d="M1093 158q18 -21 1 -40q-45 -51 -128 -92.5t-198 -41.5q-63 0 -117 10.5t-105 38.5t-86.5 71.5t-57 113.5t-21.5 162v445h-256q-13 0 -21.5 8.5t-8.5 21.5v95q0 14 8.5 22t21.5 8h256v260q0 14 8.5 22t21.5 8h120q13 0 21.5 -8t8.5 -22v-260h416q13 0 21.5 -8t8.5 -22
v-95q0 -13 -8.5 -21.5t-21.5 -8.5h-416v-432q0 -245 234 -245q112 0 201 75q22 21 42 -2zM819 -167q13 0 21 -7.5t8 -20.5v-46q0 -115 -20 -234.5t-49 -196.5q-8 -21 -33 -21h-62q-30 0 -25 31q13 70 20.5 173t5.5 176h-240q-28 0 -28 28v90q0 28 28 28h374z" />
    <glyph glyph-name="uni0237" unicode="&#x237;" horiz-adv-x="992" 
d="M792 980q14 0 22 -8t8 -22v-920q0 -97 -24.5 -171t-64 -119.5t-96 -74t-113.5 -39t-124 -10.5q-61 0 -119 13t-99 32.5t-71 41.5t-42.5 41t-5.5 30l50 79q7 11 21.5 12t28.5 -9q103 -82 226 -82q52 0 92.5 10.5t79 37t60 81.5t21.5 136v786h-465q-13 0 -21.5 8.5
t-8.5 21.5v95q0 14 8.5 22t21.5 8h615z" />
    <glyph glyph-name="circumflex" unicode="&#x2c6;" 
d="M727 1440q24 0 36 -16l227 -255q12 -14 7.5 -25t-23.5 -11h-124q-20 0 -36 16l-174 172l-173 -172q-17 -16 -36 -16h-124q-19 0 -24 11t7 25l227 255q14 16 36 16h174z" />
    <glyph glyph-name="caron" unicode="&#x2c7;" 
d="M727 1133h-174q-22 0 -36 16l-227 255q-12 14 -7 25t24 11h124q19 0 36 -16l173 -172l174 172q16 16 36 16h124q19 0 23.5 -11t-7.5 -25l-227 -255q-12 -16 -36 -16z" />
    <glyph glyph-name="breve" unicode="&#x2d8;" 
d="M807 1384q6 28 32 28h67q32 0 29 -30q-12 -114 -90 -187t-205 -73t-205 73t-89 187q-3 30 28 30h68q26 0 32 -28q12 -57 55.5 -94.5t110.5 -37.5q68 0 111.5 37.5t55.5 94.5z" />
    <glyph glyph-name="dotaccent" unicode="&#x2d9;" 
d="M640 1211q-41 0 -70.5 29.5t-29.5 71.5q0 40 29.5 69t70.5 29t70.5 -29t29.5 -69q0 -42 -29.5 -71.5t-70.5 -29.5z" />
    <glyph glyph-name="ring" unicode="&#x2da;" 
d="M641 1461q76 0 129 -53.5t53 -127.5t-53 -127.5t-129 -53.5q-77 0 -130 53.5t-53 127.5t53 127.5t130 53.5zM641 1210q30 0 51 20t21 50t-21 50.5t-51 20.5q-31 0 -52 -20t-21 -51q0 -30 21 -50t52 -20z" />
    <glyph glyph-name="ogonek" unicode="&#x2db;" 
d="M827 0q-97 -7 -156.5 -59.5t-59.5 -115.5q0 -61 42.5 -88t119.5 -10v-123q-30 -14 -70.5 -18t-84 5.5t-80 31t-60 64.5t-23.5 101q0 72 39.5 131.5t99.5 94t120 54.5t113 24v-92z" />
    <glyph glyph-name="tilde" unicode="&#x2dc;" 
d="M495 1443q50 0 94 -21.5t71 -48t62 -48t69 -21.5q64 0 88 61q6 17 22 17h52q9 0 15 -5.5t5 -14.5q-9 -82 -59 -126t-127 -44q-41 0 -77.5 14.5t-62.5 35l-50.5 40.5t-51.5 34.5t-54 14.5q-67 0 -91 -61q-6 -17 -22 -17h-52q-21 0 -18 24q10 80 59 123t128 43z" />
    <glyph glyph-name="hungarumlaut" unicode="&#x2dd;" 
d="M597 1460q17 0 24 -9t0 -25l-120 -252q-11 -24 -34 -24h-96q-17 0 -24 9t0 25l120 252q11 24 34 24h96zM907 1460q17 0 24 -9t0 -25l-120 -252q-11 -24 -34 -24h-96q-17 0 -24 9t0 25l120 252q11 24 34 24h96z" />
    <glyph glyph-name="uni0326" unicode="&#x326;" horiz-adv-x="0" 
d="M-81 -167q13 0 21 -7.5t8 -20.5v-46q0 -115 -20 -234.5t-49 -196.5q-8 -21 -33 -21h-62q-30 0 -25 31q13 70 20.5 173t5.5 176h-240q-28 0 -28 28v90q0 28 28 28h374z" />
    <glyph glyph-name="uni0394" unicode="&#x394;" 
d="M1292 34q6 -15 -0.5 -24.5t-23.5 -9.5h-129q-7 0 -10 1v-1h-1027q-17 0 -23.5 9.5t-0.5 24.5l508 1342q9 24 36 24h126q27 0 36 -24zM685 1166l-373 -1015h746z" />
    <glyph glyph-name="uni03A9" unicode="&#x3a9;" 
d="M967 195v-44h223v-151h-410v265q230 79 230 485q0 245 -89 367t-281 122t-281 -122t-89 -367q0 -405 230 -485v-265h-410v151h223v44q-225 129 -225 555q0 320 140.5 493t411.5 173q272 0 412.5 -172.5t140.5 -493.5q0 -426 -226 -555z" />
    <glyph glyph-name="uni03BC" unicode="&#x3bc;" horiz-adv-x="1216" 
d="M1026 980q14 0 22 -8t8 -22v-920q0 -14 -8 -22t-22 -8h-112q-27 0 -30 30l-8 136h-20q-49 -80 -136.5 -134t-204.5 -54q-107 0 -185 42v-370q0 -14 -8 -22t-22 -8h-120q-14 0 -22 8t-8 22v1015h5v285q0 14 8.5 22t21.5 8h120q13 0 21.5 -8t8.5 -22v-555
q0 -127 63.5 -190.5t184.5 -63.5q68 0 127.5 28.5t93.5 67.5t53 73.5t19 52.5v587q0 14 8 22t22 8h120z" />
    <glyph glyph-name="pi" unicode="&#x3c0;" 
d="M1151 153q16 3 26 -5t10 -23v-85q0 -28 -46.5 -41t-104.5 -13q-102 0 -160 55.5t-58 174.5v613h-365v-799q0 -14 -8.5 -22t-21.5 -8h-120q-13 0 -21.5 8t-8.5 22v799h-155q-14 0 -22 8.5t-8 21.5v91q0 14 8 22t22 8h1036q14 0 22 -8t8 -22v-91q0 -13 -8 -21.5t-22 -8.5
h-156v-594q0 -43 20.5 -64.5t57.5 -21.5q51 0 75 4z" />
    <glyph glyph-name="uni0401" unicode="&#x401;" horiz-adv-x="1220" 
d="M432 1641q-41 0 -70.5 29.5t-29.5 71.5q0 40 29.5 69t70.5 29t70.5 -29t29.5 -69q0 -42 -29.5 -71.5t-70.5 -29.5zM816 1641q-41 0 -70.5 29.5t-29.5 71.5q0 40 29.5 69t70.5 29t70.5 -29t29.5 -69q0 -42 -29.5 -71.5t-70.5 -29.5zM1055 170q13 0 21.5 -8t8.5 -22v-110
q0 -14 -8.5 -22t-21.5 -8h-855q-14 0 -22 8t-8 22v1340q0 14 8 22t22 8h853q13 0 21.5 -8t8.5 -22v-110q0 -14 -8.5 -22t-21.5 -8h-696v-415h643q14 0 22 -8.5t8 -21.5v-110q0 -13 -8 -21.5t-22 -8.5h-643v-475h698z" />
    <glyph glyph-name="uni0403" unicode="&#x403;" horiz-adv-x="1170" 
d="M570 1510q-17 0 -24 9t0 25l120 252q11 24 34 24h96q17 0 24 -9t0 -25l-120 -252q-11 -24 -34 -24h-96zM1045 1400q13 0 21.5 -8t8.5 -22v-110q0 -14 -8.5 -22t-21.5 -8h-688v-1200q0 -14 -8.5 -22t-21.5 -8h-127q-14 0 -22 8t-8 22v1340q0 14 8 22t22 8h845z" />
    <glyph glyph-name="uni0404" unicode="&#x404;" horiz-adv-x="1441" 
d="M1236 292l80 -84q21 -21 -1 -42q-201 -192 -477 -192q-147 0 -278.5 56.5t-225.5 153t-149 229.5t-55 281q0 199 93.5 364.5t256 261.5t358.5 96q270 0 477 -191q22 -21 1 -42l-80 -85q-19 -19 -42 0q-160 136 -356 136q-193 0 -336.5 -126t-173.5 -323h510q14 0 22 -8.5
t8 -21.5v-110q0 -13 -8 -21.5t-22 -8.5h-512q27 -200 171.5 -329t340.5 -129q198 0 356 136q22 19 42 -1z" />
    <glyph glyph-name="uni0406" unicode="&#x406;" horiz-adv-x="1285" 
d="M1110 1230h-374v-1060h374q14 0 22 -8t8 -22v-110q0 -14 -8 -22t-22 -8h-935q-13 0 -21.5 8t-8.5 22v110q0 14 8.5 22t21.5 8h374v1060h-374q-13 0 -21.5 8t-8.5 22v110q0 14 8.5 22t21.5 8h935q14 0 22 -8t8 -22v-110q0 -14 -8 -22t-22 -8z" />
    <glyph glyph-name="uni0407" unicode="&#x407;" horiz-adv-x="1285" 
d="M452 1641q-41 0 -70.5 29.5t-29.5 71.5q0 40 29.5 69t70.5 29t70.5 -29t29.5 -69q0 -42 -29.5 -71.5t-70.5 -29.5zM836 1641q-41 0 -70.5 29.5t-29.5 71.5q0 40 29.5 69t70.5 29t70.5 -29t29.5 -69q0 -42 -29.5 -71.5t-70.5 -29.5zM1110 1230h-374v-1060h374q14 0 22 -8
t8 -22v-110q0 -14 -8 -22t-22 -8h-935q-13 0 -21.5 8t-8.5 22v110q0 14 8.5 22t21.5 8h374v1060h-374q-13 0 -21.5 8t-8.5 22v110q0 14 8.5 22t21.5 8h935q14 0 22 -8t8 -22v-110q0 -14 -8 -22t-22 -8z" />
    <glyph glyph-name="uni0410" unicode="&#x410;" horiz-adv-x="1370" 
d="M1292 34q6 -15 -0.5 -24.5t-23.5 -9.5h-129q-25 0 -34 24l-99 269h-642l-99 -269q-9 -24 -34 -24h-129q-17 0 -23.5 9.5t-0.5 24.5l508 1342q9 24 36 24h126q27 0 36 -24zM425 458h520l-260 708z" />
    <glyph glyph-name="uni0411" unicode="&#x411;" horiz-adv-x="1295" 
d="M696 879q269 0 386.5 -109.5t117.5 -330.5q0 -220 -117.5 -329.5t-386.5 -109.5h-496q-14 0 -22 8t-8 22v1340q0 14 8 22t22 8h693q13 0 21.5 -8t8.5 -22v-110q0 -14 -8.5 -22t-21.5 -8h-536v-351h339zM709 170q75 0 128 11.5t96 40.5t64.5 83t21.5 134t-21.5 134.5
t-64.5 83.5t-96 40.5t-128 11.5h-352v-539h352z" />
    <glyph glyph-name="uni0412" unicode="&#x412;" horiz-adv-x="1235" 
d="M851 756q142 -32 213 -127.5t71 -225.5q0 -208 -120.5 -305.5t-376.5 -97.5h-463q-13 0 -21.5 8t-8.5 22v1340q0 14 8.5 22t21.5 8h477q113 0 196 -28.5t128.5 -78t67 -107.5t21.5 -125q0 -112 -53 -192t-161 -113zM885 1045q0 96 -61 140.5t-189 44.5h-303v-405h310
q121 0 182 57t61 163zM635 170q159 0 234.5 55.5t75.5 187.5q0 117 -74 184.5t-228 67.5h-311v-495h303z" />
    <glyph glyph-name="uni0413" unicode="&#x413;" horiz-adv-x="1170" 
d="M1045 1400q13 0 21.5 -8t8.5 -22v-110q0 -14 -8.5 -22t-21.5 -8h-688v-1200q0 -14 -8.5 -22t-21.5 -8h-127q-14 0 -22 8t-8 22v1340q0 14 8 22t22 8h845z" />
    <glyph glyph-name="uni0414" unicode="&#x414;" horiz-adv-x="1270" 
d="M1180 170q14 0 22 -8t8 -22v-248q0 -14 -8 -22t-22 -8h-116q-14 0 -22 8t-8 22v108h-808v-108q0 -14 -8 -22t-22 -8h-116q-14 0 -22 8t-8 22v248q0 14 8 22t22 8q101 0 148 59t47 190v951q0 14 8.5 22t21.5 8h720q13 0 21.5 -8t8.5 -22v-1200h125zM462 411
q0 -153 -69 -241h475v1060h-406v-819z" />
    <glyph glyph-name="uni0415" unicode="&#x415;" horiz-adv-x="1220" 
d="M1055 170q13 0 21.5 -8t8.5 -22v-110q0 -14 -8.5 -22t-21.5 -8h-855q-14 0 -22 8t-8 22v1340q0 14 8 22t22 8h853q13 0 21.5 -8t8.5 -22v-110q0 -14 -8.5 -22t-21.5 -8h-696v-415h643q14 0 22 -8.5t8 -21.5v-110q0 -13 -8 -21.5t-22 -8.5h-643v-475h698z" />
    <glyph glyph-name="uni0416" unicode="&#x416;" 
d="M1199 36q14 -36 -18 -36h-116q-28 0 -36 18l-247 589l-56 -109v-468q0 -14 -8 -22t-22 -8h-113q-13 0 -21.5 8t-8.5 22v468l-56 109l-247 -589q-8 -18 -36 -18h-116q-32 0 -18 36l323 755l-293 573q-18 36 16 36h116q29 0 36 -16l275 -576v562q0 14 8.5 22t21.5 8h113
q14 0 22 -8t8 -22v-562l275 576q7 16 36 16h116q34 0 16 -36l-293 -573z" />
    <glyph glyph-name="uni0417" unicode="&#x417;" horiz-adv-x="1227" 
d="M832 747q124 -42 202 -133.5t78 -223.5q0 -191 -139 -303.5t-370 -112.5q-225 0 -351.5 102.5t-126.5 278.5q0 29 30 32l114 12q31 3 31 -28q3 -105 82.5 -169t223.5 -64q145 0 233.5 72t88.5 191q0 121 -103 193t-295 72q-30 0 -30 30v85q0 31 30 31q183 0 269.5 66
t86.5 168q0 95 -76.5 151.5t-202.5 56.5q-131 0 -207.5 -64.5t-79.5 -168.5q0 -31 -31 -28l-114 12q-30 3 -30 32q0 174 124.5 276.5t337.5 102.5q202 0 326.5 -97.5t124.5 -260.5q0 -104 -62 -184.5t-164 -126.5z" />
    <glyph glyph-name="uni0418" unicode="&#x418;" horiz-adv-x="1396" 
d="M1200 1400q26 -3 26 -30v-1340q0 -14 -8 -22t-22 -8h-127q-13 0 -21.5 8t-8.5 22v1094l-644 -1104q-11 -20 -36 -20h-164q-25 3 -25 30v1340q0 14 8 22t22 8h127q13 0 21.5 -8t8.5 -22v-1093l644 1103q11 20 36 20h163z" />
    <glyph glyph-name="uni0419" unicode="&#x419;" horiz-adv-x="1396" 
d="M756 1540q-127 0 -205 73t-89 187q-3 30 28 30h68q26 0 32 -28q12 -57 55.5 -94.5t110.5 -37.5q68 0 111.5 37.5t55.5 94.5q6 28 32 28h67q32 0 29 -30q-12 -114 -90 -187t-205 -73zM1200 1400q26 -3 26 -30v-1340q0 -14 -8 -22t-22 -8h-127q-13 0 -21.5 8t-8.5 22v1094
l-644 -1104q-11 -20 -36 -20h-164q-25 3 -25 30v1340q0 14 8 22t22 8h127q13 0 21.5 -8t8.5 -22v-1093l644 1103q11 20 36 20h163z" />
    <glyph glyph-name="uni041A" unicode="&#x41a;" horiz-adv-x="1234" 
d="M1157 36q11 -15 5.5 -25.5t-23.5 -10.5h-153q-23 0 -36 18l-463 630l-155 -174v-444q0 -14 -8 -22t-22 -8h-127q-13 0 -21.5 8t-8.5 22v1340q0 14 8.5 22t21.5 8h127q14 0 22 -8t8 -22v-647l582 661q13 16 36 16h160q20 0 25 -11t-9 -25l-518 -581z" />
    <glyph glyph-name="uni041B" unicode="&#x41b;" horiz-adv-x="1305" 
d="M1105 1400q13 0 21.5 -8t8.5 -22v-1340q0 -14 -8.5 -22t-21.5 -8h-127q-14 0 -22 8t-8 22v1200h-493v-849q0 -205 -94 -300.5t-260 -95.5q-18 0 -23 18l-36 128q-5 20 16 22q108 8 159 65t51 186v966q0 14 8 22t22 8h807z" />
    <glyph glyph-name="uni041C" unicode="&#x41c;" horiz-adv-x="1761" 
d="M1561 1400q13 0 21.5 -8t8.5 -22v-1340q0 -14 -8.5 -22t-21.5 -8h-127q-14 0 -22 8t-8 22v1015l-429 -1022q-9 -23 -34 -23h-124q-25 0 -34 23l-426 1015v-1008q0 -14 -8.5 -22t-21.5 -8h-127q-14 0 -22 8t-8 22v1340q0 14 8 22t22 8h159q27 0 36 -20l485 -1169l483 1169
q9 20 36 20h162z" />
    <glyph glyph-name="uni041D" unicode="&#x41d;" horiz-adv-x="1423" 
d="M1223 1400q13 0 21.5 -8t8.5 -22v-1340q0 -14 -8.5 -22t-21.5 -8h-127q-14 0 -22 8t-8 22v599h-709v-599q0 -14 -8.5 -22t-21.5 -8h-127q-14 0 -22 8t-8 22v1340q0 14 8 22t22 8h127q13 0 21.5 -8t8.5 -22v-571h709v571q0 14 8 22t22 8h127z" />
    <glyph glyph-name="uni041E" unicode="&#x41e;" horiz-adv-x="1693" 
d="M847 -26q-195 0 -360 96t-261 261.5t-96 362.5q0 148 57 282t153 230.5t228.5 153t278.5 56.5q117 0 226 -36t197 -102.5t154.5 -155t102.5 -199t36 -229.5q0 -197 -96 -362.5t-261 -261.5t-359 -96zM847 151q146 0 268.5 72t193 197t70.5 274q0 150 -70.5 275.5
t-193 197.5t-268.5 72q-110 0 -208.5 -42.5t-170 -115t-113 -174t-41.5 -213.5q0 -227 155 -385t378 -158z" />
    <glyph glyph-name="uni041F" unicode="&#x41f;" 
d="M1063 1400q13 0 21.5 -8t8.5 -22v-1340q0 -14 -8.5 -22t-21.5 -8h-127q-14 0 -22 8t-8 22v1200h-531v-1200q0 -14 -8.5 -22t-21.5 -8h-127q-14 0 -22 8t-8 22v1340q0 14 8 22t22 8h845z" />
    <glyph glyph-name="uni0420" unicode="&#x420;" horiz-adv-x="1295" 
d="M696 1400q269 0 386.5 -109.5t117.5 -329.5q0 -221 -117.5 -330.5t-386.5 -109.5h-339v-491q0 -14 -8.5 -22t-21.5 -8h-127q-14 0 -22 8t-8 22v1340q0 14 8 22t22 8h496zM709 691q75 0 128 11.5t96 40.5t64.5 83.5t21.5 134.5t-21.5 134t-64.5 83t-96 40.5t-128 11.5
h-352v-539h352z" />
    <glyph glyph-name="uni0421" unicode="&#x421;" horiz-adv-x="1441" 
d="M1236 292l80 -84q21 -21 -1 -42q-201 -192 -477 -192q-147 0 -278.5 56.5t-225.5 153t-149 229.5t-55 281q0 199 93.5 364.5t256 261.5t358.5 96q270 0 477 -191q22 -21 1 -42l-80 -85q-19 -19 -42 0q-160 136 -356 136q-142 0 -260.5 -70t-187.5 -194t-69 -276
q0 -150 69 -273.5t187.5 -193.5t260.5 -70q198 0 356 136q22 19 42 -1z" />
    <glyph glyph-name="uni0422" unicode="&#x422;" horiz-adv-x="1275" 
d="M1150 1400q14 0 22 -8t8 -22v-110q0 -14 -8 -22t-22 -8h-419v-1200q0 -14 -8.5 -22t-21.5 -8h-127q-14 0 -22 8t-8 22v1200h-419q-13 0 -21.5 8t-8.5 22v110q0 14 8.5 22t21.5 8h1025z" />
    <glyph glyph-name="uni0423" unicode="&#x423;" 
d="M1169 1400q18 0 23.5 -10.5t-3.5 -25.5l-715 -1344q-11 -20 -36 -20h-135q-38 0 -20 36l256 481l-438 847q-8 15 -2.5 25.5t22.5 10.5h133q25 0 36 -20l347 -679l362 679q11 20 36 20h134z" />
    <glyph glyph-name="uni0424" unicode="&#x424;" 
d="M735 1265q101 0 180 -28.5t131 -78t85.5 -122t48 -155t14.5 -181.5q0 -125 -24 -223.5t-75.5 -177t-142.5 -121t-217 -42.5h-8v-106q0 -14 -8.5 -22t-21.5 -8h-114q-13 0 -21.5 8t-8.5 22v106h-8q-126 0 -217 42.5t-142.5 121t-75.5 177t-24 223.5q0 99 14.5 181.5
t48 155t85.5 122t131 78t180 28.5h8v105q0 14 8.5 22t21.5 8h114q13 0 21.5 -8t8.5 -22v-105h8zM545 306h8v789h-8q-82 0 -137.5 -25t-86 -78t-43 -122.5t-12.5 -169.5t12.5 -169.5t43 -122t86 -77.5t137.5 -25zM735 306q83 0 138 25t85.5 77.5t43 122t12.5 169.5
q0 101 -12.5 170t-43 122t-85.5 78t-138 25h-8v-789h8z" />
    <glyph glyph-name="uni0425" unicode="&#x425;" horiz-adv-x="1255" 
d="M1154 36q9 -15 3.5 -25.5t-23.5 -10.5h-134q-25 0 -36 20l-336 535l-336 -535q-11 -20 -36 -20h-135q-18 0 -23.5 10.5t3.5 25.5l426 678l-408 650q-9 16 -3.5 26t23.5 10h135q25 0 36 -20l318 -506l318 506q11 20 36 20h134q18 0 23.5 -10t-3.5 -26l-408 -650z" />
    <glyph glyph-name="uni0426" unicode="&#x426;" 
d="M1175 170q13 0 21.5 -8t8.5 -22v-248q0 -14 -8.5 -22t-21.5 -8h-119q-14 0 -22 8t-8 22v108h-793q-13 0 -21.5 8t-8.5 22v1340q0 14 8.5 22t21.5 8h127q14 0 22 -8t8 -22v-1200h491v1200q0 14 8.5 22t21.5 8h127q14 0 22 -8t8 -22v-1200h107z" />
    <glyph glyph-name="uni0427" unicode="&#x427;" horiz-adv-x="1290" 
d="M1090 1400q14 0 22 -8t8 -22v-1340q0 -14 -8 -22t-22 -8h-127q-13 0 -21.5 8t-8.5 22v530q-67 -85 -171.5 -137t-243.5 -52q-178 0 -288 108.5t-110 309.5v581q0 14 8 22t22 8h127q13 0 21.5 -8t8.5 -22v-559q0 -259 272 -259q81 0 151.5 25.5t112.5 64t66 78.5t24 72
v578q0 14 8.5 22t21.5 8h127z" />
    <glyph glyph-name="uni0428" unicode="&#x428;" 
d="M1105 1400q13 0 21.5 -8t8.5 -22v-1340q0 -14 -8.5 -22t-21.5 -8h-930q-13 0 -21.5 8t-8.5 22v1340q0 14 8.5 22t21.5 8h111q14 0 22 -8t8 -22v-1200h239v1200q0 14 8.5 22t21.5 8h111q14 0 22 -8t8 -22v-1200h238v1200q0 14 8 22t22 8h111z" />
    <glyph glyph-name="uni0429" unicode="&#x429;" 
d="M1175 170q13 0 21.5 -8t8.5 -22v-248q0 -14 -8.5 -22t-21.5 -8h-119q-14 0 -22 8t-8 22v108h-851q-13 0 -21.5 8t-8.5 22v1340q0 14 8.5 22t21.5 8h111q14 0 22 -8t8 -22v-1200h219v1200q0 14 8.5 22t21.5 8h111q14 0 22 -8t8 -22v-1200h218v1200q0 14 8 22t22 8h111
q13 0 21.5 -8t8.5 -22v-1200h80z" />
    <glyph glyph-name="uni042A" unicode="&#x42a;" 
d="M697 879q132 0 224 -29.5t144.5 -88t75 -136.5t22.5 -185t-22.5 -185t-75 -137t-144.5 -88.5t-224 -29.5h-403q-14 0 -22 8t-8 22v1200h-146q-14 0 -22 8t-8 22v110q0 14 8 22t22 8h303q13 0 21.5 -8t8.5 -22v-491h246zM697 170q79 0 129 11t87 40.5t53 82.5t16 136
t-16 136t-53 82.5t-87 40t-129 10.5h-246v-539h246z" />
    <glyph glyph-name="uni042B" unicode="&#x42b;" 
d="M453 0h-330q-13 0 -21.5 8t-8.5 22v1340q0 14 8.5 22t21.5 8h123q14 0 22 -8t8 -22v-491h177q126 0 210.5 -29t131 -88.5t65.5 -136t19 -185.5q0 -86 -11.5 -151.5t-40 -121.5t-76.5 -91.5t-122.5 -55.5t-175.5 -20zM1158 0h-123q-13 0 -21.5 8t-8.5 22v1340q0 14 8.5 22
t21.5 8h123q14 0 22 -8t8 -22v-1340q0 -14 -8 -22t-22 -8zM453 709h-177v-539h177q72 0 116 10.5t74.5 41t42.5 82t12 136.5q0 84 -12 136t-42.5 82t-74.5 40.5t-116 10.5z" />
    <glyph glyph-name="uni042C" unicode="&#x42c;" horiz-adv-x="1295" 
d="M696 0h-496q-14 0 -22 8t-8 22v1340q0 14 8 22t22 8h127q13 0 21.5 -8t8.5 -22v-491h339q269 0 386.5 -109.5t117.5 -330.5q0 -220 -117.5 -329.5t-386.5 -109.5zM709 709h-352v-539h352q75 0 128 11.5t96 40.5t64.5 83t21.5 134t-21.5 134.5t-64.5 83.5t-96 40.5
t-128 11.5z" />
    <glyph glyph-name="uni042D" unicode="&#x42d;" horiz-adv-x="1431" 
d="M608 1416q196 0 358.5 -96t256 -261.5t93.5 -364.5q0 -148 -55 -281t-149 -229.5t-225.5 -153t-278.5 -56.5q-276 0 -477 192q-22 21 -1 42l80 84q20 20 42 1q158 -136 356 -136q196 0 340.5 129t171.5 329h-512q-14 0 -22 8.5t-8 21.5v110q0 13 8 21.5t22 8.5h510
q-30 197 -173.5 323t-336.5 126q-196 0 -356 -136q-23 -19 -42 0l-80 85q-21 21 1 42q207 191 477 191z" />
    <glyph glyph-name="uni042E" unicode="&#x42e;" horiz-adv-x="2047" 
d="M1202 1416q117 0 226 -36t197 -102.5t154.5 -155t102.5 -199t36 -229.5q0 -197 -96 -362.5t-261 -261.5t-359 -96q-182 0 -339 84.5t-256 231t-118 325.5h-137v-585q0 -14 -8 -22t-22 -8h-122q-14 0 -22 8t-8 22v1340q0 14 8 22t22 8h122q14 0 22 -8t8 -22v-585h139
q22 177 121 321.5t254.5 227t335.5 82.5zM1202 151q146 0 268.5 72t193 197t70.5 274q0 150 -70.5 275.5t-193 197.5t-268.5 72q-110 0 -208.5 -42.5t-170 -115t-113 -174t-41.5 -213.5q0 -227 155 -385t378 -158z" />
    <glyph glyph-name="uni042F" unicode="&#x42f;" horiz-adv-x="1300" 
d="M1100 1400q14 0 22 -8t8 -22v-1340q0 -14 -8 -22t-22 -8h-127q-13 0 -21.5 8t-8.5 22v491h-339h-29l-258 -499q-12 -22 -35 -22h-132q-17 0 -23.5 9.5t1.5 25.5l268 508q-156 38 -226 142t-70 276q0 220 117.5 329.5t386.5 109.5h496zM943 691v539h-352q-75 0 -128 -11.5
t-96 -40.5t-64.5 -83t-21.5 -134t21.5 -134.5t64.5 -83.5t96 -40.5t128 -11.5h352z" />
    <glyph glyph-name="uni0430" unicode="&#x430;" horiz-adv-x="1237" 
d="M1102 149q19 -3 27 -11t8 -25v-86q0 -34 -52 -35q-200 -7 -200 161h-4q-83 -88 -201.5 -132.5t-230.5 -44.5q-163 0 -246 74.5t-83 203.5q0 126 79.5 198.5t243.5 97.5l277 42q64 9 94 19t37 26q-1 112 -61 161t-178 49q-240 0 -262 -152q-3 -23 -29 -23h-116
q-31 0 -28 30q31 300 436 300q210 0 311.5 -94t101.5 -269v-409q0 -69 76 -81zM301 273q0 -66 44 -103t136 -37q224 0 370 145v226q-6 -14 -30.5 -22.5t-79.5 -17.5l-257 -40q-101 -16 -142 -53t-41 -98z" />
    <glyph glyph-name="uni0431" unicode="&#x431;" horiz-adv-x="1255" 
d="M676 1001q211 0 332.5 -144t121.5 -369q0 -146 -54 -262t-158.5 -183.5t-241.5 -67.5q-215 0 -339 163l-8 -108q-3 -30 -30 -30h-109q-14 0 -22 8t-8 22v1017q0 183 76.5 268t248.5 85h235q63 0 93 10t54 30h159q-15 -116 -90 -158.5t-214 -42.5h-201q-96 0 -136.5 -44
t-40.5 -141v-233h15q44 81 123.5 130.5t193.5 49.5zM644 139q150 0 231.5 95.5t81.5 255.5q0 159 -81.5 253t-231.5 94q-140 0 -225 -95.5t-85 -251.5t85 -253.5t225 -97.5z" />
    <glyph glyph-name="uni0432" unicode="&#x432;" horiz-adv-x="1222" 
d="M906 527q108 -19 169.5 -88t61.5 -157q0 -135 -106.5 -208.5t-320.5 -73.5h-520q-14 0 -22 8t-8 22v920q0 14 8 22t22 8h520q165 0 257 -67.5t92 -178.5q0 -76 -40.5 -129.5t-112.5 -77.5zM893 712q0 54 -38 85.5t-147 31.5h-368v-240h353q112 0 156 32.5t44 90.5z
M708 151q77 0 130 12t79.5 33.5t37.5 45.5t11 54q0 156 -273 156h-353v-301h368z" />
    <glyph glyph-name="uni0433" unicode="&#x433;" horiz-adv-x="1150" 
d="M1010 980q14 0 22 -8t8 -22v-91q0 -13 -8 -21.5t-22 -8.5h-670v-799q0 -14 -8 -22t-22 -8h-120q-14 0 -22 8t-8 22v920q0 14 8 22t22 8h820z" />
    <glyph glyph-name="uni0434" unicode="&#x434;" horiz-adv-x="1285" 
d="M1175 151q13 0 21.5 -8.5t8.5 -21.5v-232q0 -13 -8.5 -21.5t-21.5 -8.5h-110q-13 0 -21.5 8.5t-8.5 21.5v111h-784v-111q0 -13 -8.5 -21.5t-21.5 -8.5h-111q-14 0 -22 8.5t-8 21.5v245q0 23 21 23q203 0 203 262v531q0 14 8 22t22 8h733q13 0 21.5 -8t8.5 -22v-799h78z
M479 829v-418q0 -170 -73 -260h516v678h-443z" />
    <glyph glyph-name="uni0435" unicode="&#x435;" horiz-adv-x="1212" 
d="M619 1002q141 0 249.5 -68t163.5 -177t55 -239q0 -58 -11.5 -81.5t-49.5 -23.5h-725q17 -129 113 -208t241 -79q144 0 258 93q25 20 43 3l52 -52q23 -24 1 -46q-152 -150 -373 -150q-227 0 -369 147t-142 367q0 143 62 260t175.5 185.5t256.5 68.5zM619 846
q-127 0 -214 -81.5t-104 -213.5h628q-9 130 -94.5 212.5t-215.5 82.5z" />
    <glyph glyph-name="uni0436" unicode="&#x436;" horiz-adv-x="1264" 
d="M1177 36q20 -36 -16 -36h-111q-28 0 -36 16l-221 399l-80 -118v-267q0 -14 -8.5 -22t-21.5 -8h-102q-13 0 -21.5 8t-8.5 22v268l-80 117l-221 -399q-8 -16 -36 -16h-110q-35 0 -17 36l289 520l-263 388q-23 36 15 36h118q27 0 38 -16l267 -415v401q0 14 8.5 22t21.5 8
h102q13 0 21.5 -8t8.5 -22v-402l268 416q11 16 38 16h118q39 0 14 -36l-263 -389z" />
    <glyph glyph-name="uni0437" unicode="&#x437;" horiz-adv-x="1184" 
d="M867 522q87 -33 139.5 -96t52.5 -146q0 -138 -124 -222t-354 -84q-166 0 -285 38t-168 98q-25 31 3 57l52 51q23 24 54 -7q35 -32 118 -57.5t214 -25.5q161 0 243 44.5t82 121.5q0 51 -36.5 83.5t-134 51.5t-262.5 19q-21 0 -34.5 12t-13.5 30v45q0 21 13.5 33.5
t34.5 12.5q152 0 242 18t122 47t32 74q0 60 -67.5 94.5t-209.5 34.5q-210 0 -320 -78q-37 -26 -63 1l-40 43q-26 27 -1 55q53 58 163.5 95t264.5 37q208 0 323.5 -74t115.5 -188q0 -140 -156 -218z" />
    <glyph glyph-name="uni0438" unicode="&#x438;" horiz-adv-x="1180" 
d="M990 980q14 0 22 -8t8 -22v-920q0 -14 -8 -22t-22 -8h-120q-14 0 -22 8t-8 22v712l-454 -722q-13 -20 -38 -20h-158q-14 0 -22 8t-8 22v920q0 14 8 22t22 8h120q14 0 22 -8t8 -22v-712l454 722q13 20 38 20h158z" />
    <glyph glyph-name="uni0439" unicode="&#x439;" horiz-adv-x="1180" 
d="M590 1120q-127 0 -205 73t-89 187q-3 30 28 30h68q26 0 32 -28q12 -57 55.5 -94.5t110.5 -37.5q68 0 111.5 37.5t55.5 94.5q6 28 32 28h67q32 0 29 -30q-12 -114 -90 -187t-205 -73zM990 980q14 0 22 -8t8 -22v-920q0 -14 -8 -22t-22 -8h-120q-14 0 -22 8t-8 22v712
l-454 -722q-13 -20 -38 -20h-158q-14 0 -22 8t-8 22v920q0 14 8 22t22 8h120q14 0 22 -8t8 -22v-712l454 722q13 20 38 20h158z" />
    <glyph glyph-name="uni043A" unicode="&#x43a;" horiz-adv-x="1199" 
d="M1145 36q12 -15 7.5 -25.5t-23.5 -10.5h-152q-23 0 -36 16l-372 425l-229 -228v-183q0 -14 -8 -22t-22 -8h-120q-14 0 -22 8t-8 22v920q0 14 8 22t22 8h120q14 0 22 -8t8 -22v-518l533 532q15 16 38 16h151q20 0 24.5 -10.5t-9.5 -25.5l-390 -386z" />
    <glyph glyph-name="uni043B" unicode="&#x43b;" horiz-adv-x="1305" 
d="M1115 980q13 0 21.5 -8t8.5 -22v-920q0 -14 -8.5 -22t-21.5 -8h-120q-13 0 -21.5 8t-8.5 22v799h-511v-430q0 -202 -91 -305.5t-252 -103.5q-18 0 -23 18l-36 124q-3 9 1.5 15.5t14.5 6.5q100 0 153 67t53 198v531q0 14 8 22t22 8h811z" />
    <glyph glyph-name="uni043C" unicode="&#x43c;" horiz-adv-x="1250" 
d="M1060 980q14 0 22 -8t8 -22v-920q0 -14 -8 -22t-22 -8h-114q-14 0 -22 8t-8 22v643l-210 -651q-6 -22 -34 -22h-93q-28 0 -34 22l-210 651v-643q0 -14 -8.5 -22t-21.5 -8h-115q-14 0 -22 8t-8 22v920q0 14 8 22t22 8h151q28 0 34 -22l250 -769l251 769q6 22 34 22h150z
" />
    <glyph glyph-name="uni043D" unicode="&#x43d;" horiz-adv-x="1180" 
d="M990 980q14 0 22 -8t8 -22v-920q0 -14 -8 -22t-22 -8h-120q-14 0 -22 8t-8 22v385h-500v-385q0 -14 -8 -22t-22 -8h-120q-14 0 -22 8t-8 22v920q0 14 8 22t22 8h120q14 0 22 -8t8 -22v-384h500v384q0 14 8 22t22 8h120z" />
    <glyph glyph-name="uni043E" unicode="&#x43e;" horiz-adv-x="1279" 
d="M640 -26q-106 0 -201 40t-164 108.5t-109.5 164t-40.5 201.5q0 142 68.5 260t187 186t259.5 68q214 0 364 -149.5t150 -364.5q0 -216 -150 -365t-364 -149zM640 142q143 0 241 100.5t98 245.5q0 144 -98.5 245.5t-240.5 101.5q-143 0 -241.5 -101.5t-98.5 -245.5
q0 -145 98.5 -245.5t241.5 -100.5z" />
    <glyph glyph-name="uni043F" unicode="&#x43f;" horiz-adv-x="1180" 
d="M990 980q14 0 22 -8t8 -22v-920q0 -14 -8 -22t-22 -8h-120q-14 0 -22 8t-8 22v799h-500v-799q0 -14 -8 -22t-22 -8h-120q-14 0 -22 8t-8 22v920q0 14 8 22t22 8h800z" />
    <glyph glyph-name="uni0440" unicode="&#x440;" horiz-adv-x="1255" 
d="M676 1001q211 0 332.5 -144t121.5 -369q0 -146 -54 -262t-158.5 -183.5t-241.5 -67.5q-212 0 -336 159v-484q0 -14 -8 -22t-22 -8h-120q-14 0 -22 8t-8 22v1300q0 14 8 22t22 8h120q14 0 22 -8t8 -22v-129h19q44 81 123.5 130.5t193.5 49.5zM644 142q149 0 230 95t81 253
t-80.5 251t-230.5 93q-139 0 -223.5 -94.5t-84.5 -249.5t84.5 -251.5t223.5 -96.5z" />
    <glyph glyph-name="uni0441" unicode="&#x441;" horiz-adv-x="1176" 
d="M640 142q175 0 276 133q16 22 40 7l89 -52q26 -16 9 -40q-67 -101 -176 -158.5t-241 -57.5q-221 0 -366.5 147.5t-145.5 366.5q0 220 145.5 367t366.5 147q132 0 241 -57.5t176 -157.5q17 -25 -9 -41l-89 -52q-23 -14 -40 7q-102 134 -276 134q-148 0 -243.5 -96.5
t-95.5 -250.5q0 -153 95.5 -249.5t243.5 -96.5z" />
    <glyph glyph-name="uni0442" unicode="&#x442;" horiz-adv-x="1175" 
d="M1060 980q14 0 22 -8t8 -22v-91q0 -13 -8 -21.5t-22 -8.5h-382v-799q0 -14 -8 -22t-22 -8h-120q-14 0 -22 8t-8 22v799h-383q-13 0 -21.5 8.5t-8.5 21.5v91q0 14 8.5 22t21.5 8h945z" />
    <glyph glyph-name="uni0443" unicode="&#x443;" horiz-adv-x="1203" 
d="M1075 980q17 0 24 -9t0 -25l-554 -1302q-11 -24 -36 -24h-121q-17 0 -24 9t0 25l146 344l-406 948q-7 16 0 25t24 9h121q25 0 36 -24l316 -756l317 756q11 24 36 24h121z" />
    <glyph glyph-name="uni0444" unicode="&#x444;" horiz-adv-x="1275" 
d="M1150 488q0 -227 -108 -357t-316 -152v-329q0 -14 -8 -22t-22 -8h-116q-14 0 -22 8t-8 22v329q-208 23 -316.5 153t-108.5 356t108.5 356t316.5 153v374q0 13 8 21.5t22 8.5h116q14 0 22 -8.5t8 -21.5v-374q208 -22 316 -152t108 -357zM290 488q0 -161 62 -244t198 -101
v690q-137 -18 -198.5 -100.5t-61.5 -244.5zM726 143q136 18 197.5 101t61.5 244q0 162 -61.5 244.5t-197.5 100.5v-690z" />
    <glyph glyph-name="uni0445" unicode="&#x445;" horiz-adv-x="1240" 
d="M1136 36q12 -14 6.5 -25t-24.5 -11h-147q-23 0 -36 17l-316 363l-316 -363q-13 -17 -36 -17h-147q-19 0 -23.5 11t7.5 25l410 468l-385 440q-12 14 -6.5 25t24.5 11h145q23 0 36 -16l291 -338l291 338q13 16 36 16h145q20 0 25.5 -10.5t-7.5 -25.5l-383 -440z" />
    <glyph glyph-name="uni0446" unicode="&#x446;" 
d="M1175 151q13 0 21.5 -8.5t8.5 -21.5v-224q0 -13 -8.5 -21.5t-21.5 -8.5h-110q-13 0 -21.5 8.5t-8.5 21.5v103h-845q-14 0 -22 8t-8 22v920q0 14 8 22t22 8h120q14 0 22 -8t8 -22v-799h500v799q0 14 8 22t22 8h120q14 0 22 -8t8 -22v-799h155z" />
    <glyph glyph-name="uni0447" unicode="&#x447;" horiz-adv-x="1210" 
d="M1020 980q14 0 22 -8t8 -22v-920q0 -14 -8 -22t-22 -8h-120q-14 0 -22 8t-8 22v345q-57 -66 -148 -113.5t-209 -47.5q-55 0 -106 11t-101.5 38.5t-87.5 70t-60 110t-23 153.5v353q0 14 8.5 22t21.5 8h120q13 0 21.5 -8t8.5 -22v-347q0 -122 61.5 -181t173.5 -59
q100 0 182 51t138 128v408q0 14 8 22t22 8h120z" />
    <glyph glyph-name="uni0448" unicode="&#x448;" horiz-adv-x="1265" 
d="M1075 980q13 0 21.5 -8t8.5 -22v-920q0 -14 -8.5 -22t-21.5 -8h-885q-14 0 -22 8t-8 22v920q0 14 8 22t22 8h112q14 0 22 -8t8 -22v-799h220v799q0 14 8 22t22 8h102q14 0 22 -8t8 -22v-799h219v799q0 14 8.5 22t21.5 8h112z" />
    <glyph glyph-name="uni0449" unicode="&#x449;" 
d="M1175 151q13 0 21.5 -8.5t8.5 -21.5v-224q0 -13 -8.5 -21.5t-21.5 -8.5h-110q-13 0 -21.5 8.5t-8.5 21.5v103h-845q-14 0 -22 8t-8 22v920q0 14 8 22t22 8h112q14 0 22 -8t8 -22v-799h220v799q0 14 8 22t22 8h102q14 0 22 -8t8 -22v-799h219v799q0 14 8.5 22t21.5 8h112
q13 0 21.5 -8t8.5 -22v-799h70z" />
    <glyph glyph-name="uni044A" unicode="&#x44a;" horiz-adv-x="1218" 
d="M715 677q203 0 293 -84.5t90 -253.5q0 -170 -90 -254.5t-293 -84.5h-422q-13 0 -21.5 8t-8.5 22v799h-133q-14 0 -22 8.5t-8 21.5v91q0 14 8 22t22 8h283q13 0 21.5 -8t8.5 -22v-273h272zM719 148q120 0 163 44.5t43 146.5t-43 146.5t-163 44.5h-276v-382h276z" />
    <glyph glyph-name="uni044B" unicode="&#x44b;" horiz-adv-x="1373" 
d="M529 677q104 0 174 -21t109 -65.5t55 -104.5t16 -147q0 -88 -16 -148t-55 -104.5t-109 -65.5t-174 -21h-339q-14 0 -22 8t-8 22v920q0 14 8 22t22 8h111q13 0 21.5 -8t8.5 -22v-273h198zM1183 980q13 0 21.5 -8t8.5 -22v-920q0 -14 -8.5 -22t-21.5 -8h-111q-14 0 -22 8
t-8 22v920q0 14 8 22t22 8h111zM533 148q59 0 96 11t56.5 37t26 58t6.5 85q0 52 -6.5 84.5t-26 58.5t-56.5 37t-96 11h-202v-382h202z" />
    <glyph glyph-name="uni044C" unicode="&#x44c;" horiz-adv-x="1190" 
d="M683 677q203 0 292.5 -84t89.5 -254t-89.5 -254.5t-292.5 -84.5h-493q-14 0 -22 8t-8 22v920q0 14 8 22t22 8h120q14 0 22 -8t8 -22v-273h343zM687 148q120 0 162.5 44.5t42.5 146.5t-42.5 146.5t-162.5 44.5h-347v-382h347z" />
    <glyph glyph-name="uni044D" unicode="&#x44d;" horiz-adv-x="1185" 
d="M548 1002q221 0 366.5 -147t145.5 -367q0 -219 -145.5 -366.5t-366.5 -147.5q-132 0 -241 57.5t-176 158.5q-17 24 9 40l89 52q24 15 40 -7q101 -133 276 -133q130 0 221 76t112 201h-405q-13 0 -21.5 8.5t-8.5 21.5v79q0 14 8.5 22t21.5 8h405q-21 125 -112 201t-221 76
q-174 0 -276 -134q-17 -21 -40 -7l-89 52q-26 16 -9 41q67 100 176 157.5t241 57.5z" />
    <glyph glyph-name="uni044E" unicode="&#x44e;" horiz-adv-x="1401" 
d="M874 1002q109 0 188.5 -38.5t125 -109.5t67 -161.5t21.5 -204.5q0 -90 -13 -165.5t-42.5 -141t-75.5 -110.5t-114.5 -71t-156.5 -26q-195 0 -291 118t-110 322h-142v-384q0 -14 -8.5 -22t-21.5 -8h-111q-14 0 -22 8t-8 22v920q0 14 8 22t22 8h111q13 0 21.5 -8t8.5 -22
v-386h143q7 99 32 176.5t71.5 137.5t121.5 92t175 32zM874 139q237 0 237 349q0 350 -237 350q-238 0 -238 -350q0 -349 238 -349z" />
    <glyph glyph-name="uni044F" unicode="&#x44f;" horiz-adv-x="1195" 
d="M1005 980q13 0 21.5 -8t8.5 -22v-920q0 -14 -8.5 -22t-21.5 -8h-120q-13 0 -21.5 8t-8.5 22v298h-235l-279 -312q-13 -16 -36 -16h-138q-19 0 -24 11t8 25l272 298q-153 20 -220.5 99.5t-67.5 220.5q0 165 92 245.5t306 80.5h472zM529 476h326v357h-326q-121 0 -171 -40
t-50 -139t50 -138.5t171 -39.5z" />
    <glyph glyph-name="uni0451" unicode="&#x451;" horiz-adv-x="1212" 
d="M405 1281q-41 0 -70.5 29.5t-29.5 71.5q0 40 29.5 69t70.5 29t70.5 -29t29.5 -69q0 -42 -29.5 -71.5t-70.5 -29.5zM789 1281q-41 0 -70.5 29.5t-29.5 71.5q0 40 29.5 69t70.5 29t70.5 -29t29.5 -69q0 -42 -29.5 -71.5t-70.5 -29.5zM619 1002q141 0 249.5 -68t163.5 -177
t55 -239q0 -58 -11.5 -81.5t-49.5 -23.5h-725q17 -129 113 -208t241 -79q144 0 258 93q25 20 43 3l52 -52q23 -24 1 -46q-152 -150 -373 -150q-227 0 -369 147t-142 367q0 143 62 260t175.5 185.5t256.5 68.5zM619 846q-127 0 -214 -81.5t-104 -213.5h628
q-9 130 -94.5 212.5t-215.5 82.5z" />
    <glyph glyph-name="uni0453" unicode="&#x453;" horiz-adv-x="1150" 
d="M547 1090q-17 0 -24 9t0 25l120 252q11 24 34 24h96q17 0 24 -9t0 -25l-120 -252q-11 -24 -34 -24h-96zM1010 980q14 0 22 -8t8 -22v-91q0 -13 -8 -21.5t-22 -8.5h-670v-799q0 -14 -8 -22t-22 -8h-120q-14 0 -22 8t-8 22v920q0 14 8 22t22 8h820z" />
    <glyph glyph-name="uni0454" unicode="&#x454;" horiz-adv-x="1176" 
d="M1045 230q26 -16 9 -40q-67 -101 -176 -158.5t-241 -57.5q-221 0 -366.5 147.5t-145.5 366.5q0 220 145.5 367t366.5 147q132 0 241 -57.5t176 -157.5q17 -25 -9 -41l-89 -52q-23 -14 -40 7q-102 134 -276 134q-130 0 -221 -76t-112 -201h405q14 0 22 -8t8 -22v-79
q0 -13 -8 -21.5t-22 -8.5h-405q21 -125 112 -201t221 -76q175 0 276 133q16 22 40 7z" />
    <glyph glyph-name="uni0457" unicode="&#x457;" horiz-adv-x="1155" 
d="M387 1221q-41 0 -70.5 29.5t-29.5 71.5q0 40 29.5 69t70.5 29t70.5 -29t29.5 -69q0 -42 -29.5 -71.5t-70.5 -29.5zM771 1221q-41 0 -70.5 29.5t-29.5 71.5q0 40 29.5 69t70.5 29t70.5 -29t29.5 -69q0 -42 -29.5 -71.5t-70.5 -29.5zM1010 156q14 0 22 -8t8 -22v-96
q0 -14 -8 -22t-22 -8h-855q-13 0 -21.5 8t-8.5 22v96q0 14 8.5 22t21.5 8h364v669h-314q-13 0 -21.5 8.5t-8.5 21.5v95q0 14 8.5 22t21.5 8h464q13 0 21.5 -8t8.5 -22v-794h311z" />
    <glyph glyph-name="uni0490" unicode="&#x490;" horiz-adv-x="1198" 
d="M1103 1472v-207h-28v-5q0 -14 -8.5 -22t-21.5 -8h-688v-1200q0 -14 -8.5 -22t-21.5 -8h-127q-14 0 -22 8t-8 22v1340q0 14 8 22t22 8h733v72q0 14 8.5 22t21.5 8h110q13 0 21.5 -8t8.5 -22z" />
    <glyph glyph-name="uni0491" unicode="&#x491;" horiz-adv-x="1200" 
d="M1090 1074v-172h-50v-43q0 -13 -8 -21.5t-22 -8.5h-670v-799q0 -14 -8 -22t-22 -8h-120q-14 0 -22 8t-8 22v920q0 14 8 22t22 8h720v94q0 14 8 22t22 8h120q14 0 22 -8t8 -22z" />
    <glyph glyph-name="Wgrave" unicode="&#x1e80;" horiz-adv-x="1988" 
d="M905 1534l-120 252q-7 16 0 25t24 9h96q23 0 34 -24l120 -252q7 -16 0 -25t-24 -9h-96q-23 0 -34 24zM1867 1400q33 0 24 -34l-357 -1342q-6 -24 -36 -24h-153q-28 0 -36 24l-317 1057l-317 -1057q-7 -24 -35 -24h-154q-30 0 -36 24l-353 1342q-10 34 24 34h129
q29 0 34 -24l283 -1141l332 1141q4 14 16 21q6 3 16 3h123q10 0 16 -3q12 -7 16 -21l332 -1141l286 1141q7 24 34 24h129z" />
    <glyph glyph-name="wgrave" unicode="&#x1e81;" horiz-adv-x="1490" 
d="M658 1114l-120 252q-7 16 0 25t24 9h96q23 0 34 -24l120 -252q7 -16 0 -25t-24 -9h-96q-23 0 -34 24zM1379 980q33 0 24 -34l-244 -922q-6 -24 -36 -24h-148q-29 0 -36 24l-193 723l-195 -723q-6 -24 -36 -24h-147q-28 0 -36 24l-245 922q-9 34 24 34h115q30 0 36 -24
l184 -753l207 753q7 24 36 24h112q30 0 36 -24l208 -753l185 753q6 24 36 24h113z" />
    <glyph glyph-name="Wacute" unicode="&#x1e82;" horiz-adv-x="1988" 
d="M951 1510q-17 0 -24 9t0 25l120 252q11 24 34 24h96q17 0 24 -9t0 -25l-120 -252q-11 -24 -34 -24h-96zM1867 1400q33 0 24 -34l-357 -1342q-6 -24 -36 -24h-153q-28 0 -36 24l-317 1057l-317 -1057q-7 -24 -35 -24h-154q-30 0 -36 24l-353 1342q-10 34 24 34h129
q29 0 34 -24l283 -1141l332 1141q4 14 16 21q6 3 16 3h123q10 0 16 -3q12 -7 16 -21l332 -1141l286 1141q7 24 34 24h129z" />
    <glyph glyph-name="wacute" unicode="&#x1e83;" horiz-adv-x="1490" 
d="M704 1090q-17 0 -24 9t0 25l120 252q11 24 34 24h96q17 0 24 -9t0 -25l-120 -252q-11 -24 -34 -24h-96zM1379 980q33 0 24 -34l-244 -922q-6 -24 -36 -24h-148q-29 0 -36 24l-193 723l-195 -723q-6 -24 -36 -24h-147q-28 0 -36 24l-245 922q-9 34 24 34h115q30 0 36 -24
l184 -753l207 753q7 24 36 24h112q30 0 36 -24l208 -753l185 753q6 24 36 24h113z" />
    <glyph glyph-name="Wdieresis" unicode="&#x1e84;" horiz-adv-x="1988" 
d="M803 1641q-41 0 -70.5 29.5t-29.5 71.5q0 40 29.5 69t70.5 29t70.5 -29t29.5 -69q0 -42 -29.5 -71.5t-70.5 -29.5zM1187 1641q-41 0 -70.5 29.5t-29.5 71.5q0 40 29.5 69t70.5 29t70.5 -29t29.5 -69q0 -42 -29.5 -71.5t-70.5 -29.5zM1867 1400q33 0 24 -34l-357 -1342
q-6 -24 -36 -24h-153q-28 0 -36 24l-317 1057l-317 -1057q-7 -24 -35 -24h-154q-30 0 -36 24l-353 1342q-10 34 24 34h129q29 0 34 -24l283 -1141l332 1141q4 14 16 21q6 3 16 3h123q10 0 16 -3q12 -7 16 -21l332 -1141l286 1141q7 24 34 24h129z" />
    <glyph glyph-name="wdieresis" unicode="&#x1e85;" horiz-adv-x="1490" 
d="M556 1221q-41 0 -70.5 29.5t-29.5 71.5q0 40 29.5 69t70.5 29t70.5 -29t29.5 -69q0 -42 -29.5 -71.5t-70.5 -29.5zM940 1221q-41 0 -70.5 29.5t-29.5 71.5q0 40 29.5 69t70.5 29t70.5 -29t29.5 -69q0 -42 -29.5 -71.5t-70.5 -29.5zM1379 980q33 0 24 -34l-244 -922
q-6 -24 -36 -24h-148q-29 0 -36 24l-193 723l-195 -723q-6 -24 -36 -24h-147q-28 0 -36 24l-245 922q-9 34 24 34h115q30 0 36 -24l184 -753l207 753q7 24 36 24h112q30 0 36 -24l208 -753l185 753q6 24 36 24h113z" />
    <glyph glyph-name="uni1E9E" unicode="&#x1e9e;" horiz-adv-x="1346" 
d="M779 820q220 -26 343.5 -133.5t123.5 -296.5q0 -196 -115.5 -306t-318.5 -110q-191 0 -293 89t-110 257q-2 31 29 31h104q26 0 31 -29q10 -82 72 -132.5t167 -50.5q116 0 184 67t68 183q0 142 -115 215t-326 73q-30 0 -30 30v121l288 412h-342q-123 0 -170 -54t-47 -168
v-988q0 -14 -8 -22t-22 -8h-127q-13 0 -21.5 8t-8.5 22v1001q0 195 89 287t303 92h611q18 0 23.5 -10t-4.5 -26z" />
    <glyph glyph-name="Ygrave" unicode="&#x1ef2;" horiz-adv-x="1380" 
d="M601 1534l-120 252q-7 16 0 25t24 9h96q23 0 34 -24l120 -252q7 -16 0 -25t-24 -9h-96q-23 0 -34 24zM1289 1400q18 0 24 -10t-4 -26l-525 -821v-513q0 -14 -8 -22t-22 -8h-127q-13 0 -21.5 8t-8.5 22v513l-526 821q-10 16 -4 26t24 10h147q23 0 36 -20l416 -651l416 651
q13 20 36 20h147z" />
    <glyph glyph-name="ygrave" unicode="&#x1ef3;" horiz-adv-x="1203" 
d="M416 1400h96q23 0 34 -24l120 -252q7 -16 0 -25t-24 -9h-96q-23 0 -34 24l-120 252q-7 16 0 25t24 9zM1075 980q17 0 24 -9t0 -25l-554 -1302q-11 -24 -36 -24h-121q-17 0 -24 9t0 25l146 344l-406 948q-7 16 0 25t24 9h121q25 0 36 -24l316 -756l317 756q11 24 36 24
h121z" />
    <glyph glyph-name="endash" unicode="&#x2013;" horiz-adv-x="1410" 
d="M1240 639q14 0 22 -8.5t8 -21.5v-93q0 -14 -8 -22t-22 -8h-1070q-14 0 -22 8t-8 22v93q0 13 8 21.5t22 8.5h1070z" />
    <glyph glyph-name="emdash" unicode="&#x2014;" horiz-adv-x="1730" 
d="M1560 639q14 0 22 -8.5t8 -21.5v-93q0 -14 -8 -22t-22 -8h-1390q-14 0 -22 8t-8 22v93q0 13 8 21.5t22 8.5h1390z" />
    <glyph glyph-name="quoteleft" unicode="&#x2018;" horiz-adv-x="678" 
d="M140 841q-14 0 -22 8.5t-8 21.5v49q0 122 21 248.5t52 208.5q9 23 35 23h66q32 0 26 -33q-14 -74 -21.5 -183.5t-5.5 -187.5h255q14 0 22 -8t8 -22v-95q0 -13 -8 -21.5t-22 -8.5h-398z" />
    <glyph glyph-name="quoteright" unicode="&#x2019;" horiz-adv-x="678" 
d="M538 1400q14 0 22 -8t8 -22v-49q0 -122 -21 -248.5t-52 -208.5q-9 -23 -35 -23h-66q-32 0 -26 33q14 74 21.5 183.5t5.5 187.5h-255q-14 0 -22 8.5t-8 21.5v95q0 14 8 22t22 8h398z" />
    <glyph glyph-name="quotesinglbase" unicode="&#x201a;" horiz-adv-x="708" 
d="M553 155q13 0 21.5 -8.5t8.5 -21.5v-49q0 -122 -21 -248.5t-52 -208.5q-9 -23 -35 -23h-66q-32 0 -26 33q14 74 21.5 183.5t5.5 187.5h-255q-13 0 -21.5 8t-8.5 22v95q0 13 8.5 21.5t21.5 8.5h398z" />
    <glyph glyph-name="quotedblleft" unicode="&#x201c;" horiz-adv-x="1229" 
d="M152 841q-13 0 -20.5 8t-7.5 22v49q0 121 19.5 247.5t47.5 209.5q9 23 33 23h60q30 0 24 -33q-28 -170 -24 -371h234q13 0 20.5 -8t7.5 -22v-95q0 -14 -7.5 -22t-20.5 -8h-366zM711 841q-13 0 -20.5 8t-7.5 22v49q0 121 19.5 247.5t47.5 209.5q9 23 33 23h60q30 0 24 -33
q-28 -170 -24 -371h234q13 0 20.5 -8t7.5 -22v-95q0 -14 -7.5 -22t-20.5 -8h-366z" />
    <glyph glyph-name="quotedblright" unicode="&#x201d;" horiz-adv-x="1200" 
d="M503 1400q13 0 20.5 -8t7.5 -22v-49q0 -121 -19.5 -247.5t-47.5 -209.5q-9 -23 -33 -23h-60q-30 0 -24 33q28 170 24 371h-234q-13 0 -20.5 8t-7.5 22v95q0 14 7.5 22t20.5 8h366zM1062 1400q13 0 20.5 -8t7.5 -22v-49q0 -121 -19.5 -247.5t-47.5 -209.5q-9 -23 -33 -23
h-60q-30 0 -24 33q28 170 24 371h-234q-13 0 -20.5 8t-7.5 22v95q0 14 7.5 22t20.5 8h366z" />
    <glyph glyph-name="quotedblbase" unicode="&#x201e;" horiz-adv-x="1229" 
d="M518 159q13 0 20.5 -8t7.5 -22v-49q0 -121 -19.5 -247.5t-47.5 -209.5q-9 -23 -33 -23h-60q-30 0 -24 33q28 170 24 371h-234q-13 0 -20.5 8t-7.5 22v95q0 14 7.5 22t20.5 8h366zM1077 159q13 0 20.5 -8t7.5 -22v-49q0 -121 -19.5 -247.5t-47.5 -209.5q-9 -23 -33 -23
h-60q-30 0 -24 33q28 170 24 371h-234q-13 0 -20.5 8t-7.5 22v95q0 14 7.5 22t20.5 8h366z" />
    <glyph glyph-name="dagger" unicode="&#x2020;" horiz-adv-x="1135" 
d="M940 1159q14 0 22 -8.5t8 -21.5v-86q0 -13 -8 -21.5t-22 -8.5h-299v-300q0 -13 -8.5 -21.5t-21.5 -8.5h-86q-13 0 -21.5 8.5t-8.5 21.5v300h-300q-13 0 -21.5 8.5t-8.5 21.5v86q0 13 8.5 21.5t21.5 8.5h300v299q0 14 8.5 22t21.5 8h86q13 0 21.5 -8t8.5 -22v-299h299z
" />
    <glyph glyph-name="daggerdbl" unicode="&#x2021;" horiz-adv-x="1135" 
d="M641 428h299q14 0 22 -8t8 -22v-86q0 -14 -8 -22t-22 -8h-299v-300q0 -14 -8.5 -22t-21.5 -8h-86q-13 0 -21.5 8t-8.5 22v300h-300q-13 0 -21.5 8t-8.5 22v86q0 14 8.5 22t21.5 8h300v585h-300q-13 0 -21.5 8.5t-8.5 21.5v86q0 13 8.5 21.5t21.5 8.5h300v299q0 14 8.5 22
t21.5 8h86q13 0 21.5 -8t8.5 -22v-299h299q14 0 22 -8.5t8 -21.5v-86q0 -13 -8 -21.5t-22 -8.5h-299v-585z" />
    <glyph glyph-name="bullet" unicode="&#x2022;" horiz-adv-x="1036" 
d="M519 348q-84 0 -144 59t-60 143t60 143t144 59q83 0 142.5 -59t59.5 -143t-59.5 -143t-142.5 -59z" />
    <glyph glyph-name="ellipsis" unicode="&#x2026;" horiz-adv-x="1328" 
d="M266 -27q-56 0 -93.5 37.5t-37.5 93.5q0 55 38 94t93 39t93 -39t38 -94t-38 -93t-93 -38zM666 -27q-56 0 -93.5 37.5t-37.5 93.5q0 55 38 94t93 39t93 -39t38 -94t-38 -93t-93 -38zM1064 -27q-56 0 -93.5 37.5t-37.5 93.5q0 55 38 94t93 39t93 -39t38 -94t-38 -93
t-93 -38z" />
    <glyph glyph-name="perthousand" unicode="&#x2030;" horiz-adv-x="1270" 
d="M345 1410q199 0 199 -272q0 -275 -199 -275q-198 0 -198 275q0 272 198 272zM345 1278q-45 0 -61.5 -32t-16.5 -108q0 -77 16.5 -110t61.5 -33q46 0 62.5 33t16.5 110q0 76 -16.5 108t-62.5 32zM874 1170q22 -19 6 -42l-639 -937q-15 -25 -38 -6l-55 48q-22 19 -6 42
l637 937q17 24 38 6zM936 537q199 0 199 -272q0 -275 -199 -275q-87 0 -138 62q-51 -62 -139 -62q-197 0 -197 275q0 272 197 272q89 0 139 -61q50 61 138 61zM659 122q46 0 62.5 32.5t16.5 110.5q0 76 -16.5 108t-62.5 32q-45 0 -61 -32t-16 -108q0 -78 16 -110.5t61 -32.5
zM936 122q46 0 62.5 33t16.5 110q0 76 -16.5 108t-62.5 32q-45 0 -61.5 -32t-16.5 -108q0 -77 16.5 -110t61.5 -33z" />
    <glyph glyph-name="guilsinglleft" unicode="&#x2039;" horiz-adv-x="786" 
d="M615 944l-256 -382l256 -382q10 -16 4 -26t-24 -10h-132q-25 0 -36 20l-254 378q-14 20 0 40l254 378q11 20 36 20h132q18 0 24 -10t-4 -26z" />
    <glyph glyph-name="guilsinglright" unicode="&#x203a;" horiz-adv-x="786" 
d="M171 944q-10 16 -4 26t24 10h132q25 0 36 -20l254 -378q14 -20 0 -40l-254 -378q-11 -20 -36 -20h-132q-18 0 -24 10t4 26l256 382z" />
    <glyph glyph-name="fraction" unicode="&#x2044;" 
d="M1077 1400q17 0 23 -10t-1 -26l-733 -1340q-12 -24 -36 -24h-124q-18 0 -25 9t1 25l735 1344q11 22 36 22h124z" />
    <glyph glyph-name="Euro" unicode="&#x20ac;" horiz-adv-x="1468" 
d="M1267 292l76 -84q21 -21 -1 -42q-192 -192 -454 -192q-233 0 -412 147t-238 378h-78q-14 0 -22 8.5t-8 21.5v86q0 13 8 21.5t22 8.5h55q0 8 -0.5 24.5t-0.5 24.5q0 24 1 36h-55q-14 0 -22 8t-8 22v86q0 14 8 22t22 8h75q55 237 235.5 388.5t417.5 151.5q257 0 454 -191
q22 -21 1 -42l-76 -85q-18 -20 -40 0q-152 136 -339 136q-161 0 -287.5 -98.5t-177.5 -259.5h268q13 0 21.5 -8t8.5 -22v-86q0 -14 -8.5 -22t-21.5 -8h-294q-1 -12 -1 -36q0 -17 2 -49h293q13 0 21.5 -8.5t8.5 -21.5v-86q0 -13 -8.5 -21.5t-21.5 -8.5h-263q53 -154 178 -248
t282 -94q189 0 339 136q21 19 40 -1z" />
    <glyph glyph-name="uni2116" unicode="&#x2116;" horiz-adv-x="1584" 
d="M1178 1410q117 0 199 -82.5t82 -199.5t-82 -199t-199 -82t-199 82t-82 199t82 199.5t199 82.5zM791 1400q13 0 21.5 -8t8.5 -22v-1340q0 -14 -8.5 -22t-21.5 -8h-151q-30 0 -36 20l-271 1021v-1011q0 -14 -8.5 -22t-21.5 -8h-103q-14 0 -22 8t-8 22v1340q0 14 8 22t22 8
h153q30 0 36 -20l269 -1010v1000q0 14 8 22t22 8h103zM1178 983q61 0 103 42.5t42 102.5q0 61 -42 104t-103 43t-103 -43t-42 -104q0 -60 42 -102.5t103 -42.5zM1414 740q14 0 22 -8t8 -22v-93q0 -13 -8 -21.5t-22 -8.5h-471q-13 0 -21.5 8.5t-8.5 21.5v93q0 14 8.5 22
t21.5 8h471z" />
    <glyph glyph-name="trademark" unicode="&#x2122;" 
d="M552 1400q10 0 10 -10v-64q0 -10 -10 -10h-137v-406q0 -10 -10 -10h-71q-10 0 -10 10v406h-136q-10 0 -10 10v64q0 10 10 10h364zM1093 1400q10 0 10 -10v-480q0 -10 -10 -10h-69q-10 0 -10 10v351l-91 -353q-4 -8 -12 -8h-81q-7 0 -11 8l-92 353v-351q0 -10 -10 -10h-68
q-10 0 -10 10v480q0 10 10 10h103q8 0 12 -7l106 -384l108 384q4 7 12 7h103z" />
    <glyph glyph-name="oneeighth" unicode="&#x215b;" 
d="M219 762q-30 0 -30 26v78q0 25 30 25h364v555q-137 -110 -318 -110q-30 0 -30 25v88q0 27 30 27q75 0 158 32t160 91h150q13 0 21.5 -7.5t8.5 -18.5v-682h296q30 0 30 -25v-78q0 -26 -30 -26h-840zM1210 679q14 0 22 -8.5t8 -21.5v-73q0 -14 -8 -22t-22 -8h-1140
q-14 0 -22 8t-8 22v73q0 13 8 21.5t22 8.5h1140zM910 94q115 -32 170.5 -86.5t55.5 -140.5q0 -258 -498 -258q-497 0 -497 258q0 86 55 140.5t170 86.5q-77 17 -117.5 61.5t-40.5 103.5q0 103 108 160t322 57t322 -57t108 -160q0 -59 -40 -103.5t-118 -61.5zM638 346
q-144 0 -204.5 -23.5t-60.5 -78.5q0 -51 61.5 -74t203.5 -23t203.5 23t61.5 74q0 55 -60 78.5t-205 23.5zM638 -255q164 0 244 28.5t80 101.5q0 78 -81.5 111t-242.5 33t-242.5 -33t-81.5 -111q0 -73 80 -101.5t244 -28.5z" />
    <glyph glyph-name="threeeighths" unicode="&#x215c;" 
d="M883 1185q59 -11 101.5 -25t79 -37.5t55 -59t18.5 -83.5q0 -66 -36 -113t-104.5 -74t-156.5 -39t-202 -12q-247 0 -367.5 55t-120.5 193q0 25 29 28l115 10q29 3 31 -24q1 -73 74.5 -101t230.5 -28q77 0 131 4.5t100.5 16t69.5 35t23 59.5q0 77 -91.5 105.5t-308.5 28.5
q-30 0 -30 25v58q0 27 31 27q202 0 288 30.5t86 94.5t-74 91.5t-216 27.5q-146 0 -219.5 -33.5t-74.5 -114.5q-2 -26 -31 -24l-115 10q-29 2 -29 27q0 141 121.5 203.5t352.5 62.5q217 0 337 -57t120 -172q0 -74 -60.5 -124t-157.5 -71zM1210 679q14 0 22 -8.5t8 -21.5v-73
q0 -14 -8 -22t-22 -8h-1140q-14 0 -22 8t-8 22v73q0 13 8 21.5t22 8.5h1140zM910 94q115 -32 170.5 -86.5t55.5 -140.5q0 -258 -498 -258q-497 0 -497 258q0 86 55 140.5t170 86.5q-77 17 -117.5 61.5t-40.5 103.5q0 103 108 160t322 57t322 -57t108 -160q0 -59 -40 -103.5
t-118 -61.5zM373 244q0 -51 61.5 -74t203.5 -23t203.5 23t61.5 74q0 55 -60 78.5t-205 23.5q-144 0 -204.5 -23.5t-60.5 -78.5zM638 -255q164 0 244 28.5t80 101.5q0 78 -81.5 111t-242.5 33t-242.5 -33t-81.5 -111q0 -73 80 -101.5t244 -28.5z" />
    <glyph glyph-name="fiveeighths" unicode="&#x215d;" 
d="M290 1028q25 0 33 -23q20 -67 96 -93.5t216 -26.5q157 0 241.5 42.5t84.5 127.5q0 176 -327 176q-186 0 -298 -74q-23 -15 -43 -8l-93 30q-27 11 -19 31l121 367q7 22 32 22h647q13 0 21.5 -7.5t8.5 -18.5v-74q0 -26 -30 -26h-550l-60 -172q94 49 288 49q225 0 345 -74.5
t120 -220.5q0 -145 -125.5 -221.5t-362.5 -76.5q-225 0 -345 57.5t-135 186.5q-1 13 6.5 20t21.5 7h106zM1210 679q14 0 22 -8.5t8 -21.5v-73q0 -14 -8 -22t-22 -8h-1140q-14 0 -22 8t-8 22v73q0 13 8 21.5t22 8.5h1140zM912 94q115 -32 170.5 -86.5t55.5 -140.5
q0 -258 -498 -258q-497 0 -497 258q0 86 55 140.5t170 86.5q-77 17 -117.5 61.5t-40.5 103.5q0 103 108 160t322 57t322 -57t108 -160q0 -59 -40 -103.5t-118 -61.5zM375 244q0 -51 61.5 -74t203.5 -23t203.5 23t61.5 74q0 55 -60 78.5t-205 23.5q-144 0 -204.5 -23.5
t-60.5 -78.5zM640 -255q164 0 244 28.5t80 101.5q0 78 -81.5 111t-242.5 33t-242.5 -33t-81.5 -111q0 -73 80 -101.5t244 -28.5z" />
    <glyph glyph-name="seveneighths" unicode="&#x215e;" 
d="M198 1465q-30 0 -30 25v83q0 11 8.5 18.5t21.5 7.5h885q13 0 21.5 -7.5t8.5 -18.5v-91q0 -22 -8 -33l-574 -660q-1 -2 -7 -8.5t-7.5 -8t-6 -5t-8.5 -4.5t-9 -1h-140q-15 0 -22.5 7.5t0.5 19.5l593 676h-726zM1210 679q14 0 22 -8.5t8 -21.5v-73q0 -14 -8 -22t-22 -8
h-1140q-14 0 -22 8t-8 22v73q0 13 8 21.5t22 8.5h1140zM912 94q115 -32 170.5 -86.5t55.5 -140.5q0 -258 -498 -258q-497 0 -497 258q0 86 55 140.5t170 86.5q-77 17 -117.5 61.5t-40.5 103.5q0 103 108 160t322 57t322 -57t108 -160q0 -59 -40 -103.5t-118 -61.5zM640 346
q-144 0 -204.5 -23.5t-60.5 -78.5q0 -51 61.5 -74t203.5 -23t203.5 23t61.5 74q0 55 -60 78.5t-205 23.5zM640 -255q164 0 244 28.5t80 101.5q0 78 -81.5 111t-242.5 33t-242.5 -33t-81.5 -111q0 -73 80 -101.5t244 -28.5z" />
    <glyph glyph-name="partialdiff" unicode="&#x2202;" horiz-adv-x="1235" 
d="M605 854q96 0 194 -36.5t132 -97.5v210q0 100 -24.5 167.5t-71 101t-99 46.5t-123.5 13q-120 0 -195 -52t-88 -148q-5 -32 -32 -29l-102 9q-30 3 -30 32q0 163 121.5 254.5t321.5 91.5q245 0 370.5 -115.5t125.5 -374.5l-1 -488q0 -222 -128.5 -343t-358.5 -121
q-229 0 -358 119t-129 331q0 200 127.5 315t347.5 115zM617 133q147 0 230.5 72t83.5 219q0 137 -84.5 207.5t-229.5 70.5t-229.5 -70.5t-84.5 -207.5q0 -147 83.5 -219t230.5 -72z" />
    <glyph glyph-name="product" unicode="&#x220f;" 
d="M170 1570q0 14 8 22t22 8h880q14 0 22 -8t8 -22v-1920q0 -14 -8 -22t-22 -8h-119q-13 0 -21.5 8t-8.5 22v1780h-581v-1780q0 -14 -8 -22t-22 -8h-120q-14 0 -22 8t-8 22v1920z" />
    <glyph glyph-name="summation" unicode="&#x2211;" horiz-adv-x="1305" 
d="M1140 1600q14 0 22 -8t8 -22v-110q0 -14 -8 -22t-22 -8h-752l536 -799q12 -21 0 -41l-536 -800h752q14 0 22 -8t8 -22v-110q0 -14 -8 -22t-22 -8h-940q-14 0 -22 8t-8 22v120q0 18 12 36l538 804l-538 804q-12 18 -12 36v120q0 14 8 22t22 8h940z" />
    <glyph glyph-name="minus" unicode="&#x2212;" 
d="M1013 642q13 0 21.5 -8t8.5 -22v-86q0 -14 -8.5 -22t-21.5 -8h-745q-14 0 -22 8t-8 22v86q0 14 8 22t22 8h745z" />
    <glyph glyph-name="radical" unicode="&#x221a;" horiz-adv-x="1285" 
d="M1178 1600q32 0 26 -34l-427 -1920q-7 -26 -32 -26h-164q-27 0 -34 25l-239 869h-198q-14 0 -22 8t-8 22v110q0 14 8 22t22 8h292q28 0 34 -26l222 -855l386 1771q6 26 32 26h102z" />
    <glyph glyph-name="infinity" unicode="&#x221e;" horiz-adv-x="1470" 
d="M1046 850q126 0 192.5 -86t66.5 -241q0 -158 -66.5 -244.5t-192.5 -86.5q-51 0 -94 16.5t-81.5 52.5t-67 72.5t-68.5 96.5q-41 -61 -68.5 -96.5t-65.5 -72t-80.5 -53t-93.5 -16.5q-128 0 -195 86.5t-67 244.5q0 156 67 241.5t195 85.5q41 0 78 -12.5t64.5 -31t58.5 -52.5
t53 -63.5t54 -77.5q40 60 68.5 96t67 72t81.5 52.5t94 16.5zM445 314q65 0 134 82q21 27 92 126q-30 44 -40.5 58l-35 47t-37.5 44l-34 28.5t-39.5 23t-39.5 5.5q-153 0 -153 -206q0 -95 36.5 -151.5t116.5 -56.5zM1026 314q80 0 116.5 56.5t36.5 151.5q0 206 -153 206
q-25 0 -49.5 -11.5t-42.5 -25.5t-45 -46.5t-42.5 -54l-48.5 -68.5q84 -118 117 -152q56 -56 111 -56z" />
    <glyph glyph-name="integral" unicode="&#x222b;" 
d="M915 1472q90 0 175 -18t85 -46v-89q0 -15 -10 -23t-26 -5q-2 0 -31 8t-68 13.5t-86 5.5q-55 0 -93 -10t-69 -35.5t-46 -75.5t-15 -125v-1073q0 -92 -18 -160.5t-49.5 -111.5t-79 -70t-100 -37t-119.5 -10q-89 0 -174.5 18t-85.5 46v89q0 15 10 23t26 5q2 0 31 -8
t68 -13.5t87 -5.5q55 0 93 10t69.5 35.5t46.5 75.5t15 125v1073q0 114 26.5 192.5t77.5 120t113.5 59t146.5 17.5z" />
    <glyph glyph-name="approxequal" unicode="&#x2248;" horiz-adv-x="1218" 
d="M411 887q54 0 101.5 -19.5t82 -46.5l67 -54.5t70 -47t77.5 -19.5q53 0 86.5 26.5t42.5 58.5q5 20 25 20h67q27 0 23 -24q-7 -96 -75.5 -153t-175.5 -57q-53 0 -100 19.5t-81.5 46.5l-66.5 54.5t-69 47t-75 19.5q-92 0 -128 -84q-10 -21 -26 -21h-68q-25 0 -22 30
q11 90 77 147t168 57zM411 531q54 0 101.5 -19.5t82 -46.5l67 -54.5t70 -47t77.5 -19.5q53 0 86.5 26.5t42.5 58.5q5 20 25 20h67q27 0 23 -24q-7 -96 -75.5 -153t-175.5 -57q-53 0 -100 19.5t-81.5 46.5l-66.5 54.5t-69 47t-75 19.5q-92 0 -128 -84q-10 -21 -26 -21h-68
q-25 0 -22 30q11 90 77 147t168 57z" />
    <glyph glyph-name="notequal" unicode="&#x2260;" horiz-adv-x="1135" 
d="M940 658h-260l-68 -177h328q14 0 22 -8.5t8 -21.5v-86q0 -13 -8 -21.5t-22 -8.5h-385l-120 -311q-9 -24 -36 -24h-87q-36 0 -24 34l117 301h-210q-13 0 -21.5 8.5t-8.5 21.5v86q0 13 8.5 21.5t21.5 8.5h266l69 177h-335q-13 0 -21.5 8t-8.5 22v86q0 14 8.5 22t21.5 8h391
l114 294q9 24 36 24h87q36 0 24 -34l-110 -284h203q14 0 22 -8t8 -22v-86q0 -14 -8 -22t-22 -8z" />
    <glyph glyph-name="lessequal" unicode="&#x2264;" horiz-adv-x="1135" 
d="M889 1025q15 -25 -13 -39l-534 -259l534 -258q27 -14 13 -39l-46 -83q-15 -26 -40 -11l-616 303q-22 9 -22 34v109q0 22 22 35l616 303q25 13 40 -12zM940 146q14 0 22 -8t8 -22v-86q0 -14 -8 -22t-22 -8h-745q-13 0 -21.5 8t-8.5 22v86q0 14 8.5 22t21.5 8h745z" />
    <glyph glyph-name="greaterequal" unicode="&#x2265;" horiz-adv-x="1219" 
d="M330 1025l46 83q15 25 40 12l616 -303q22 -13 22 -35v-109q0 -25 -22 -34l-616 -303q-25 -15 -40 11l-46 83q-14 25 13 39l534 258l-534 259q-28 14 -13 39zM279 146h745q14 0 22 -8t8 -22v-86q0 -14 -8 -22t-22 -8h-745q-13 0 -21.5 8t-8.5 22v86q0 14 8.5 22t21.5 8z
" />
    <glyph glyph-name="lozenge" unicode="&#x25ca;" horiz-adv-x="1255" 
d="M721 1400q23 0 34 -22l329 -658q10 -20 0 -40l-329 -658q-11 -22 -34 -22h-187q-23 0 -34 22l-329 658q-10 20 0 40l329 658q11 22 34 22h187zM628 140l279 560l-279 560l-280 -560z" />
    <glyph glyph-name="i.loclTRK" horiz-adv-x="1155" 
d="M578 1211q-41 0 -70.5 29.5t-29.5 71.5q0 40 29.5 69t70.5 29t70.5 -29t29.5 -69q0 -42 -29.5 -71.5t-70.5 -29.5zM1010 156q14 0 22 -8t8 -22v-96q0 -14 -8 -22t-22 -8h-855q-13 0 -21.5 8t-8.5 22v96q0 14 8.5 22t21.5 8h364v669h-314q-13 0 -21.5 8.5t-8.5 21.5v95
q0 14 8.5 22t21.5 8h464q13 0 21.5 -8t8.5 -22v-794h311z" />
    <glyph glyph-name="g.ss01" horiz-adv-x="1320" 
d="M1130 980q14 0 22 -8t8 -22v-73q0 -30 -30 -28l-170 6q96 -85 96 -217q0 -163 -93.5 -238.5t-300.5 -75.5h-232q-68 0 -98.5 -23.5t-30.5 -73.5q0 -52 33 -76.5t111 -24.5h400q145 0 211.5 -58.5t66.5 -183.5q0 -102 -48 -162t-158 -88t-300 -28q-187 0 -295.5 27.5
t-152.5 81t-44 143.5q0 72 36.5 121.5t105.5 71.5q-57 25 -86 63.5t-29 110.5q0 74 34 113.5t115 60.5q-69 33 -99.5 101.5t-30.5 150.5q0 166 102 247.5t341 81.5h516zM614 458q161 0 221.5 39.5t60.5 148.5t-61.5 151.5t-220.5 42.5q-158 0 -219.5 -43t-61.5 -151
q0 -109 60.5 -148.5t220.5 -39.5zM829 -12h-490q-42 -35 -42 -104q0 -51 24.5 -79.5t95 -44t200.5 -15.5q135 0 209.5 15t102.5 44.5t28 81.5q0 55 -29 78.5t-99 23.5z" />
    <glyph glyph-name="gbreve.ss01" horiz-adv-x="1320" 
d="M805 1382q6 28 32 28h67q32 0 29 -30q-12 -114 -90 -187t-205 -73t-205 73t-89 187q-3 30 28 30h68q26 0 32 -28q12 -57 55.5 -94.5t110.5 -37.5q68 0 111.5 37.5t55.5 94.5zM1130 980q14 0 22 -8t8 -22v-73q0 -30 -30 -28l-170 6q96 -85 96 -217q0 -163 -93.5 -238.5
t-300.5 -75.5h-232q-68 0 -98.5 -23.5t-30.5 -73.5q0 -52 33 -76.5t111 -24.5h400q145 0 211.5 -58.5t66.5 -183.5q0 -102 -48 -162t-158 -88t-300 -28q-187 0 -295.5 27.5t-152.5 81t-44 143.5q0 72 36.5 121.5t105.5 71.5q-57 25 -86 63.5t-29 110.5q0 74 34 113.5
t115 60.5q-69 33 -99.5 101.5t-30.5 150.5q0 166 102 247.5t341 81.5h516zM614 458q161 0 221.5 39.5t60.5 148.5t-61.5 151.5t-220.5 42.5q-158 0 -219.5 -43t-61.5 -151q0 -109 60.5 -148.5t220.5 -39.5zM829 -12h-490q-42 -35 -42 -104q0 -51 24.5 -79.5t95 -44
t200.5 -15.5q135 0 209.5 15t102.5 44.5t28 81.5q0 55 -29 78.5t-99 23.5z" />
    <glyph glyph-name="gcommaaccent.ss01" horiz-adv-x="1320" 
d="M430 1201q-13 0 -21 7.5t-8 20.5v46q0 115 20 234.5t49 196.5q8 21 33 21h62q30 0 25 -31q-13 -70 -20.5 -173t-5.5 -176h240q28 0 28 -28v-90q0 -28 -28 -28h-374zM1130 980q14 0 22 -8t8 -22v-73q0 -30 -30 -28l-170 6q96 -85 96 -217q0 -163 -93.5 -238.5
t-300.5 -75.5h-232q-68 0 -98.5 -23.5t-30.5 -73.5q0 -52 33 -76.5t111 -24.5h400q145 0 211.5 -58.5t66.5 -183.5q0 -102 -48 -162t-158 -88t-300 -28q-187 0 -295.5 27.5t-152.5 81t-44 143.5q0 72 36.5 121.5t105.5 71.5q-57 25 -86 63.5t-29 110.5q0 74 34 113.5
t115 60.5q-69 33 -99.5 101.5t-30.5 150.5q0 166 102 247.5t341 81.5h516zM614 458q161 0 221.5 39.5t60.5 148.5t-61.5 151.5t-220.5 42.5q-158 0 -219.5 -43t-61.5 -151q0 -109 60.5 -148.5t220.5 -39.5zM829 -12h-490q-42 -35 -42 -104q0 -51 24.5 -79.5t95 -44
t200.5 -15.5q135 0 209.5 15t102.5 44.5t28 81.5q0 55 -29 78.5t-99 23.5z" />
    <glyph glyph-name="gdotaccent.ss01" horiz-adv-x="1320" 
d="M638 1211q-41 0 -70.5 29.5t-29.5 71.5q0 40 29.5 69t70.5 29t70.5 -29t29.5 -69q0 -42 -29.5 -71.5t-70.5 -29.5zM1130 980q14 0 22 -8t8 -22v-73q0 -30 -30 -28l-170 6q96 -85 96 -217q0 -163 -93.5 -238.5t-300.5 -75.5h-232q-68 0 -98.5 -23.5t-30.5 -73.5
q0 -52 33 -76.5t111 -24.5h400q145 0 211.5 -58.5t66.5 -183.5q0 -102 -48 -162t-158 -88t-300 -28q-187 0 -295.5 27.5t-152.5 81t-44 143.5q0 72 36.5 121.5t105.5 71.5q-57 25 -86 63.5t-29 110.5q0 74 34 113.5t115 60.5q-69 33 -99.5 101.5t-30.5 150.5
q0 166 102 247.5t341 81.5h516zM614 458q161 0 221.5 39.5t60.5 148.5t-61.5 151.5t-220.5 42.5q-158 0 -219.5 -43t-61.5 -151q0 -109 60.5 -148.5t220.5 -39.5zM829 -12h-490q-42 -35 -42 -104q0 -51 24.5 -79.5t95 -44t200.5 -15.5q135 0 209.5 15t102.5 44.5t28 81.5
q0 55 -29 78.5t-99 23.5z" />
    <glyph glyph-name="zero.dnom" 
d="M640 992q266 0 384.5 -111.5t118.5 -362.5v-69q0 -251 -118.5 -363t-384.5 -112q-265 0 -383.5 112t-118.5 363v69q0 251 118.5 362.5t383.5 111.5zM640 829q-97 0 -164 -20t-104.5 -60t-53 -92.5t-15.5 -126.5v-93q0 -74 15.5 -127t53 -93t104 -60t164.5 -20
q189 0 263.5 74.5t74.5 225.5v93q0 74 -16 126.5t-53.5 92.5t-104.5 60t-164 20z" />
    <glyph glyph-name="one.dnom" 
d="M1060 151q14 0 22 -8.5t8 -21.5v-91q0 -14 -8 -22t-22 -8h-840q-14 0 -22 8t-8 22v91q0 13 8 21.5t22 8.5h364v650q-137 -129 -318 -129q-30 0 -30 30v103q0 31 30 31q74 0 157.5 37.5t160.5 106.5h150q14 0 22 -8t8 -22v-799h296z" />
    <glyph glyph-name="two.dnom" 
d="M1056 152q14 0 22 -8t8 -22v-92q0 -14 -8 -22t-22 -8h-841q-13 0 -21.5 8t-8.5 22v90q0 86 40 150.5t104.5 103t142.5 67.5t155.5 50.5t142 44t104.5 57t40 81.5q0 81 -64.5 119.5t-202.5 38.5q-294 0 -300 -177q0 -31 -31 -28l-109 12q-29 3 -29 32q0 158 118 238.5
t340 80.5q217 0 334 -82t117 -234q0 -63 -30 -113t-79 -81t-112 -58t-128 -44t-128 -39.5t-112 -45t-79 -58.5t-30 -83h667z" />
    <glyph glyph-name="three.dnom" 
d="M886 493q59 -12 101.5 -28.5t79 -44t55 -69.5t18.5 -98q0 -77 -36 -132.5t-104.5 -87t-156.5 -45.5t-202 -14q-121 0 -207.5 14t-151.5 46.5t-97 89.5t-32 141q0 29 29 32l115 12q29 3 31 -28q1 -86 74.5 -118.5t230.5 -32.5q77 0 131 5t100.5 19t69.5 41.5t23 68.5
q0 90 -91.5 123.5t-308.5 33.5q-30 0 -30 30v68q0 31 31 31q202 0 288 36t86 111t-74 107t-216 32q-146 0 -219.5 -39.5t-74.5 -133.5q-2 -31 -31 -28l-115 11q-29 3 -29 32q0 165 121.5 238.5t352.5 73.5q217 0 337 -66.5t120 -202.5q0 -87 -60 -145t-158 -83z" />
    <glyph glyph-name="four.dnom" 
d="M951 980q13 0 21.5 -8t8.5 -22v-446h139q14 0 22 -8t8 -22v-93q0 -13 -8 -21.5t-22 -8.5h-139v-321q0 -14 -8.5 -22t-21.5 -8h-120q-13 0 -21.5 8t-8.5 22v321h-631q-14 0 -22 8.5t-8 21.5v569q0 14 8 22t22 8h120q14 0 22 -8t8 -22v-446h481v446q0 14 8.5 22t21.5 8h120
z" />
    <glyph glyph-name="five.dnom" 
d="M304 311q26 0 33 -27q20 -78 96 -109t216 -31q157 0 241.5 49.5t84.5 149.5q0 206 -327 206q-186 0 -298 -86q-23 -19 -43 -10l-93 35q-27 13 -19 37l121 429q6 26 32 26h647q13 0 21.5 -8t8.5 -22v-87q0 -13 -8.5 -21.5t-21.5 -8.5h-550l-60 -202q94 58 288 58
q225 0 345 -87.5t120 -258.5q0 -169 -125.5 -259t-362.5 -90q-225 0 -345 67t-135 219q-3 31 28 31h106z" />
    <glyph glyph-name="six.dnom" 
d="M663 588q231 0 353 -71t122 -226q0 -160 -125.5 -238.5t-362.5 -78.5q-241 0 -363.5 81.5t-123.5 256.5v296q-1 200 124 292t371 92q203 0 326 -70t123 -192q0 -27 -30 -30l-102 -9q-27 -3 -33 27q-11 63 -87 95.5t-201 32.5q-69 0 -121 -9.5t-99.5 -33.5t-72.5 -72
t-25 -119v-119q32 51 126.5 73t200.5 22zM650 127q157 0 235.5 36t78.5 130q0 48 -21 79.5t-65 47.5t-96.5 22t-131.5 6q-314 0 -314 -148q0 -97 79 -135t235 -38z" />
    <glyph glyph-name="seven.dnom" 
d="M1093 980q13 0 21.5 -8t8.5 -22v-107q0 -26 -8 -38l-574 -774q-2 -3 -7.5 -10l-7 -9t-6 -6t-8.5 -5t-9 -1h-140q-15 0 -22.5 9t0.5 22l592 792h-725q-14 0 -22 8.5t-8 21.5v97q0 14 8 22t22 8h885z" />
    <glyph glyph-name="eight.dnom" 
d="M912 543q115 -38 170.5 -102t55.5 -165q0 -302 -498 -302q-497 0 -497 302q0 101 55 165t170 102q-77 19 -117.5 71.5t-40.5 121.5q0 121 108 187.5t322 66.5t322 -66.5t108 -187.5q0 -70 -40.5 -122t-117.5 -71zM375 718q0 -59 62 -86.5t203 -27.5q142 0 203.5 27.5
t61.5 86.5q0 64 -60.5 92t-204.5 28t-204.5 -28t-60.5 -92zM640 133q164 0 244 33.5t80 119.5q0 91 -82 130t-242 39t-242 -39t-82 -130q0 -86 80 -119.5t244 -33.5z" />
    <glyph glyph-name="nine.dnom" 
d="M618 378q-232 0 -353.5 71t-121.5 226q0 317 487 317q242 0 364.5 -81.5t122.5 -256.5l1 -296q0 -201 -124.5 -292.5t-371.5 -91.5q-216 0 -342 70t-126 192q0 27 30 30l102 9q28 2 32 -27q21 -128 308 -128q70 0 122 9.5t99 33.5t72 72t25 119v119q-32 -51 -126.5 -73
t-199.5 -22zM630 839q-157 0 -235.5 -36t-78.5 -130q0 -48 21 -79.5t65 -47.5t96.5 -22t131.5 -6q314 0 314 148q0 97 -79 135t-235 38z" />
    <glyph glyph-name="zero.numr" 
d="M640 1201q266 0 384.5 -111.5t118.5 -362.5v-69q0 -251 -118.5 -363t-384.5 -112q-265 0 -383.5 112t-118.5 363v69q0 251 118.5 362.5t383.5 111.5zM640 1038q-97 0 -164 -20t-104.5 -60t-53 -92.5t-15.5 -126.5v-93q0 -74 15.5 -127t53 -93t104 -60t164.5 -20
q189 0 263.5 74.5t74.5 225.5v93q0 74 -16 126.5t-53.5 92.5t-104.5 60t-164 20z" />
    <glyph glyph-name="one.numr" 
d="M1060 361q14 0 22 -8.5t8 -21.5v-91q0 -14 -8 -22t-22 -8h-840q-14 0 -22 8t-8 22v91q0 13 8 21.5t22 8.5h364v650q-137 -129 -318 -129q-30 0 -30 30v103q0 31 30 31q74 0 157.5 37.5t160.5 106.5h150q14 0 22 -8t8 -22v-799h296z" />
    <glyph glyph-name="two.numr" 
d="M1056 362q14 0 22 -8t8 -22v-92q0 -14 -8 -22t-22 -8h-841q-13 0 -21.5 8t-8.5 22v90q0 86 40 150.5t104.5 103t142.5 67.5t155.5 50.5t142 44t104.5 57t40 81.5q0 81 -64.5 119.5t-202.5 38.5q-294 0 -300 -177q0 -31 -31 -28l-109 12q-29 3 -29 32q0 158 118 238.5
t340 80.5q217 0 334 -82t117 -234q0 -63 -30 -113t-79 -81t-112 -58t-128 -44t-128 -39.5t-112 -45t-79 -58.5t-30 -83h667z" />
    <glyph glyph-name="three.numr" 
d="M886 703q59 -12 101.5 -28.5t79 -44t55 -69.5t18.5 -98q0 -77 -36 -132.5t-104.5 -87t-156.5 -45.5t-202 -14q-121 0 -207.5 14t-151.5 46.5t-97 89.5t-32 141q0 29 29 32l115 12q29 3 31 -28q1 -86 74.5 -118.5t230.5 -32.5q77 0 131 5t100.5 19t69.5 41.5t23 68.5
q0 90 -91.5 123.5t-308.5 33.5q-30 0 -30 30v68q0 31 31 31q202 0 288 36t86 111t-74 107t-216 32q-146 0 -219.5 -39.5t-74.5 -133.5q-2 -31 -31 -28l-115 11q-29 3 -29 32q0 165 121.5 238.5t352.5 73.5q217 0 337 -66.5t120 -202.5q0 -87 -60 -145t-158 -83z" />
    <glyph glyph-name="four.numr" 
d="M951 1190q13 0 21.5 -8t8.5 -22v-446h139q14 0 22 -8t8 -22v-93q0 -13 -8 -21.5t-22 -8.5h-139v-321q0 -14 -8.5 -22t-21.5 -8h-120q-13 0 -21.5 8t-8.5 22v321h-631q-14 0 -22 8.5t-8 21.5v569q0 14 8 22t22 8h120q14 0 22 -8t8 -22v-446h481v446q0 14 8.5 22t21.5 8
h120z" />
    <glyph glyph-name="five.numr" 
d="M304 521q26 0 33 -27q20 -78 96 -109t216 -31q157 0 241.5 49.5t84.5 149.5q0 206 -327 206q-186 0 -298 -86q-23 -19 -43 -10l-93 35q-27 13 -19 37l121 429q6 26 32 26h647q13 0 21.5 -8t8.5 -22v-87q0 -13 -8.5 -21.5t-21.5 -8.5h-550l-60 -202q94 58 288 58
q225 0 345 -87.5t120 -258.5q0 -169 -125.5 -259t-362.5 -90q-225 0 -345 67t-135 219q-3 31 28 31h106z" />
    <glyph glyph-name="six.numr" 
d="M663 797q231 0 353 -71t122 -226q0 -160 -125.5 -238.5t-362.5 -78.5q-241 0 -363.5 81.5t-123.5 256.5v296q-1 200 124 292t371 92q203 0 326 -70t123 -192q0 -27 -30 -30l-102 -9q-27 -3 -33 27q-11 63 -87 95.5t-201 32.5q-69 0 -121 -9.5t-99.5 -33.5t-72.5 -72
t-25 -119v-119q32 51 126.5 73t200.5 22zM650 336q157 0 235.5 36t78.5 130q0 48 -21 79.5t-65 47.5t-96.5 22t-131.5 6q-314 0 -314 -148q0 -97 79 -135t235 -38z" />
    <glyph glyph-name="seven.numr" 
d="M1093 1190q13 0 21.5 -8t8.5 -22v-107q0 -26 -8 -38l-574 -774q-2 -3 -7.5 -10l-7 -9t-6 -6t-8.5 -5t-9 -1h-140q-15 0 -22.5 9t0.5 22l592 792h-725q-14 0 -22 8.5t-8 21.5v97q0 14 8 22t22 8h885z" />
    <glyph glyph-name="eight.numr" 
d="M912 753q115 -38 170.5 -102t55.5 -165q0 -302 -498 -302q-497 0 -497 302q0 101 55 165t170 102q-77 19 -117.5 71.5t-40.5 121.5q0 121 108 187.5t322 66.5t322 -66.5t108 -187.5q0 -70 -40.5 -122t-117.5 -71zM375 928q0 -59 62 -86.5t203 -27.5q142 0 203.5 27.5
t61.5 86.5q0 64 -60.5 92t-204.5 28t-204.5 -28t-60.5 -92zM640 343q164 0 244 33.5t80 119.5q0 91 -82 130t-242 39t-242 -39t-82 -130q0 -86 80 -119.5t244 -33.5z" />
    <glyph glyph-name="nine.numr" 
d="M618 587q-232 0 -353.5 71t-121.5 226q0 317 487 317q242 0 364.5 -81.5t122.5 -256.5l1 -296q0 -201 -124.5 -292.5t-371.5 -91.5q-216 0 -342 70t-126 192q0 27 30 30l102 9q28 2 32 -27q21 -128 308 -128q70 0 122 9.5t99 33.5t72 72t25 119v119q-32 -51 -126.5 -73
t-199.5 -22zM630 1048q-157 0 -235.5 -36t-78.5 -130q0 -48 21 -79.5t65 -47.5t96.5 -22t131.5 -6q314 0 314 148q0 97 -79 135t-235 38z" />
    <glyph glyph-name="section.ss01" horiz-adv-x="1233" 
d="M617 349q186 -21 260 -44q162 -50 186 -178q5 -25 5 -52q0 -134 -107 -211.5t-324 -77.5q-82 0 -148 8.5t-124.5 29.5t-99.5 54t-67 83.5t-33 116.5q-3 30 29 30h115q27 0 30 -23q11 -80 87.5 -113t209.5 -33q256 0 256 136q0 74 -84 103q-45 15 -191 32q-54 7 -91 12.5
t-86 16.5t-82 24.5t-68.5 35t-56.5 48.5t-34.5 65t-13.5 85q0 124 103 196q-109 73 -123 216q-3 30 29 30h115q27 0 30 -23q11 -80 87.5 -113t209.5 -33q256 0 256 136q0 73 -82 102q-44 15 -172 30l-21 3q-54 6 -91 12t-86 17t-82 24t-68.5 34.5t-56.5 48.5t-34.5 65
t-13.5 85q0 124 105 198.5t312 74.5q197 0 312.5 -66.5t131.5 -224.5q3 -30 -28 -30h-116q-26 0 -29 23q-20 146 -270 146q-116 0 -179.5 -30t-63.5 -89q0 -38 17.5 -64.5t54 -42.5t79 -25.5t106.5 -16.5q186 -21 260 -44q162 -51 186 -179q5 -25 5 -52q0 -147 -124 -222
q89 -72 102 -204q3 -30 -28 -30h-116q-26 0 -29 23q-6 41 -28.5 70t-59.5 45t-81 23t-101 7q-243 0 -243 -119q0 -38 17.5 -64.5t54 -42.5t79 -25.5t106.5 -16.5z" />
    </font>
</defs>
</svg>
