<svg xmlns="http://www.w3.org/2000/svg" viewBox="0 0 46.31 48.01"><defs><style>.cls-1{fill:#fff;stroke:#010101;stroke-miterlimit:10;stroke-width:3px;}</style></defs><title>Ресурс 8</title><g id="Слой_2" data-name="Слой 2"><g id="Layer_1" data-name="Layer 1"><path class="cls-1" d="M44.81,35.33A10.83,10.83,0,0,1,35,46.48a12.4,12.4,0,0,1-10.31-4c-2.87-3.27-5-6.62-8.91-6.71h-.11A14.1,14.1,0,0,1,1.53,21.32l0-4.14a5.5,5.5,0,0,1,2.62-4.72c3.25-2,8.76-5,12.17-4.91C36.51,7.85,44.57,21.78,44.81,35.33Z"/><path class="cls-1" d="M44.81,29.32A10.82,10.82,0,0,1,35,40.43a10.54,10.54,0,0,1-9.71-5,11.56,11.56,0,0,0-9.51-5.69h-.11A14.1,14.1,0,0,1,1.53,15.28C1.7,7.56,8.57,1.39,16.29,1.5,36.53,1.8,44.59,15.75,44.81,29.32Z"/><circle class="cls-1" cx="16.28" cy="14.98" r="5.4"/></g></g></svg>