<svg xmlns="http://www.w3.org/2000/svg" viewBox="0 0 69.17 42"><defs><style>.cls-1{fill:#fff;stroke:#010101;stroke-miterlimit:10;stroke-width:3px;}</style></defs><title>Ресурс 10</title><g id="Слой_2" data-name="Слой 2"><g id="Layer_1" data-name="Layer 1"><path class="cls-1" d="M45.1,1.5h0a4.09,4.09,0,0,0-3.6,2.11,7.88,7.88,0,0,1-6.92,4.1,7.86,7.86,0,0,1-6.91-4.1,4.1,4.1,0,0,0-3.6-2.11h0A4.14,4.14,0,0,0,20,5.24L17.54,30H51.62l-2.4-24.8A4.14,4.14,0,0,0,45.1,1.5Z"/><path class="cls-1" d="M34.58,30.32a54,54,0,0,1-28.7-8.2,2.87,2.87,0,0,0-3.59,4.41,44.19,44.19,0,0,0,32.29,14,44.18,44.18,0,0,0,32.29-14,2.87,2.87,0,0,0-3.58-4.41A54,54,0,0,1,34.58,30.32Z"/><path class="cls-1" d="M51.23,21.07a54.52,54.52,0,0,1-16.65,2.59A54.27,54.27,0,0,1,17.68,21"/></g></g></svg>