<svg xmlns="http://www.w3.org/2000/svg" viewBox="0 0 54.37 47.54"><defs><style>.cls-1{fill:#fff;}.cls-1,.cls-2{stroke:#010101;stroke-miterlimit:10;stroke-width:3px;}.cls-2{fill:none;}</style></defs><title>Ресурс 6</title><g id="Слой_2" data-name="Слой 2"><g id="Layer_1" data-name="Layer 1"><path class="cls-1" d="M1.5,29.52h0A16.52,16.52,0,0,0,18,46h6.76a6.76,6.76,0,0,0,6.76-6.76H17.21A5.32,5.32,0,0,1,11.89,34h0a5.32,5.32,0,0,1,5.32-5.32h20A15.65,15.65,0,0,0,52.82,13H18A16.52,16.52,0,0,0,1.5,29.52Z"/><path class="cls-2" d="M25.71,1.5H41.25A11.62,11.62,0,0,1,52.87,13.12h0"/><path class="cls-2" d="M36.23,13a7.87,7.87,0,1,0,0,15.74"/><path class="cls-2" d="M25.19,13a7.82,7.82,0,1,0,0,15.63"/><path class="cls-2" d="M12.37,13.94a7.78,7.78,0,0,0,5.9,14.4"/><path class="cls-2" d="M2.58,23.54A6.31,6.31,0,0,0,14.2,28.46"/><path class="cls-2" d="M3.15,36.83a4.8,4.8,0,1,0,8.73-4"/></g></g></svg>