<svg xmlns="http://www.w3.org/2000/svg" viewBox="0 0 47.46 46.42"><defs><style>.cls-1{fill:#fff;stroke:#010101;stroke-miterlimit:10;stroke-width:3px;}</style></defs><title>Ресурс 11</title><g id="Слой_2" data-name="Слой 2"><g id="Layer_1" data-name="Layer 1"><path class="cls-1" d="M22.09,33.92a24.13,24.13,0,0,0,1.49-22.27A24.21,24.21,0,0,0,1.92,29c-2.8,9.57,9,16.76,16.22,9.88A23.83,23.83,0,0,0,22.09,33.92Z"/><path class="cls-1" d="M25.36,33.92a24.13,24.13,0,0,1-1.48-22.27A24.13,24.13,0,0,1,43,23.19,24.37,24.37,0,0,1,45.53,29c2.81,9.57-9,16.76-16.22,9.88A24.51,24.51,0,0,1,25.36,33.92Z"/><path class="cls-1" d="M33.89,31.44c0-4-2.62-10.6-4.53-14.85a39.47,39.47,0,0,1-2.13-6.75A23.31,23.31,0,0,0,23.47,1.5H18.24l2.39,5.39a35.19,35.19,0,0,1-2.81,9.7c-1.94,4.28-4.56,10.81-4.56,14.85a24.36,24.36,0,0,0,.82,6.26c2.58,9.63,16.41,9.63,19,0A24.36,24.36,0,0,0,33.89,31.44Z"/></g></g></svg>