<svg xmlns="http://www.w3.org/2000/svg" viewBox="0 0 48.1 64.66"><defs><style>.cls-1{fill:#fff;}.cls-1,.cls-2{stroke:#010101;stroke-miterlimit:10;stroke-width:3px;}.cls-2{fill:none;}</style></defs><title>Ресурс 9</title><g id="Слой_2" data-name="Слой 2"><g id="Layer_1" data-name="Layer 1"><path class="cls-1" d="M43.42,49.82,45,48.23a5,5,0,0,0,0-7.12L45,41a5,5,0,0,1,0-7.11l.08-.08a5,5,0,0,0,0-7.11L45,26.58a5,5,0,0,1,0-7.12l.14-.14a5,5,0,0,0,0-7.12l-.07-.07a5,5,0,0,1,0-7.12L45.14,5A2,2,0,0,0,43.67,1.5l-9.29.37a5.06,5.06,0,0,0-3.44,1.46l-2.22,2.2a5,5,0,0,0,0,7.12l.14.15a5,5,0,0,1,0,7.11l-.14.15a5,5,0,0,0,0,7.12l.07.07a5,5,0,0,1,0,7.12l-.07.07a5,5,0,0,0,0,7.12h0a5,5,0,0,1,0,7.12h0a2,2,0,0,0,1.46,3.45l8.63-.3A7,7,0,0,0,43.42,49.82Z"/><path class="cls-2" d="M38.79,52c-1.82,0-3.22-2.57-1.93-3.85h0c2-2-3.52-10.69-3.52-10.69L37,33.81a5,5,0,0,0,0-7.12l-.07-.07a5,5,0,0,1,0-7.12l.15-.14a5,5,0,0,0,0-7.12L37,12.09A5,5,0,0,1,37,5l3.59-3.56"/><path class="cls-1" d="M43.27,51.42V49.16a5,5,0,0,0-5-5h-.1a5,5,0,0,1-5-5V39a5,5,0,0,0-5-5h-.21a5,5,0,0,1-5-5v-.2a5,5,0,0,0-5-5h-.11a5,5,0,0,1-5-5v-.08a2,2,0,0,0-3.48-1.39L2.89,24A5,5,0,0,0,1.5,27.5v3.13a5,5,0,0,0,5,5h.21a5,5,0,0,1,5,5v.21a5,5,0,0,0,5,5h.1a5,5,0,0,1,5,5v.1a5,5,0,0,0,5,5h0a5,5,0,0,1,5,5h0a2,2,0,0,0,3.48,1.4l5.87-6.33A7,7,0,0,0,43.27,51.42Z"/><path class="cls-2" d="M39.51,58.26c-1.26,1.32-4.09.48-4.09-1.35h0a5,5,0,0,0-5-5h0a5,5,0,0,1-5-5v-.1a5,5,0,0,0-5-5h-.1a5,5,0,0,1-5-5v-.21a5,5,0,0,0-5-5h-.2a5,5,0,0,1-5-5V21.35"/></g></g></svg>